<svg width="46" height="46" viewBox="0 0 46 46" fill="none" xmlns="http://www.w3.org/2000/svg">
<circle cx="23" cy="23" r="12" fill="#CB061D"/>
<path d="M32.8393 9.66038C33.0085 9.78171 33.1777 9.90303 33.3376 10.0329" stroke="#00005B" stroke-width="2" stroke-linecap="round" stroke-linejoin="round"/>
<path d="M37.279 14.0019C38.1353 15.3566 38.7918 16.8277 39.2285 18.3697C41.2723 25.5325 38.3774 33.1882 32.1053 37.2071C25.8333 41.226 17.6681 40.6572 12.0141 35.8076C6.36022 30.958 4.5553 22.9749 7.57299 16.1647C10.5907 9.35439 17.717 5.32819 25.1079 6.25787" stroke="#00005B" stroke-width="2" stroke-linecap="round" stroke-linejoin="round"/>
<path d="M28.4018 26.7232L24.2786 22.6L28.4018 18.4768C28.811 18.0676 28.7801 17.4235 28.425 16.95L28.4143 16.9358L28.4018 16.9232C27.9926 16.514 27.3485 16.5449 26.875 16.9L26.8608 16.9107L26.8482 16.9232L22.725 21.0464L18.6018 16.9232C18.1926 16.514 17.5485 16.5449 17.075 16.9L17.0608 16.9107L17.0482 16.9232C16.639 17.3324 16.6699 17.9765 17.025 18.45L17.0357 18.4642L17.0482 18.4768L21.1714 22.6L17.0482 26.7232C16.639 27.1324 16.6699 27.7765 17.025 28.25L17.0357 28.2642L17.0482 28.2768C17.3216 28.5502 17.6121 28.5501 17.8154 28.55L17.825 28.55C18.0851 28.55 18.3316 28.4265 18.515 28.3345C18.5224 28.3308 18.5297 28.3272 18.5368 28.3236L18.5731 28.3055L18.6018 28.2768L22.725 24.1536L26.8482 28.2768C27.1216 28.5502 27.4121 28.5501 27.6154 28.55L27.625 28.55C27.8851 28.55 28.1316 28.4265 28.315 28.3345C28.3224 28.3308 28.3297 28.3272 28.3368 28.3236L28.3731 28.3055L28.4018 28.2768C28.811 27.8676 28.7801 27.2235 28.425 26.75L28.4143 26.7358L28.4018 26.7232Z" fill="white" stroke="white" stroke-width="0.5"/>
</svg>
