<svg width="34" height="30" viewBox="0 0 34 30" fill="none" xmlns="http://www.w3.org/2000/svg">
<g clip-path="url(#clip0)">
<path d="M3.7002 22.2V14.6C3.7002 14.1 4.1002 13.8 4.6002 13.8H29.0002C29.5002 13.8 29.9002 14.2 29.9002 14.6V22.2H3.7002Z" fill="#FFED00"/>
<path d="M31.4 10.7L28.9 2.3C28.5 1 27.3 0 25.9 0H7.9C6.5 0 5.3 0.9 4.9 2.3L2.4 10.7C1 11 0 12.3 0 13.7V23.2C0 24.4 0.9 25.3 2.1 25.3V26.4C2.1 28.1 3.5 29.6 5.3 29.6H7.4C9.1 29.6 10.6 28.2 10.6 26.4V25.3H23.3V26.4C23.3 28.1 24.7 29.6 26.5 29.6H28.6C30.3 29.6 31.8 28.2 31.8 26.4V25.3C33 25.3 33.9 24.4 33.9 23.2V13.7C33.8 12.3 32.8 11 31.4 10.7ZM6.9 2.9C7 2.4 7.4 2.1 7.9 2.1H25.9C26.4 2.1 26.8 2.4 26.9 2.9L29.2 10.6H4.6L6.9 2.9ZM8.4 26.4C8.4 27 7.9 27.5 7.3 27.5H5.3C4.7 27.5 4.2 27 4.2 26.4V25.3H8.4V26.4ZM29.5 26.4C29.5 27 29 27.5 28.4 27.5H26.3C25.7 27.5 25.2 27 25.2 26.4V25.3H29.4L29.5 26.4ZM2.1 23.2V13.7C2.1 13.1 2.6 12.6 3.2 12.6H30.6C31.2 12.6 31.7 13.1 31.7 13.7V23.2H2.1Z" fill="#00005B"/>
<path d="M7.4998 15.3C5.7998 15.3 4.2998 16.7 4.2998 18.5C4.2998 20.3 5.6998 21.7 7.4998 21.7C9.2998 21.7 10.6998 20.3 10.6998 18.5C10.6998 16.7 9.2998 15.3 7.4998 15.3ZM7.4998 19.5C6.8998 19.5 6.3998 19 6.3998 18.4C6.3998 17.8 6.8998 17.3 7.4998 17.3C8.0998 17.3 8.5998 17.8 8.5998 18.4C8.5998 19 8.0998 19.5 7.4998 19.5Z" fill="#00005B"/>
<path d="M26.9998 15.3C25.2998 15.3 23.7998 16.7 23.7998 18.5C23.7998 20.3 25.1998 21.7 26.9998 21.7C28.6998 21.7 30.1998 20.3 30.1998 18.5C30.1998 16.7 28.7998 15.3 26.9998 15.3ZM26.9998 19.5C26.3998 19.5 25.8998 19 25.8998 18.4C25.8998 17.8 26.3998 17.3 26.9998 17.3C27.5998 17.3 28.0998 17.8 28.0998 18.4C28.0998 19 27.5998 19.5 26.9998 19.5Z" fill="#00005B"/>
<path d="M7.4999 19.5C8.10742 19.5 8.5999 19.0075 8.5999 18.4C8.5999 17.7925 8.10742 17.3 7.4999 17.3C6.89239 17.3 6.3999 17.7925 6.3999 18.4C6.3999 19.0075 6.89239 19.5 7.4999 19.5Z" fill="#F2609E"/>
<path d="M26.9999 19.5C27.6074 19.5 28.0999 19.0075 28.0999 18.4C28.0999 17.7925 27.6074 17.3 26.9999 17.3C26.3924 17.3 25.8999 17.7925 25.8999 18.4C25.8999 19.0075 26.3924 19.5 26.9999 19.5Z" fill="#F2609E"/>
<path d="M8.4002 26.4C8.4002 27 7.9002 27.5 7.3002 27.5H5.3002C4.7002 27.5 4.2002 27 4.2002 26.4V25.3H8.4002V26.4Z" fill="#F2609E"/>
<path d="M29.5002 26.4C29.5002 27 29.0002 27.5 28.4002 27.5H26.3002C25.7002 27.5 25.2002 27 25.2002 26.4V25.3H29.4002V26.4H29.5002Z" fill="#F2609E"/>
</g>
<defs>
<clipPath id="clip0">
<rect width="33.8" height="29.5" fill="white"/>
</clipPath>
</defs>
</svg>
