<svg width="36" height="36" viewBox="0 0 36 36" fill="none" xmlns="http://www.w3.org/2000/svg">
<rect x="7.10645" y="28.6075" width="22.6327" height="6.46649" fill="#FFED00"/>
<path fill-rule="evenodd" clip-rule="evenodd" d="M1.125 15.513L3.375 19.1251L17.4375 10.6876L31.5 18.5626L34.1041 15.3514L17.4529 5.65161L1.125 15.513Z" fill="#FFED00" stroke="#00005B" stroke-width="2" stroke-linecap="round" stroke-linejoin="round"/>
<path d="M6.45984 17.2913V34.2658L24.75 34.3125" stroke="#00005B" stroke-width="2" stroke-linecap="round" stroke-linejoin="round"/>
<path d="M10.2915 34.2657V21.3327H17.0415V34.2657" stroke="#00005B" stroke-width="2" stroke-linecap="round" stroke-linejoin="round"/>
<path fill-rule="evenodd" clip-rule="evenodd" d="M24.916 34.2657C24.916 34.2657 24.252 29.4158 26.2439 27.7992C28.2357 26.1826 30.8914 28.6075 30.8914 31.0324C30.8914 31.0324 32.2193 31.0325 33.5471 31.8408C34.875 32.6491 34.875 34.2657 34.875 34.2657H24.916Z" fill="#FFED00" stroke="#00005B" stroke-width="2" stroke-linecap="round" stroke-linejoin="round"/>
<path d="M29.8125 28.125L29.7392 22.5L29.8125 18" stroke="#00005B" stroke-width="2" stroke-linecap="round" stroke-linejoin="round"/>
<rect x="22.141" y="1.125" width="9.69974" height="3.23325" fill="#FFED00" stroke="#00005B" stroke-width="2" stroke-linecap="round" stroke-linejoin="round"/>
<path d="M28.9309 4.35828V11.6331" stroke="#00005B" stroke-width="2" stroke-linecap="round" stroke-linejoin="round"/>
<path d="M24.8894 4.35828V9.20815" stroke="#00005B" stroke-width="2" stroke-linecap="round" stroke-linejoin="round"/>
<rect x="20.25" y="19.125" width="5.49652" height="5.625" fill="#F2609E" stroke="#00005B" stroke-width="2" stroke-linecap="round" stroke-linejoin="round"/>
</svg>
