<svg width="25" height="25" viewBox="0 0 25 25" fill="none" xmlns="http://www.w3.org/2000/svg">
<g clip-path="url(#clip0_1147_36354)">
<path d="M16.4017 24.956H15.4017C15.3111 24.9534 15.2251 24.9152 15.1624 24.8497C15.0997 24.7842 15.0653 24.6967 15.0667 24.606C15.0667 24.561 15.0756 24.5163 15.093 24.4748C15.1104 24.4332 15.1359 24.3955 15.168 24.3638C15.2001 24.3322 15.2382 24.3072 15.28 24.2905C15.3219 24.2737 15.3666 24.2654 15.4117 24.266H16.4117C16.4568 24.2654 16.5015 24.2737 16.5433 24.2905C16.5852 24.3072 16.6232 24.3322 16.6553 24.3638C16.6874 24.3955 16.7129 24.4332 16.7303 24.4748C16.7477 24.5163 16.7567 24.561 16.7567 24.606C16.7574 24.6526 16.7486 24.6988 16.731 24.742C16.7133 24.7851 16.6871 24.8241 16.6539 24.8569C16.6208 24.8896 16.5813 24.9152 16.538 24.9323C16.4946 24.9493 16.4483 24.9574 16.4017 24.956V24.956Z" fill="#333333"/>
<path d="M12.9866 24.956H11.9866C11.8951 24.956 11.8074 24.9197 11.7426 24.855C11.6779 24.7903 11.6416 24.7025 11.6416 24.611C11.6416 24.566 11.6506 24.5213 11.668 24.4798C11.6854 24.4382 11.7108 24.4005 11.7429 24.3688C11.775 24.3372 11.8131 24.3123 11.855 24.2955C11.8968 24.2787 11.9415 24.2704 11.9866 24.271H12.9866C13.0314 24.2704 13.076 24.2787 13.1175 24.2955C13.1591 24.3124 13.1968 24.3374 13.2285 24.3691C13.2602 24.4008 13.2852 24.4386 13.3021 24.4801C13.3189 24.5217 13.3273 24.5662 13.3266 24.611C13.3273 24.6561 13.319 24.7009 13.3022 24.7427C13.2854 24.7845 13.2604 24.8226 13.2288 24.8547C13.1972 24.8868 13.1595 24.9123 13.1179 24.9297C13.0763 24.9471 13.0317 24.956 12.9866 24.956V24.956Z" fill="#333333"/>
<path d="M20.0666 4.39104H17.3716V3.72104C17.3716 3.6304 17.336 3.5434 17.2723 3.47884C17.2087 3.41428 17.1223 3.37736 17.0316 3.37604H15.1716C15.1305 2.71305 14.8382 2.09068 14.3542 1.63574C13.8702 1.1808 13.2309 0.927521 12.5666 0.927521C11.9024 0.927521 11.2631 1.1808 10.7791 1.63574C10.2951 2.09068 10.0027 2.71305 9.96162 3.37604H8.10662C8.01512 3.37604 7.92737 3.41239 7.86267 3.47709C7.79797 3.54179 7.76162 3.62954 7.76162 3.72104V4.39104H5.06662C4.87434 4.39104 4.68993 4.46743 4.55397 4.60339C4.41801 4.73935 4.34162 4.92376 4.34162 5.11604V24.221C4.3403 24.3171 4.35807 24.4124 4.39391 24.5016C4.42975 24.5907 4.48295 24.6718 4.5504 24.7402C4.61786 24.8086 4.69823 24.8629 4.78685 24.8999C4.87547 24.937 4.97057 24.9561 5.06662 24.956H9.59162C9.68312 24.956 9.77087 24.9197 9.83557 24.855C9.90027 24.7903 9.93662 24.7025 9.93662 24.611C9.93663 24.566 9.92767 24.5213 9.91027 24.4798C9.89287 24.4382 9.86738 24.4005 9.83528 24.3688C9.80317 24.3372 9.7651 24.3123 9.72327 24.2955C9.68144 24.2787 9.63669 24.2704 9.59162 24.271H5.06662C5.05557 24.2698 5.04537 24.2645 5.03799 24.2562C5.0306 24.2479 5.02655 24.2372 5.02662 24.226V5.11604C5.02662 5.10543 5.03084 5.09526 5.03834 5.08776C5.04584 5.08026 5.05601 5.07604 5.06662 5.07604H7.76162V5.75604C7.76162 5.84754 7.79797 5.9353 7.86267 6C7.92737 6.0647 8.01512 6.10104 8.10662 6.10104H17.0316C17.1223 6.09973 17.2087 6.0628 17.2723 5.99824C17.336 5.93369 17.3716 5.84668 17.3716 5.75604V5.07604H20.0666C20.0721 5.07519 20.0776 5.07563 20.0829 5.07734C20.0881 5.07905 20.0929 5.08197 20.0968 5.08587C20.1007 5.08977 20.1036 5.09454 20.1053 5.09978C20.107 5.10502 20.1075 5.1106 20.1066 5.11604V24.221C20.1055 24.2313 20.101 24.2408 20.0937 24.2481C20.0864 24.2554 20.0769 24.26 20.0666 24.261H18.8016C18.7566 24.2604 18.7118 24.2687 18.67 24.2855C18.6281 24.3023 18.5901 24.3272 18.558 24.3588C18.5259 24.3905 18.5004 24.4282 18.483 24.4698C18.4656 24.5113 18.4566 24.556 18.4566 24.601C18.4566 24.6925 18.493 24.7803 18.5577 24.845C18.6224 24.9097 18.7101 24.946 18.8016 24.946H20.0666C20.1623 24.946 20.2569 24.9271 20.3452 24.8904C20.4335 24.8536 20.5137 24.7998 20.5811 24.7319C20.6484 24.6641 20.7017 24.5836 20.7379 24.495C20.774 24.4065 20.7923 24.3117 20.7916 24.216V5.11604C20.7916 5.02083 20.7729 4.92656 20.7364 4.8386C20.7 4.75064 20.6466 4.67071 20.5793 4.60339C20.512 4.53607 20.432 4.48267 20.3441 4.44623C20.2561 4.4098 20.1618 4.39104 20.0666 4.39104V4.39104ZM16.6866 5.41604H8.44662V4.06104H10.2966C10.3873 4.06105 10.4743 4.02539 10.5388 3.96177C10.6034 3.89815 10.6403 3.81167 10.6416 3.72104V3.55604C10.6416 3.0455 10.8444 2.55587 11.2054 2.19486C11.5664 1.83386 12.0561 1.63104 12.5666 1.63104C13.0772 1.63104 13.5668 1.83386 13.9278 2.19486C14.2888 2.55587 14.4916 3.0455 14.4916 3.55604V3.72104C14.4916 3.81122 14.5274 3.8977 14.5912 3.96146C14.655 4.02522 14.7414 4.06104 14.8316 4.06104H16.6866V5.41604Z" fill="#333333"/>
<path d="M18.4067 10.381H11.5667C11.5216 10.3817 11.4769 10.3734 11.435 10.3566C11.3932 10.3398 11.3551 10.3149 11.323 10.2832C11.2909 10.2516 11.2654 10.2139 11.248 10.1723C11.2306 10.1307 11.2217 10.0861 11.2217 10.041C11.2217 9.94955 11.258 9.86179 11.3227 9.79709C11.3874 9.73239 11.4752 9.69604 11.5667 9.69604H18.4067C18.4982 9.69604 18.5859 9.73239 18.6506 9.79709C18.7153 9.86179 18.7517 9.94955 18.7517 10.041C18.7517 10.0861 18.7427 10.1307 18.7253 10.1723C18.7079 10.2139 18.6824 10.2516 18.6503 10.2832C18.6182 10.3149 18.5802 10.3398 18.5383 10.3566C18.4965 10.3734 18.4517 10.3817 18.4067 10.381V10.381Z" fill="#333333"/>
<path d="M18.4067 13.9811H11.5667C11.5216 13.9817 11.4769 13.9734 11.435 13.9566C11.3932 13.9398 11.3551 13.9149 11.323 13.8833C11.2909 13.8516 11.2654 13.8139 11.248 13.7723C11.2306 13.7307 11.2217 13.6861 11.2217 13.6411C11.2217 13.5496 11.258 13.4618 11.3227 13.3971C11.3874 13.3324 11.4752 13.2961 11.5667 13.2961H18.4067C18.4982 13.2961 18.5859 13.3324 18.6506 13.3971C18.7153 13.4618 18.7517 13.5496 18.7517 13.6411C18.7517 13.6861 18.7427 13.7307 18.7253 13.7723C18.7079 13.8139 18.6824 13.8516 18.6503 13.8833C18.6182 13.9149 18.5802 13.9398 18.5383 13.9566C18.4965 13.9734 18.4517 13.9817 18.4067 13.9811Z" fill="#333333"/>
<path d="M18.4066 17.5811H11.5666C11.5182 17.5869 11.469 17.5824 11.4224 17.5679C11.3759 17.5534 11.3329 17.5291 11.2964 17.4967C11.2598 17.4644 11.2306 17.4246 11.2106 17.3801C11.1905 17.3356 11.1802 17.2874 11.1802 17.2386C11.1802 17.1897 11.1905 17.1415 11.2106 17.097C11.2306 17.0525 11.2598 17.0127 11.2964 16.9804C11.3329 16.948 11.3759 16.9237 11.4224 16.9092C11.469 16.8947 11.5182 16.8902 11.5666 16.8961H18.4066C18.4551 16.8902 18.5042 16.8947 18.5508 16.9092C18.5974 16.9237 18.6404 16.948 18.6769 16.9804C18.7134 17.0127 18.7427 17.0525 18.7627 17.097C18.7827 17.1415 18.7931 17.1897 18.7931 17.2386C18.7931 17.2874 18.7827 17.3356 18.7627 17.3801C18.7427 17.4246 18.7134 17.4644 18.6769 17.4967C18.6404 17.5291 18.5974 17.5534 18.5508 17.5679C18.5042 17.5824 18.4551 17.5869 18.4066 17.5811Z" fill="#333333"/>
<path d="M18.4066 21.181H11.5666C11.5182 21.1869 11.469 21.1824 11.4224 21.1679C11.3759 21.1533 11.3329 21.1291 11.2964 21.0967C11.2598 21.0644 11.2306 21.0246 11.2106 20.9801C11.1905 20.9356 11.1802 20.8873 11.1802 20.8385C11.1802 20.7897 11.1905 20.7415 11.2106 20.697C11.2306 20.6525 11.2598 20.6127 11.2964 20.5803C11.3329 20.548 11.3759 20.5237 11.4224 20.5092C11.469 20.4946 11.5182 20.4902 11.5666 20.496H18.4066C18.4551 20.4902 18.5042 20.4946 18.5508 20.5092C18.5974 20.5237 18.6404 20.548 18.6769 20.5803C18.7134 20.6127 18.7427 20.6525 18.7627 20.697C18.7827 20.7415 18.7931 20.7897 18.7931 20.8385C18.7931 20.8873 18.7827 20.9356 18.7627 20.9801C18.7427 21.0246 18.7134 21.0644 18.6769 21.0967C18.6404 21.1291 18.5974 21.1533 18.5508 21.1679C18.5042 21.1824 18.4551 21.1869 18.4066 21.181Z" fill="#333333"/>
<path d="M7.46674 11.341C7.42209 11.3412 7.37786 11.3325 7.33664 11.3153C7.29543 11.2981 7.25806 11.2729 7.22674 11.241L6.48674 10.501C6.45224 10.4703 6.42427 10.4329 6.4045 10.3911C6.38472 10.3493 6.37355 10.304 6.37163 10.2578C6.36972 10.2116 6.37711 10.1656 6.39335 10.1223C6.4096 10.079 6.43438 10.0394 6.46621 10.0059C6.49805 9.97241 6.5363 9.94564 6.57868 9.92719C6.62106 9.90875 6.66672 9.89901 6.71294 9.89856C6.75916 9.8981 6.80501 9.90694 6.84774 9.92455C6.89048 9.94215 6.92925 9.96817 6.96174 10.001V10.001L7.46174 10.501L9.14674 8.81605C9.21304 8.74974 9.30297 8.71249 9.39674 8.71249C9.49051 8.71249 9.58043 8.74974 9.64674 8.81605C9.71304 8.88235 9.75029 8.97228 9.75029 9.06605C9.75029 9.15981 9.71304 9.24974 9.64674 9.31605L7.72174 11.246C7.68773 11.2781 7.64765 11.303 7.60385 11.3193C7.56005 11.3357 7.51343 11.343 7.46674 11.341Z" fill="#333333"/>
<path d="M7.46661 15.056C7.42196 15.0562 7.37773 15.0475 7.33651 15.0303C7.2953 15.0131 7.25793 14.9879 7.22661 14.956L6.48661 14.216C6.42031 14.1497 6.38306 14.0598 6.38306 13.966C6.38306 13.8723 6.42031 13.7823 6.48661 13.716C6.55291 13.6497 6.64284 13.6125 6.73661 13.6125C6.83038 13.6125 6.92031 13.6497 6.98661 13.716L7.48661 14.216L9.17161 12.531C9.23791 12.4647 9.32784 12.4275 9.42161 12.4275C9.51538 12.4275 9.60531 12.4647 9.67161 12.531C9.73791 12.5973 9.77516 12.6873 9.77516 12.781C9.77516 12.8748 9.73791 12.9647 9.67161 13.031L7.71161 14.956C7.67936 14.988 7.64112 15.0133 7.59908 15.0305C7.55704 15.0476 7.51202 15.0563 7.46661 15.056V15.056Z" fill="#333333"/>
<path d="M7.46661 18.456C7.42165 18.4553 7.37729 18.4456 7.33609 18.4276C7.2949 18.4096 7.25768 18.3835 7.22661 18.351L6.48661 17.616C6.42031 17.5497 6.38306 17.4598 6.38306 17.366C6.38306 17.2723 6.42031 17.1823 6.48661 17.116C6.55291 17.0497 6.64284 17.0125 6.73661 17.0125C6.83038 17.0125 6.92031 17.0497 6.98661 17.116L7.48661 17.616L9.17161 15.931C9.20384 15.8972 9.24262 15.8702 9.28559 15.8517C9.32857 15.8333 9.37485 15.8238 9.42161 15.8238C9.46837 15.8238 9.51465 15.8333 9.55763 15.8517C9.6006 15.8702 9.63938 15.8972 9.67161 15.931C9.73361 15.9946 9.76831 16.0798 9.76831 16.1685C9.76831 16.2573 9.73361 16.3425 9.67161 16.406L7.74661 18.336C7.712 18.3759 7.66884 18.4073 7.62035 18.4281C7.57186 18.4489 7.51931 18.4584 7.46661 18.456V18.456Z" fill="#333333"/>
<path d="M7.46652 22.151C7.42187 22.1512 7.37764 22.1425 7.33642 22.1253C7.29521 22.1081 7.25784 22.0829 7.22652 22.051L6.48652 21.311C6.45198 21.2792 6.4244 21.2406 6.40555 21.1975C6.38669 21.1545 6.37695 21.108 6.37695 21.061C6.37695 21.0141 6.38669 20.9676 6.40555 20.9246C6.4244 20.8815 6.45198 20.8429 6.48652 20.811C6.55301 20.7451 6.64287 20.7081 6.73652 20.7081C6.83017 20.7081 6.92003 20.7451 6.98652 20.811L7.48652 21.311L9.17152 19.626C9.23782 19.5597 9.32775 19.5225 9.42152 19.5225C9.51529 19.5225 9.60521 19.5597 9.67152 19.626C9.73782 19.6923 9.77507 19.7823 9.77507 19.876C9.77507 19.9698 9.73782 20.0597 9.67152 20.126L7.74652 22.051C7.71005 22.0872 7.66606 22.115 7.61767 22.1323C7.56927 22.1495 7.51767 22.156 7.46652 22.151Z" fill="#333333"/>
</g>
<defs>
<clipPath id="clip0_1147_36354">
<rect width="24" height="24" fill="white" transform="translate(0.56665 0.956055)"/>
</clipPath>
</defs>
</svg>
