<svg width="30" height="36" viewBox="0 0 30 36" fill="none" xmlns="http://www.w3.org/2000/svg">
<path d="M6.8303 6.03351C5.83894 6.03351 5.02783 6.84097 5.02783 7.82786V28.3732C5.02783 29.3601 5.83894 30.1676 6.8303 30.1676H22.3315C23.3229 30.1676 24.134 29.3601 24.134 28.3732V13.3006L16.834 6.03351H6.8303Z" fill="#FFED00"/>
<path d="M22.1352 20.2229H8.36648C7.73585 20.2229 7.31543 19.6958 7.31543 19.1687C7.31543 18.6416 7.84096 18.1145 8.36648 18.1145H22.1352C22.7659 18.1145 23.1863 18.6416 23.1863 19.1687C23.1863 19.6958 22.7659 20.2229 22.1352 20.2229Z" fill="#00005B"/>
<path d="M22.1351 20.5392H8.36637C7.63063 20.5392 7 19.9067 7 19.1687C7 18.4307 7.63063 17.7982 8.36637 17.7982H22.1351C22.8709 17.7982 23.5015 18.4307 23.5015 19.1687C23.5015 19.9067 22.976 20.5392 22.1351 20.5392ZM8.36637 18.3253C7.94595 18.3253 7.52553 18.6416 7.52553 19.1687C7.52553 19.5904 7.84084 20.0121 8.36637 20.0121H22.1351C22.5556 20.0121 22.976 19.6958 22.976 19.1687C22.976 18.747 22.6607 18.3253 22.1351 18.3253H8.36637Z" fill="#00005B"/>
<path d="M16.3545 26.1265H8.36648C7.73585 26.1265 7.31543 25.5994 7.31543 25.0723C7.31543 24.5452 7.84096 24.0181 8.36648 24.0181H16.3545C16.9851 24.0181 17.4055 24.5452 17.4055 25.0723C17.4055 25.5994 16.9851 26.1265 16.3545 26.1265Z" fill="#00005B"/>
<path d="M16.3544 26.4428H8.36637C7.63063 26.4428 7 25.8103 7 25.0723C7 24.3344 7.63063 23.7018 8.36637 23.7018H16.3544C17.0901 23.7018 17.7207 24.3344 17.7207 25.0723C17.7207 25.8103 17.0901 26.4428 16.3544 26.4428ZM8.36637 24.229C7.94595 24.229 7.52553 24.5452 7.52553 25.0723C7.52553 25.494 7.84084 25.9157 8.36637 25.9157H16.3544C16.7748 25.9157 17.1952 25.5994 17.1952 25.0723C17.1952 24.6506 16.8799 24.229 16.3544 24.229H8.36637Z" fill="#00005B"/>
<path d="M14.883 14.4247H8.36648C7.73585 14.4247 7.31543 13.8976 7.31543 13.3705C7.31543 12.8434 7.84096 12.3163 8.36648 12.3163H14.883C15.5136 12.3163 15.934 12.8434 15.934 13.3705C15.934 13.8976 15.5136 14.4247 14.883 14.4247Z" fill="#00005B"/>
<path d="M14.8829 14.741H8.36637C7.63063 14.741 7 14.1084 7 13.3705C7 12.6325 7.63063 12 8.36637 12H14.8829C15.6186 12 16.2492 12.6325 16.2492 13.3705C16.2492 14.1084 15.6186 14.741 14.8829 14.741ZM8.36637 12.5271C7.94595 12.5271 7.52553 12.8434 7.52553 13.3705C7.52553 13.7922 7.84084 14.2139 8.36637 14.2139H14.8829C15.3033 14.2139 15.7237 13.8976 15.7237 13.3705C15.7237 12.9488 15.4084 12.5271 14.8829 12.5271H8.36637Z" fill="#00005B"/>
<path d="M19 10.5V3.5L26 10.5H19Z" fill="#F2609E"/>
<path d="M24.7374 36H4.42458C2.01117 36 0 33.9888 0 31.5754V4.42458C0 2.01117 2.01117 0 4.42458 0H18C18.3017 0 18.5028 0.100562 18.7039 0.301679L28.8603 10.4581C29.0615 10.6592 29.162 10.8603 29.162 11.162V31.4749C29.162 34.0894 27.2514 36 24.7374 36ZM4.42458 2.11173C3.11732 2.11173 2.01117 3.21788 2.01117 4.52514V31.676C2.01117 32.9832 3.11732 34.0894 4.42458 34.0894H24.7374C26.0447 34.0894 27.1508 32.9832 27.1508 31.676V11.6648L17.5978 2.11173H4.42458Z" fill="#00005B"/>
<path d="M28.1564 12.2682H18C17.3966 12.2682 16.9944 11.8659 16.9944 11.2626V1.10614C16.9944 0.50279 17.3966 0.100555 18 0.100555C18.6033 0.100555 19.0056 0.50279 19.0056 1.10614V10.257H28.1564C28.7597 10.257 29.162 10.6592 29.162 11.2626C29.162 11.8659 28.7597 12.2682 28.1564 12.2682Z" fill="#00005B"/>
</svg>
