<svg width="46" height="46" viewBox="0 0 46 46" fill="none" xmlns="http://www.w3.org/2000/svg">
<circle cx="23" cy="23" r="12" fill="#27AE60"/>
<path d="M32.8388 9.66041C33.008 9.78174 33.1772 9.90306 33.3371 10.0329" stroke="#00005B" stroke-width="2" stroke-linecap="round" stroke-linejoin="round"/>
<path d="M37.2786 14.0018C38.1348 15.3565 38.7914 16.8276 39.228 18.3696C41.2718 25.5325 38.3769 33.1881 32.1049 37.207C25.8328 41.2259 17.6676 40.6571 12.0137 35.8075C6.35979 30.9579 4.55487 22.9749 7.57257 16.1646C10.5903 9.3543 17.7166 5.3281 25.1075 6.25778" stroke="#00005B" stroke-width="2" stroke-linecap="round" stroke-linejoin="round"/>
<path d="M21.975 25.075L27.675 19.375C28.175 18.875 28.975 18.875 29.575 19.375C30.175 19.875 30.075 20.675 29.575 21.275L22.975 27.875C22.475 28.375 21.675 28.375 21.075 27.875L17.375 24.175C16.875 23.675 16.875 22.875 17.375 22.275C17.875 21.775 18.675 21.775 19.275 22.275L21.975 25.075Z" fill="white"/>
</svg>
