<svg width="42" height="42" viewBox="0 0 42 42" fill="none" xmlns="http://www.w3.org/2000/svg">
<path fill-rule="evenodd" clip-rule="evenodd" d="M22.9453 30.8907C30.6471 30.8907 36.8907 24.6471 36.8907 16.9453C36.8907 9.24354 30.6471 3 22.9453 3C15.2435 3 9 9.24354 9 16.9453C9 24.6471 15.2435 30.8907 22.9453 30.8907Z" fill="#FEED00"/>
<path fill-rule="evenodd" clip-rule="evenodd" d="M19.2751 31.6056C21.0898 31.6056 22.5609 30.1345 22.5609 28.3198C22.5609 26.5051 21.0898 25.034 19.2751 25.034C17.4604 25.034 15.9893 26.5051 15.9893 28.3198C15.9893 30.1345 17.4604 31.6056 19.2751 31.6056Z" fill="#F2609E" stroke="#00005B" stroke-width="2" stroke-linecap="round" stroke-linejoin="round"/>
<path fill-rule="evenodd" clip-rule="evenodd" d="M26.9668 15.774C29.6476 15.774 31.8208 13.6008 31.8208 10.92C31.8208 8.2392 29.6476 6.06598 26.9668 6.06598C24.286 6.06598 22.1128 8.2392 22.1128 10.92C22.1128 13.6008 24.286 15.774 26.9668 15.774Z" stroke="#00005B" stroke-width="2" stroke-linecap="round" stroke-linejoin="round"/>
<path fill-rule="evenodd" clip-rule="evenodd" d="M11.5086 20.2546C13.8182 20.2546 15.6905 18.3823 15.6905 16.0727C15.6905 13.7631 13.8182 11.8908 11.5086 11.8908C9.19897 11.8908 7.32666 13.7631 7.32666 16.0727C7.32666 18.3823 9.19897 20.2546 11.5086 20.2546Z" stroke="#00005B" stroke-width="2" stroke-linecap="round" stroke-linejoin="round"/>
<path d="M6.13184 37.2811C6.13184 37.2811 6.13184 28.3198 6.13184 26.0795C6.13184 23.8392 7.62538 21.5989 11.3592 21.5989C15.0931 21.5989 16.5867 24.586 16.5867 26.0795" stroke="#00005B" stroke-width="2" stroke-linecap="round" stroke-linejoin="round"/>
<path d="M14.9438 39.1862C14.9438 39.1862 14.9438 38.0279 14.9438 35.7875C14.9438 33.5472 16.224 31.755 19.4245 31.755C22.6249 31.755 23.9051 33.5472 23.9051 35.7875C23.9051 38.0279 23.9051 39.1862 23.9051 39.1862" stroke="#00005B" stroke-width="2" stroke-linecap="round" stroke-linejoin="round"/>
<path d="M20.7686 25.1833C20.7686 25.1833 20.7686 24.1379 20.7686 21.8975C20.7686 19.6572 22.5608 16.9688 27.0414 16.9688C31.5221 16.9688 33.3143 19.6572 33.3143 21.8975C33.3143 22.8837 33.3143 30.0108 33.3143 30.2421C33.3143 31.7391 33.3143 37.2811 33.3143 37.2811" stroke="#00005B" stroke-width="2" stroke-linecap="round" stroke-linejoin="round"/>
</svg>
