<?xml version="1.0" encoding="utf-8"?>
<!-- Generator: Adobe Illustrator 18.1.1, SVG Export Plug-In . SVG Version: 6.00 Build 0)  -->
<svg version="1.1" id="Capa_1" xmlns="http://www.w3.org/2000/svg" xmlns:xlink="http://www.w3.org/1999/xlink" x="0px" y="0px"
	 viewBox="0 0 40 40" enable-background="new 0 0 40 40" xml:space="preserve">
<g>
	<path fill="#FFFFFF" d="M22,32.2c-0.6,0.5-0.6,1.4-0.1,2c0.5,0.6,1.4,0.6,2,0.1L37.8,21c0.6-0.6,0.6-1.5,0-2.1L23.9,5.8
		c-0.6-0.5-1.5-0.5-2,0.1c-0.5,0.6-0.5,1.5,0.1,2L34.8,20L22,32.2z"/>
	<path fill="#FFFFFF" d="M34.6,18.7H3.1c-0.8,0-1.4,0.6-1.4,1.4c0,0.8,0.6,1.4,1.4,1.4h31.5c0.8,0,1.4-0.6,1.4-1.4
		C36,19.3,35.4,18.7,34.6,18.7z"/>
</g>
</svg>
