<?xml version="1.0" encoding="utf-8"?>
<!-- Generator: Adobe Illustrator 18.1.1, SVG Export Plug-In . SVG Version: 6.00 Build 0)  -->
<svg version="1.1" id="Capa_1" xmlns="http://www.w3.org/2000/svg" xmlns:xlink="http://www.w3.org/1999/xlink" x="0px" y="0px"
	 viewBox="0 0 40 40" enable-background="new 0 0 40 40" xml:space="preserve">
<g>
	<g>
		<path fill="#00005B" d="M23.3,34.9c-0.6,0-1.1-0.2-1.6-0.7c-0.8-0.9-0.7-2.2,0.1-3l11.5-10.6l-11.6-12c-0.8-0.8-0.8-2.2,0.1-3
			c0.8-0.8,2.2-0.8,3,0.1l13.1,13.6c0.4,0.4,0.6,1,0.6,1.5s-0.3,1.1-0.7,1.5L24.7,34.4C24.3,34.8,23.8,34.9,23.3,34.9z"/>
	</g>
	<g>
		<path fill="#00005B" d="M35.7,22.8h-32c-1.2,0-2.1-1-2.1-2.1c0-1.2,1-2.1,2.1-2.1h32c1.2,0,2.1,1,2.1,2.1
			C37.8,21.9,36.9,22.8,35.7,22.8z"/>
	</g>
</g>
</svg>
