<?xml version="1.0" encoding="utf-8"?>
<!-- Generator: Adobe Illustrator 18.1.1, SVG Export Plug-In . SVG Version: 6.00 Build 0)  -->
<svg version="1.1" id="Capa_1" xmlns="http://www.w3.org/2000/svg" xmlns:xlink="http://www.w3.org/1999/xlink" x="0px" y="0px"
	 viewBox="0 0 40 40" enable-background="new 0 0 40 40" xml:space="preserve">
<g>
	<path fill="#333333" d="M18,7.8c0.6-0.5,0.6-1.4,0.1-2c-0.5-0.6-1.4-0.6-2-0.1L2.2,19c-0.6,0.6-0.6,1.5,0,2.1l13.9,13.2
		c0.6,0.5,1.5,0.5,2-0.1c0.5-0.6,0.5-1.5-0.1-2L5.2,20L18,7.8z"/>
	<path fill="#333333" d="M5.4,21.3h31.5c0.8,0,1.4-0.6,1.4-1.4c0-0.8-0.6-1.4-1.4-1.4H5.4C4.6,18.6,4,19.2,4,20
		C4,20.7,4.6,21.3,5.4,21.3z"/>
</g>
</svg>
