<svg width="36" height="36" viewBox="0 0 36 36" fill="none" xmlns="http://www.w3.org/2000/svg">
<path d="M22.5 30.1999H28V7.3999H8.5V30.2999H14V26.8999C14 23.8999 15.9 21.4999 18.2 21.4999C20.5 21.4999 22.4 23.8999 22.4 26.8999V30.1999H22.5Z" fill="#FFEC00"/>
<path d="M15.1 30.2999H17.3V23.8999C16 24.2999 15.1 25.5999 15.1 27.0999V30.2999Z" fill="#F2609E"/>
<path d="M21.4 30.2999H19.2V23.8999C20.5 24.2999 21.4 25.5999 21.4 27.0999V30.2999Z" fill="#F2609E"/>
<path d="M34.4 30.6H33.1V5.00005C33.1 4.60005 32.8 4.30005 32.4 4.30005H27.5V2.00005C27.5 1.60005 27.2 1.30005 26.8 1.30005H9.49999C9.09999 1.30005 8.79999 1.60005 8.79999 2.00005V4.40005H3.99999C3.59999 4.40005 3.29999 4.70005 3.29999 5.00005V30.6H1.99999C1.59999 30.6 1.29999 30.9 1.29999 31.3V34.5C1.29999 34.9001 1.59999 35.2001 1.99999 35.2001H15.2C15.6 35.2001 15.9 34.9001 15.9 34.5C15.9 34.1 15.6 33.8 15.2 33.8H2.69999V32H33.8V33.8H21.2C20.8 33.8 20.5 34.1 20.5 34.5C20.5 34.9001 20.8 35.2001 21.2 35.2001H34.4C34.8 35.2001 35.1 34.9001 35.1 34.5V31.3C35.1 30.9 34.8 30.6 34.4 30.6ZM10.2 2.70005H26.3V4.40005H10.2V2.70005ZM17.6 30.6H14.2V26.6C14.2 24.6 15.7 22.9 17.6 22.6V30.6ZM18.9 30.6V22.6C20.8 22.9 22.3 24.6 22.3 26.6V30.6H18.9ZM23.6 30.6V26.6C23.6 23.6 21.2 21.2001 18.2 21.2001C15.2 21.2001 12.8 23.6 12.8 26.6V30.6H4.59999V5.70005H31.8V30.6H23.6Z" fill="#00005B"/>
<path d="M34.4 35.5H21.2C20.6 35.5 20.2 35 20.2 34.5C20.2 34 20.7 33.5 21.2 33.5H33.4V32.4H3V33.5H15.2C15.8 33.5 16.2 34 16.2 34.5C16.2 35 15.7 35.5 15.2 35.5H2C1.4 35.5 1 35 1 34.5V31.3C1 30.7 1.5 30.3 2 30.3H3V5C3 4.4 3.5 4 4 4H8.5V2C8.5 1.4 9 1 9.5 1H26.9C27.5 1 27.9 1.5 27.9 2V4H32.4C33 4 33.4 4.5 33.4 5V30.2H34.4C35 30.2 35.4 30.7 35.4 31.2V34.4C35.5 35 35 35.5 34.4 35.5ZM21.2 34.1C21 34.1 20.9 34.2 20.9 34.4C20.9 34.6 21 34.7 21.2 34.7H34.4C34.6 34.7 34.7 34.6 34.7 34.4V31.2C34.7 31 34.6 30.9 34.4 30.9H32.7V5C32.7 4.8 32.6 4.7 32.4 4.7H27.2V2C27.2 1.8 27.1 1.7 26.9 1.7H9.5C9.3 1.7 9.2 1.8 9.2 2V4.7H4C3.8 4.7 3.7 4.9 3.7 5V31H2C1.8 31 1.7 31.1 1.7 31.3V34.5C1.7 34.7 1.8 34.8 2 34.8H15.2C15.4 34.8 15.5 34.7 15.5 34.5C15.5 34.3 15.4 34.2 15.2 34.2H2.3V31.7H34.1V34.2H21.2V34.1ZM32.2 31H23.3V26.7C23.3 23.9 21 21.6 18.2 21.6C15.4 21.6 13.1 23.9 13.1 26.7V31H4.3V5.4H32.2V31ZM24 30.3H31.5V6.1H5V30.3H12.5V26.7C12.5 23.5 15.1 20.9 18.3 20.9C21.5 20.9 24.1 23.5 24.1 26.7V30.3H24ZM22.7 31H18.6V22.2L19 22.3C21.2 22.7 22.7 24.5 22.7 26.7V31ZM19.2 30.3H22V26.7C22 25 20.9 23.5 19.3 23.1V30.3H19.2ZM17.9 31H13.8V26.7C13.8 24.5 15.4 22.7 17.5 22.3L17.9 22.2V31ZM14.5 30.3H17.2V23.1C15.6 23.5 14.5 25 14.5 26.7V30.3ZM26.6 4.7H9.8V2.3H26.6V4.7ZM10.5 4H25.9V3H10.5V4Z" fill="#00005B"/>
<path d="M16 8.8999H14.1C13.9 8.8999 13.7 9.0999 13.7 9.2999V11.1999C13.7 11.3999 13.9 11.5999 14.1 11.5999H16C16.2 11.5999 16.4 11.3999 16.4 11.1999V9.2999C16.4 9.0999 16.2 8.8999 16 8.8999ZM15.6 10.8999H14.5V9.7999H15.6V10.8999Z" fill="#00005B"/>
<path d="M16 11.9H14.1C13.8 11.9 13.5 11.6 13.5 11.3V9.29995C13.5 8.99995 13.8 8.69995 14.1 8.69995H16C16.3 8.69995 16.6 8.99995 16.6 9.29995V11.2C16.6 11.6 16.4 11.9 16 11.9ZM14.1 9.19995C14 9.19995 13.9 9.29995 13.9 9.39995V11.3C13.9 11.4 14 11.5 14.1 11.5H16C16.1 11.5 16.2 11.4 16.2 11.3V9.29995C16.2 9.19995 16.1 9.09995 16 9.09995H14.1V9.19995ZM15.8 11.1H14.2V9.49995H15.8V11.1Z" fill="#00005B"/>
<path d="M16 16.2998H14.1C13.9 16.2998 13.7 16.4998 13.7 16.6998V18.5998C13.7 18.7998 13.9 18.9998 14.1 18.9998H16C16.2 18.9998 16.4 18.7998 16.4 18.5998V16.6998C16.4 16.4998 16.2 16.2998 16 16.2998ZM15.6 18.1998H14.5V17.0998H15.6V18.1998Z" fill="#00005B"/>
<path d="M16 19.1999H14.1C13.8 19.1999 13.5 18.8999 13.5 18.5999V16.6999C13.5 16.3999 13.8 16.0999 14.1 16.0999H16C16.3 16.0999 16.6 16.3999 16.6 16.6999V18.5999C16.6 18.9999 16.4 19.1999 16 19.1999ZM14.1 16.4999C14 16.4999 13.9 16.5999 13.9 16.6999V18.5999C13.9 18.6999 14 18.7999 14.1 18.7999H16C16.1 18.7999 16.2 18.6999 16.2 18.5999V16.6999C16.2 16.5999 16.1 16.4999 16 16.4999H14.1ZM15.8 18.3999H14.2V16.7999H15.8V18.3999Z" fill="#00005B"/>
<path d="M22.4 8.8999H20.5C20.3 8.8999 20.1 9.0999 20.1 9.2999V11.1999C20.1 11.3999 20.3 11.5999 20.5 11.5999H22.4C22.6 11.5999 22.8 11.3999 22.8 11.1999V9.2999C22.8 9.0999 22.6 8.8999 22.4 8.8999ZM22 10.8999H20.9V9.7999H22V10.8999Z" fill="#00005B"/>
<path d="M22.4 11.9H20.5C20.2 11.9 19.9 11.6 19.9 11.3V9.29995C19.9 8.99995 20.2 8.69995 20.5 8.69995H22.4C22.7 8.69995 23 8.99995 23 9.29995V11.2C23 11.6 22.7 11.9 22.4 11.9ZM20.4 9.19995C20.3 9.19995 20.2 9.29995 20.2 9.39995V11.3C20.2 11.4 20.3 11.5 20.4 11.5H22.3C22.4 11.5 22.5 11.4 22.5 11.3V9.29995C22.5 9.19995 22.4 9.09995 22.3 9.09995H20.4V9.19995ZM22.2 11.1H20.6V9.49995H22.2V11.1Z" fill="#00005B"/>
<path d="M22.4 16.2998H20.5C20.3 16.2998 20.1 16.4998 20.1 16.6998V18.5998C20.1 18.7998 20.3 18.9998 20.5 18.9998H22.4C22.6 18.9998 22.8 18.7998 22.8 18.5998V16.6998C22.8 16.4998 22.6 16.2998 22.4 16.2998ZM22 18.1998H20.9V17.0998H22V18.1998Z" fill="#00005B"/>
<path d="M22.4 19.1999H20.5C20.2 19.1999 19.9 18.8999 19.9 18.5999V16.6999C19.9 16.3999 20.2 16.0999 20.5 16.0999H22.4C22.7 16.0999 23 16.3999 23 16.6999V18.5999C23 18.9999 22.7 19.1999 22.4 19.1999ZM20.4 16.4999C20.3 16.4999 20.2 16.5999 20.2 16.6999V18.5999C20.2 18.6999 20.3 18.7999 20.4 18.7999H22.3C22.4 18.7999 22.5 18.6999 22.5 18.5999V16.6999C22.5 16.5999 22.4 16.4999 22.3 16.4999H20.4ZM22.2 18.3999H20.6V16.7999H22.2V18.3999Z" fill="#00005B"/>
<path d="M9.70002 8.8999H7.80002C7.60002 8.8999 7.40002 9.0999 7.40002 9.2999V11.1999C7.40002 11.3999 7.60002 11.5999 7.80002 11.5999H9.70002C9.90002 11.5999 10.1 11.3999 10.1 11.1999V9.2999C10.1 9.0999 9.90002 8.8999 9.70002 8.8999ZM9.30002 10.8999H8.20002V9.7999H9.30002V10.8999Z" fill="#00005B"/>
<path d="M9.70001 11.9H7.80001C7.50001 11.9 7.20001 11.6 7.20001 11.3V9.29995C7.20001 8.99995 7.50001 8.69995 7.80001 8.69995H9.70001C10 8.69995 10.3 8.99995 10.3 9.29995V11.2C10.3 11.6 10 11.9 9.70001 11.9ZM7.80001 9.19995C7.70001 9.19995 7.60001 9.29995 7.60001 9.39995V11.3C7.60001 11.4 7.70001 11.5 7.80001 11.5H9.70001C9.80001 11.5 9.90001 11.4 9.90001 11.3V9.29995C9.90001 9.19995 9.80001 9.09995 9.70001 9.09995H7.80001V9.19995ZM9.50001 11.1H8.00001V9.49995H9.60001V11.1H9.50001Z" fill="#00005B"/>
<path d="M9.70002 16.2998H7.80002C7.60002 16.2998 7.40002 16.4998 7.40002 16.6998V18.5998C7.40002 18.7998 7.60002 18.9998 7.80002 18.9998H9.70002C9.90002 18.9998 10.1 18.7998 10.1 18.5998V16.6998C10.1 16.4998 9.90002 16.2998 9.70002 16.2998ZM9.30002 18.1998H8.20002V17.0998H9.30002V18.1998Z" fill="#00005B"/>
<path d="M9.70001 19.1999H7.80001C7.50001 19.1999 7.20001 18.8999 7.20001 18.5999V16.6999C7.20001 16.3999 7.50001 16.0999 7.80001 16.0999H9.70001C10 16.0999 10.3 16.3999 10.3 16.6999V18.5999C10.3 18.9999 10 19.1999 9.70001 19.1999ZM7.80001 16.4999C7.70001 16.4999 7.60001 16.5999 7.60001 16.6999V18.5999C7.60001 18.6999 7.70001 18.7999 7.80001 18.7999H9.70001C9.80001 18.7999 9.90001 18.6999 9.90001 18.5999V16.6999C9.90001 16.5999 9.80001 16.4999 9.70001 16.4999H7.80001ZM9.50001 18.3999H8.00001V16.7999H9.60001V18.3999H9.50001Z" fill="#00005B"/>
<path d="M9.70002 23.5999H7.80002C7.60002 23.5999 7.40002 23.7999 7.40002 23.9999V25.9999C7.40002 26.1999 7.60002 26.3999 7.80002 26.3999H9.70002C9.90002 26.3999 10.1 26.1999 10.1 25.9999V23.9999C10.1 23.7999 9.90002 23.5999 9.70002 23.5999ZM9.30002 25.5999H8.20002V24.4999H9.30002V25.5999Z" fill="#00005B"/>
<path d="M9.70001 26.5999H7.80001C7.50001 26.5999 7.20001 26.2999 7.20001 25.9999V23.9999C7.20001 23.6999 7.50001 23.3999 7.80001 23.3999H9.70001C10 23.3999 10.3 23.6999 10.3 23.9999V25.9999C10.3 26.2999 10 26.5999 9.70001 26.5999ZM7.80001 23.8999C7.70001 23.8999 7.60001 23.9999 7.60001 24.0999V25.9999C7.60001 26.0999 7.70001 26.1999 7.80001 26.1999H9.70001C9.80001 26.1999 9.90001 26.0999 9.90001 25.9999V23.9999C9.90001 23.8999 9.80001 23.7999 9.70001 23.7999H7.80001V23.8999ZM9.50001 25.7999H8.00001V24.1999H9.60001V25.7999H9.50001Z" fill="#00005B"/>
<path d="M28.7 23.5999H26.8C26.6 23.5999 26.4 23.7999 26.4 23.9999V25.9999C26.4 26.1999 26.6 26.3999 26.8 26.3999H28.7C28.9 26.3999 29.1 26.1999 29.1 25.9999V23.9999C29.1 23.7999 28.9 23.5999 28.7 23.5999ZM28.3 25.5999H27.2V24.4999H28.3V25.5999Z" fill="#00005B"/>
<path d="M28.7 26.5999H26.8C26.5 26.5999 26.2 26.2999 26.2 25.9999V23.9999C26.2 23.6999 26.5 23.3999 26.8 23.3999H28.7C29 23.3999 29.3 23.6999 29.3 23.9999V25.9999C29.3 26.2999 29 26.5999 28.7 26.5999ZM26.8 23.8999C26.7 23.8999 26.6 23.9999 26.6 24.0999V25.9999C26.6 26.0999 26.7 26.1999 26.8 26.1999H28.7C28.8 26.1999 28.9 26.0999 28.9 25.9999V23.9999C28.9 23.8999 28.8 23.7999 28.7 23.7999H26.8V23.8999ZM28.5 25.7999H26.9V24.1999H28.5V25.7999Z" fill="#00005B"/>
<path d="M28.7 16.2998H26.8C26.6 16.2998 26.4 16.4998 26.4 16.6998V18.5998C26.4 18.7998 26.6 18.9998 26.8 18.9998H28.7C28.9 18.9998 29.1 18.7998 29.1 18.5998V16.6998C29.1 16.4998 28.9 16.2998 28.7 16.2998ZM28.3 18.1998H27.2V17.0998H28.3V18.1998Z" fill="#00005B"/>
<path d="M28.7 19.1999H26.8C26.5 19.1999 26.2 18.8999 26.2 18.5999V16.6999C26.2 16.3999 26.5 16.0999 26.8 16.0999H28.7C29 16.0999 29.3 16.3999 29.3 16.6999V18.5999C29.3 18.9999 29 19.1999 28.7 19.1999ZM26.8 16.4999C26.7 16.4999 26.6 16.5999 26.6 16.6999V18.5999C26.6 18.6999 26.7 18.7999 26.8 18.7999H28.7C28.8 18.7999 28.9 18.6999 28.9 18.5999V16.6999C28.9 16.5999 28.8 16.4999 28.7 16.4999H26.8ZM28.5 18.3999H26.9V16.7999H28.5V18.3999Z" fill="#00005B"/>
<path d="M28.7 8.8999H26.8C26.6 8.8999 26.4 9.0999 26.4 9.2999V11.1999C26.4 11.3999 26.6 11.5999 26.8 11.5999H28.7C28.9 11.5999 29.1 11.3999 29.1 11.1999V9.2999C29.1 9.0999 28.9 8.8999 28.7 8.8999ZM28.3 10.8999H27.2V9.7999H28.3V10.8999Z" fill="#00005B"/>
<path d="M28.7 11.9H26.8C26.5 11.9 26.2 11.6 26.2 11.3V9.29995C26.2 8.99995 26.5 8.69995 26.8 8.69995H28.7C29 8.69995 29.3 8.99995 29.3 9.29995V11.2C29.3 11.6 29 11.9 28.7 11.9ZM26.8 9.19995C26.7 9.19995 26.6 9.29995 26.6 9.39995V11.3C26.6 11.4 26.7 11.5 26.8 11.5H28.7C28.8 11.5 28.9 11.4 28.9 11.3V9.29995C28.9 9.19995 28.8 9.09995 28.7 9.09995H26.8V9.19995ZM28.5 11.1H26.9V9.49995H28.5V11.1Z" fill="#00005B"/>
<path d="M18.2 33.8C18 33.8 17.9 33.9 17.7 34C17.6 34.1 17.5 34.3 17.5 34.5C17.5 34.7 17.6 34.8 17.7 35C17.8 35.1 18 35.2001 18.2 35.2001C18.4 35.2001 18.5 35.1 18.7 35C18.8 34.9 18.9 34.7 18.9 34.5C18.9 34.3 18.8 34.2 18.7 34C18.6 33.9 18.4 33.8 18.2 33.8Z" fill="#00005B"/>
<path d="M18.2 35.5C17.9 35.5 17.7 35.4 17.5 35.2C17.3 35 17.2 34.8 17.2 34.5C17.2 34.2 17.3 34 17.5 33.8C17.9 33.4 18.6 33.4 18.9 33.8C19.1 34 19.2 34.2 19.2 34.5C19.2 34.8 19.1 35 18.9 35.2C18.7 35.4 18.5 35.5 18.2 35.5ZM18.2 34.1C18.1 34.1 18 34.1 18 34.2C18 34.3 17.9 34.3 17.9 34.4C17.9 34.5 17.9 34.6 18 34.6C18.1 34.7 18.3 34.7 18.4 34.6C18.5 34.5 18.5 34.5 18.5 34.4C18.5 34.3 18.5 34.2 18.4 34.2C18.4 34.2 18.3 34.1 18.2 34.1Z" fill="#00005B"/>
</svg>
