<?xml version="1.0" encoding="utf-8"?>
<!-- Generator: Adobe Illustrator 18.1.1, SVG Export Plug-In . SVG Version: 6.00 Build 0)  -->
<svg version="1.1" id="Capa_1" xmlns="http://www.w3.org/2000/svg" xmlns:xlink="http://www.w3.org/1999/xlink" x="0px" y="0px"
	 viewBox="0 0 40 40" enable-background="new 0 0 40 40" xml:space="preserve">
<path fill="none" stroke="#FFFFFF" stroke-width="2" stroke-linecap="round" stroke-linejoin="round" d="M26,16.1l-8.2,7.7L14,20.4"
	/>
<path opacity="0.5" fill="#001F5B" enable-background="new    " d="M33.3,33.3H6.7v-2.2c0.4-1.6,7.3-4.4,13.3-4.4
	c6,0,12.9,2.9,13.3,4.4V33.3z M20,22.2c-6,0-17.8,2.9-17.8,8.9v4.4c0,0.6,0.3,1.1,0.7,1.5s1,0.7,1.5,0.7h31.1c0.6,0,1.1-0.3,1.5-0.7
	s0.7-1,0.7-1.5v-4.4C37.8,25.1,26,22.2,20,22.2z M20,6.7c0.9,0,1.7,0.3,2.5,0.7c0.7,0.5,1.3,1.2,1.6,2c0.3,0.8,0.4,1.7,0.3,2.6
	c-0.2,0.9-0.6,1.7-1.2,2.3c-0.6,0.6-1.4,1-2.3,1.2c-0.9,0.2-1.8,0.1-2.6-0.3c-0.8-0.3-1.5-0.9-2-1.6c-0.5-0.7-0.7-1.6-0.7-2.5
	c0-1.2,0.5-2.3,1.3-3.1C17.7,7.2,18.8,6.7,20,6.7z M20,20c1.8,0,3.5-0.5,4.9-1.5c1.5-1,2.6-2.4,3.3-4c0.7-1.6,0.8-3.4,0.5-5.1
	c-0.3-1.7-1.2-3.3-2.4-4.5c-1.2-1.2-2.8-2.1-4.5-2.4c-1.7-0.3-3.5-0.2-5.1,0.5c-1.6,0.7-3,1.8-4,3.3c-1,1.5-1.5,3.2-1.5,4.9
	c0,2.4,0.9,4.6,2.6,6.3S17.6,20,20,20z"/>
</svg>
