<?xml version="1.0" encoding="utf-8"?>
<!-- Generator: Adobe Illustrator 18.1.1, SVG Export Plug-In . SVG Version: 6.00 Build 0)  -->
<svg version="1.1" id="Capa_1" xmlns="http://www.w3.org/2000/svg" xmlns:xlink="http://www.w3.org/1999/xlink" x="0px" y="0px"
	 viewBox="0 0 40 40" enable-background="new 0 0 40 40" xml:space="preserve">
<g>
	<g>
		<circle fill="#FFFFFF" cx="20" cy="20" r="17.4"/>
		<circle fill="none" stroke="#009DD6" stroke-width="2" cx="20" cy="20" r="16.8"/>
	</g>
	<path fill="#009DD6" d="M15,27.5v-1.8c0.8-0.8,1.6-1.5,2.3-2.2c0.7-0.7,1.3-1.3,1.8-1.9c0.5-0.6,0.9-1.2,1.2-1.7
		c0.3-0.5,0.4-1,0.4-1.5c0-0.7-0.2-1.1-0.5-1.5c-0.3-0.3-0.8-0.5-1.4-0.5c-0.5,0-0.9,0.1-1.3,0.4c-0.4,0.3-0.7,0.6-1.1,0.9l-1.7-1.7
		c0.7-0.7,1.3-1.2,2-1.6c0.7-0.4,1.5-0.5,2.4-0.5c0.7,0,1.2,0.1,1.8,0.3c0.5,0.2,1,0.5,1.4,0.9c0.4,0.4,0.7,0.8,0.9,1.3
		c0.2,0.5,0.3,1.1,0.3,1.7c0,0.6-0.1,1.1-0.4,1.7c-0.2,0.6-0.6,1.1-1,1.7c-0.4,0.6-0.8,1.1-1.4,1.7c-0.5,0.6-1,1.1-1.6,1.7
		c0.3,0,0.7-0.1,1.1-0.1c0.4,0,0.8-0.1,1.1-0.1h2.7v2.6H15z"/>
</g>
</svg>
