<?xml version="1.0" encoding="utf-8"?>
<!-- Generator: Adobe Illustrator 18.1.1, SVG Export Plug-In . SVG Version: 6.00 Build 0)  -->
<svg version="1.1" id="Capa_1" xmlns="http://www.w3.org/2000/svg" xmlns:xlink="http://www.w3.org/1999/xlink" x="0px" y="0px"
	 viewBox="0 0 40 40" enable-background="new 0 0 40 40" xml:space="preserve">
<g>
	<path fill="#FFED00" d="M24.9,16.6V8.3c0-0.8-0.6-1.4-1.4-1.4H7.7c-0.8,0-1.4,0.6-1.4,1.4v21.2c0,0.8,0.6,1.4,1.4,1.4h8.8
		c0,0,2.5,0.4,3.1,0c1.3-1-0.1-5.7,0.6-7.1c0.6-1.2,4.1-1.8,4.6-3.2C25.3,19.7,24.9,16.6,24.9,16.6z"/>
	<path fill="#00005B" d="M15.8,33.4H6.2c-2.3,0-4.1-1.8-4.1-4.1V6.2c0-2.3,1.8-4.1,4.1-4.1h17.1c2.3,0,4.1,1.8,4.1,4.1v9
		c0,0.6-0.5,1.1-1.1,1.1c-0.5,0-1.1-0.5-1.1-1.1v-9c0-1.1-0.9-1.8-1.8-1.8H6.2c-1.1,0-1.8,0.9-1.8,1.8v23c0,1.1,0.9,1.8,1.8,1.8h9.6
		c0.6,0,1.1,0.5,1.1,1.1C16.9,32.9,16.4,33.4,15.8,33.4z"/>
	<path fill="#00005B" d="M21.8,16.2H7.7c-0.6,0-1.1-0.5-1.1-1.1s0.5-1.1,1.1-1.1h14.1c0.6,0,1.1,0.5,1.1,1.1S22.4,16.2,21.8,16.2z"
		/>
	<path fill="#00005B" d="M21.8,16.6H7.7c-0.8,0-1.4-0.6-1.4-1.4c0-0.8,0.6-1.4,1.4-1.4h14.1c0.8,0,1.4,0.6,1.4,1.4
		C23.2,15.9,22.6,16.6,21.8,16.6z M7.7,14.3c-0.4,0-0.9,0.3-0.9,0.9c0,0.4,0.3,0.9,0.9,0.9h14.1c0.4,0,0.9-0.3,0.9-0.9
		c0-0.4-0.3-0.9-0.9-0.9H7.7z"/>
	<path fill="#00005B" d="M15.9,22.3H7.7c-0.6,0-1.1-0.5-1.1-1.1c0-0.5,0.5-1.1,1.1-1.1h8.2c0.6,0,1.1,0.5,1.1,1.1
		C16.9,21.7,16.5,22.3,15.9,22.3z"/>
	<path fill="#00005B" d="M15.9,22.6H7.7c-0.8,0-1.4-0.6-1.4-1.4c0-0.8,0.6-1.4,1.4-1.4h8.2c0.8,0,1.4,0.6,1.4,1.4
		C17.3,21.9,16.6,22.6,15.9,22.6z M7.7,20.3c-0.4,0-0.9,0.3-0.9,0.9c0,0.4,0.3,0.9,0.9,0.9h8.2c0.4,0,0.9-0.3,0.9-0.9
		c0-0.4-0.3-0.9-0.9-0.9H7.7z"/>
	<path fill="#00005B" d="M14.4,10.3H7.7c-0.6,0-1.1-0.5-1.1-1.1s0.5-1.1,1.1-1.1h6.7c0.6,0,1.1,0.5,1.1,1.1S15,10.3,14.4,10.3z"/>
	<path fill="#00005B" d="M14.4,10.6H7.7c-0.8,0-1.4-0.6-1.4-1.4s0.6-1.4,1.4-1.4h6.7c0.8,0,1.4,0.6,1.4,1.4S15.1,10.6,14.4,10.6z
		 M7.7,8.4c-0.4,0-0.9,0.3-0.9,0.9c0,0.4,0.3,0.9,0.9,0.9h6.7c0.4,0,0.9-0.3,0.9-0.9c0-0.4-0.3-0.9-0.9-0.9H7.7z"/>
	<path fill="#00005B" d="M28.1,37.8c-3.2,0-6.3-1.6-8.2-4.4c-2.4-3.5-2-8.3,0.8-11.5s7.4-4.3,11.3-2.6c0.6,0.3,1,1.1,0.6,1.6
		c-0.3,0.6-1.1,1-1.6,0.6c-2.9-1.3-6.3-0.5-8.4,1.9c-2,2.4-2.3,5.9-0.5,8.5s5.1,3.9,8.1,3c3-0.9,5.2-3.7,5.2-6.9v-0.8
		c0-0.6,0.5-1.3,1.3-1.3c0.8,0,1.3,0.5,1.3,1.3v0.8c0,4.3-2.9,8.1-6.9,9.2C29.9,37.7,29.1,37.8,28.1,37.8z"/>
	<path fill="#F2609E" d="M28.1,31.2c-0.3,0-0.6-0.1-0.9-0.3l-2.6-2.6c-0.5-0.5-0.5-1.3,0-1.8c0.5-0.5,1.3-0.5,1.8,0l1.6,1.6l7.5-7.5
		c0.5-0.5,1.3-0.5,1.8,0c0.5,0.5,0.5,1.3,0,1.8L29,30.8C28.8,31,28.4,31.2,28.1,31.2z"/>
</g>
</svg>
