<?xml version="1.0" encoding="utf-8"?>
<!-- Generator: Adobe Illustrator 18.1.1, SVG Export Plug-In . SVG Version: 6.00 Build 0)  -->
<svg version="1.1" id="Capa_1" xmlns="http://www.w3.org/2000/svg" xmlns:xlink="http://www.w3.org/1999/xlink" x="0px" y="0px"
	 viewBox="0 0 40 40" enable-background="new 0 0 40 40" xml:space="preserve">
<g>
	<path fill="#FFEC00" d="M20.1,32.7c7,0,12.7-5.7,12.7-12.7S27.1,7.3,20.1,7.3C13.1,7.3,7.4,13,7.4,20S13.1,32.7,20.1,32.7z"/>
	<path fill="#00005B" d="M20.1,38c-4.3,0-8.4-1.5-11.6-4.3c-0.7-0.6-1.5-1.4-2.1-2.1C3.5,28.4,2.1,24.3,2.1,20
		c0-4.8,1.9-9.3,5.2-12.7c3.3-3.4,8-5.3,12.8-5.3s9.3,1.9,12.7,5.2c3.4,3.3,5.2,7.9,5.2,12.7c0,4.3-1.5,8.3-4.3,11.6
		c-0.6,0.7-1.4,1.5-2.1,2.1C28.4,36.4,24.3,37.9,20.1,38z M20.1,4.2c-8.7,0-15.8,7-15.8,15.8c0,3.7,1.3,7.3,3.7,10.1
		c0.5,0.6,1.2,1.3,1.8,1.8c2.9,2.4,6.5,3.7,10.1,3.7s7.3-1.3,10.1-3.7c0.6-0.5,1.3-1.2,1.8-1.8c2.3-2.9,3.7-6.4,3.7-10.1
		C35.7,11.3,28.7,4.2,20.1,4.2z"/>
	<path fill="#00005B" d="M20.1,20c-3.7,0-6.7-3-6.7-6.7c0-3.7,3-6.7,6.7-6.7s6.7,3,6.7,6.7C26.8,17,23.8,20,20.1,20z M20.1,8.7
		c-2.4,0-4.5,2-4.5,4.5c0,2.4,2,4.5,4.5,4.5s4.5-2,4.5-4.5C24.5,10.7,22.5,8.7,20.1,8.7z"/>
	<path fill="#00005B" d="M30.9,34c-0.1,0-0.2,0-0.3,0c-0.6-0.1-1-0.7-0.9-1.4c0.2-0.9,0.3-1.6,0.3-2.4c0-5.5-4.5-10-10-10.1h-0.1
		h-0.1c-5.5,0.1-10,4.6-10,10.1c0,0.9,0.1,1.7,0.3,2.4c0.1,0.6-0.2,1.2-0.9,1.4c-0.6,0.1-1.2-0.2-1.4-0.9c-0.2-1-0.3-2-0.3-3
		c0-3.3,1.3-6.4,3.5-8.6c2.3-2.3,5.3-3.6,8.6-3.7h0.1h0.1c3.3,0,6.3,1.4,8.6,3.7s3.5,5.4,3.5,8.6c0,1.1-0.1,2-0.3,3
		C31.9,33.6,31.4,34,30.9,34z"/>
	<path fill="#F2609E" d="M20.1,17c1.7,0,3-1.3,3-3s-1.3-3-3-3s-3,1.3-3,3S18.4,17,20.1,17z"/>
</g>
</svg>
