<?xml version="1.0" encoding="utf-8"?>
<!-- Generator: Adobe Illustrator 18.1.1, SVG Export Plug-In . SVG Version: 6.00 Build 0)  -->
<svg version="1.1" id="Capa_1" xmlns="http://www.w3.org/2000/svg" xmlns:xlink="http://www.w3.org/1999/xlink" x="0px" y="0px"
	 viewBox="0 0 25 25" enable-background="new 0 0 25 25" xml:space="preserve">
<path fill="#1C9AC4" d="M12.5,21.7c-5,0-9-4-9-9s4-9,9-9c5,0,9,4,9,9S17.5,21.7,12.5,21.7z M12.5,5.7c-3.9,0-7,3.1-7,7s3.1,7,7,7
	c3.9,0,7-3.1,7-7S16.4,5.7,12.5,5.7z"/>
<path fill="#1C9AC4" d="M17.1,10.9l-5.6,5.6c-0.2,0.2-0.4,0.2-0.6,0.2c-0.2,0-0.4-0.1-0.6-0.2L8,14.1c-0.3-0.3-0.3-0.8,0-1.1
	c0.3-0.3,0.8-0.3,1.1,0l1.8,1.8l5-5c0.3-0.3,0.8-0.3,1.1,0C17.4,10,17.4,10.5,17.1,10.9z"/>
</svg>
