<?xml version="1.0" encoding="utf-8"?>
<!-- Generator: Adobe Illustrator 18.1.1, SVG Export Plug-In . SVG Version: 6.00 Build 0)  -->
<svg version="1.1" id="Capa_1" xmlns="http://www.w3.org/2000/svg" xmlns:xlink="http://www.w3.org/1999/xlink" x="0px" y="0px"
	 viewBox="0 0 40 40" enable-background="new 0 0 40 40" xml:space="preserve">
<g>
	<path fill="#00005B" d="M20,37.8c-9.8,0-17.8-8-17.8-17.8S10.2,2.2,20,2.2s17.8,8,17.8,17.8S29.8,37.8,20,37.8z M20,6.1
		C12.4,6.1,6.1,12.4,6.1,20c0,7.6,6.2,13.9,13.9,13.9c7.6,0,13.9-6.2,13.9-13.9C33.9,12.4,27.6,6.1,20,6.1z"/>
	<path fill="#00005B" d="M35.8,22H4.2c-1.1,0-2-0.9-2-2s0.9-2,2-2h31.7c1.1,0,2,0.9,2,2S36.9,22,35.8,22z"/>
	<path fill="#00005B" d="M20,37.8c-0.6,0-1.1-0.2-1.5-0.6c-4.3-4.7-6.7-10.8-6.9-17.1c0.1-6.4,2.6-12.5,6.9-17.2
		c0.7-0.8,2.2-0.8,2.9,0c4.3,4.7,6.7,10.8,6.9,17.1c-0.1,6.4-2.6,12.5-6.9,17.2C21.1,37.6,20.6,37.8,20,37.8z M20,7.3
		c-2.7,3.7-4.3,8.1-4.4,12.8c0.1,4.6,1.6,9,4.4,12.7c2.7-3.7,4.3-8.1,4.4-12.8C24.3,15.4,22.7,11,20,7.3z"/>
</g>
</svg>
