<?xml version="1.0" encoding="utf-8"?>
<!-- Generator: Adobe Illustrator 18.1.1, SVG Export Plug-In . SVG Version: 6.00 Build 0)  -->
<svg version="1.1" id="Capa_1" xmlns="http://www.w3.org/2000/svg" xmlns:xlink="http://www.w3.org/1999/xlink" x="0px" y="0px"
	 viewBox="0 0 40 40" enable-background="new 0 0 40 40" xml:space="preserve">
<g>
	<path fill="#00005B" d="M20,37.9c-9.8,0-17.9-8-17.9-17.9S10.2,2.1,20,2.1s17.9,8,17.9,17.9S29.8,37.9,20,37.9z M20,6.1
		C12.3,6.1,6.1,12.3,6.1,20c0,7.7,6.2,13.9,13.9,13.9c7.7,0,13.9-6.2,13.9-13.9C33.9,12.3,27.7,6.1,20,6.1z"/>
	<path fill="#00005B" d="M20,28.3c-4.9,0-7.8-3.8-7.9-4c-0.7-0.9-0.5-2.1,0.4-2.8c0.9-0.7,2.1-0.5,2.8,0.4c0,0.1,1.9,2.4,4.8,2.4
		c2.9,0,4.8-2.4,4.8-2.4c0.7-0.9,1.9-1,2.8-0.4c0.9,0.7,1,1.9,0.4,2.8C27.8,24.5,24.9,28.3,20,28.3z"/>
	<path fill="#00005B" d="M15.3,17.2c-1.1,0-2-0.9-2-2s0.9-2,2-2h0c1.1,0,2,0.9,2,2S16.3,17.2,15.3,17.2z"/>
	<path fill="#00005B" d="M24.8,17.2c-1.1,0-2-0.9-2-2s0.9-2,2-2h0c1.1,0,2,0.9,2,2S25.9,17.2,24.8,17.2z"/>
</g>
</svg>
