<?xml version="1.0" encoding="utf-8"?>
<!-- Generator: Adobe Illustrator 18.1.1, SVG Export Plug-In . SVG Version: 6.00 Build 0)  -->
<svg version="1.1" id="Capa_1" xmlns="http://www.w3.org/2000/svg" xmlns:xlink="http://www.w3.org/1999/xlink" x="0px" y="0px"
	 viewBox="0 0 40 40" enable-background="new 0 0 40 40" xml:space="preserve">
<g>
	<path fill="#00005B" d="M15.4,37.9c-1.9,0-3.4-1.5-3.4-3.4s1.5-3.4,3.4-3.4c1.9,0,3.4,1.5,3.4,3.4S17.3,37.9,15.4,37.9z M15.4,34.1
		c-0.2,0-0.4,0.2-0.4,0.4c0,0.4,0.8,0.4,0.8,0C15.8,34.2,15.6,34.1,15.4,34.1z"/>
	<path fill="#00005B" d="M32.2,37.9c-1.9,0-3.4-1.5-3.4-3.4s1.5-3.4,3.4-3.4s3.4,1.5,3.4,3.4S34,37.9,32.2,37.9z M32.2,34.1
		c-0.2,0-0.4,0.2-0.4,0.4c0,0.4,0.8,0.4,0.8,0C32.5,34.2,32.4,34.1,32.2,34.1z"/>
	<path fill="#00005B" d="M16.4,28.7c-2.3,0-4.4-1.7-4.8-4L9,12.1C9,12,9,12,9,11.9l-1.2-6H3.3c-1,0-1.9-0.9-1.9-1.9s0.9-1.9,1.9-1.9
		h6.1c0.9,0,1.7,0.6,1.9,1.5l1.2,6.1h24.3c0.6,0,1.1,0.3,1.5,0.7c0.4,0.4,0.5,1,0.4,1.6l-2.4,12.8c-0.5,2.3-2.5,4-4.8,4
		c0,0-0.1,0-0.1,0L16.4,28.7C16.4,28.7,16.4,28.7,16.4,28.7z M13.2,13.5L15.3,24c0.1,0.5,0.6,0.9,1.1,0.9h14.8
		c0.6,0,1.1-0.4,1.2-0.9l2-10.5H13.2z"/>
</g>
</svg>
