<?xml version="1.0" encoding="utf-8"?>
<!-- Generator: Adobe Illustrator 18.1.1, SVG Export Plug-In . SVG Version: 6.00 Build 0)  -->
<svg version="1.1" id="Capa_1" xmlns="http://www.w3.org/2000/svg" xmlns:xlink="http://www.w3.org/1999/xlink" x="0px" y="0px"
	 viewBox="0 0 40 40" enable-background="new 0 0 40 40" xml:space="preserve">
<g>
	<g>
		<path fill="#00005B" d="M20,37.8c-1,0-1.8-0.8-1.8-1.8V4c0-1,0.8-1.8,1.8-1.8S21.8,3,21.8,4v32C21.8,37,21,37.8,20,37.8z"/>
	</g>
	<g>
		<path fill="#00005B" d="M23.6,32H11.3c-1,0-1.8-0.8-1.8-1.8s0.8-1.8,1.8-1.8h12.4c1.8,0,3.3-1.5,3.3-3.3s-1.5-3.3-3.3-3.3h-7.3
			c-3.8,0-6.9-3.1-6.9-6.9S12.6,8,16.4,8h10.9c1,0,1.8,0.8,1.8,1.8s-0.8,1.8-1.8,1.8H16.4c-1.8,0-3.3,1.5-3.3,3.3s1.5,3.3,3.3,3.3
			h7.3c3.8,0,6.9,3.1,6.9,6.9S27.4,32,23.6,32z"/>
	</g>
</g>
</svg>
