<?xml version="1.0" encoding="utf-8"?>
<!-- Generator: Adobe Illustrator 18.1.1, SVG Export Plug-In . SVG Version: 6.00 Build 0)  -->
<svg version="1.1" id="Capa_1" xmlns="http://www.w3.org/2000/svg" xmlns:xlink="http://www.w3.org/1999/xlink" x="0px" y="0px"
	 viewBox="0 0 40 40" enable-background="new 0 0 40 40" xml:space="preserve">
<g>
	<g>
		<path fill="#00005B" d="M20,37.8c-0.4,0-0.7-0.1-1-0.3c-0.6-0.4-13.9-9.4-13.9-20.4C5.1,8.9,11.8,2.2,20,2.2
			c8.2,0,14.9,6.7,14.9,14.9c0,11-13.3,20-13.9,20.4C20.7,37.7,20.4,37.8,20,37.8z M20,5.8c-6.2,0-11.3,5.1-11.3,11.3
			c0,7.5,8.3,14.4,11.3,16.7c2.9-2.2,11.3-9.1,11.3-16.7C31.3,10.9,26.2,5.8,20,5.8z"/>
	</g>
	<g>
		<path fill="#00005B" d="M20,23.3c-3.4,0-6.2-2.8-6.2-6.2c0-3.4,2.8-6.2,6.2-6.2s6.2,2.8,6.2,6.2C26.2,20.5,23.4,23.3,20,23.3z
			 M20,14.5c-1.4,0-2.5,1.1-2.5,2.5s1.1,2.5,2.5,2.5s2.5-1.1,2.5-2.5S21.4,14.5,20,14.5z"/>
	</g>
</g>
</svg>
