<svg id="Capa_1" data-name="Capa 1" xmlns="http://www.w3.org/2000/svg" viewBox="0 0 36 36">
  <defs>
    <style>
      .cls-1, .cls-4 {
        fill: #e06a9c;
      }

      .cls-1, .cls-3 {
        fill-rule: evenodd;
      }

      .cls-2 {
        fill: #fbec4f;
      }

      .cls-3, .cls-5 {
        fill: #0067B1;
      }
    </style>
  </defs>
  <g>
    <path class="cls-1" d="M25.44,4.25a3.24,3.24,0,1,0-3.23,3.27A3.26,3.26,0,0,0,25.44,4.25Z"/>
    <rect class="cls-2" x="7.3" y="7.78" width="11.68" height="26.27"/>
    <path class="cls-3" d="M23.77,4.62a1.21,1.21,0,1,0-1.21,1.22A1.21,1.21,0,0,0,23.77,4.62Z"/>
    <path class="cls-4" d="M20.24,12.65h-9a1,1,0,0,1,0-2h9a1,1,0,0,1,0,2Z"/>
    <g>
      <path class="cls-5" d="M28.7,12.16a1,1,0,0,0-1,1v2.43a1,1,0,0,0,1.95,0V13.14A1,1,0,0,0,28.7,12.16Z"/>
      <path class="cls-5" d="M24.81,0H11.19A4.87,4.87,0,0,0,6.32,4.86V31.14A4.87,4.87,0,0,0,11.19,36H24.81a4.87,4.87,0,0,0,4.87-4.86V19.46a1,1,0,0,0-1.95,0v8.27H8.27V9.24H27.73v.49a1,1,0,0,0,1.95,0V4.86A4.87,4.87,0,0,0,24.81,0Zm2.92,29.68v1.46a2.92,2.92,0,0,1-2.92,2.91H11.19a2.92,2.92,0,0,1-2.92-2.91V29.68ZM8.27,7.3V4.86A2.92,2.92,0,0,1,11.19,2H24.81a2.92,2.92,0,0,1,2.92,2.91V7.3Z"/>
      <path class="cls-5" d="M15.93,32.59h4a1,1,0,1,0,0-1.94h-4a1,1,0,0,0,0,1.94Z"/>
      <path class="cls-5" d="M19,3.41H11.19a1,1,0,0,0,0,1.94H19a1,1,0,1,0,0-1.94Z"/>
    </g>
  </g>
</svg>
