<svg id="Capa_1" data-name="Capa 1" xmlns="http://www.w3.org/2000/svg" viewBox="0 0 36 36">
  <defs>
    <style>
      .cls-1 {
        fill: #FFE982;
      }

      .cls-2, .cls-3 {
        fill: #F278AB;
      }

      .cls-2 {
        fill-rule: evenodd;
      }

      .cls-4 {
        fill: #0067B1;
      }
    </style>
  </defs>
  <g>
    <rect class="cls-1" x="5.32" y="12.17" width="21.3" height="21.3" rx="2.03"/>
    <path class="cls-2" d="M33.36,3.41a3.37,3.37,0,1,0-6.74,0,3.37,3.37,0,1,0,6.74,0Z"/>
    <path class="cls-3" d="M17.49,34.48a1,1,0,0,1-1-1V28.39a1,1,0,0,1,2,0v5.07A1,1,0,0,1,17.49,34.48Z"/>
    <g>
      <path class="cls-4" d="M34.65,11.76,31.1,3.65A1,1,0,0,0,30.17,3H6.34a1,1,0,0,0-.91.56L1.37,11.72a1,1,0,0,0-.1.45v3.55a1,1,0,0,0,2,0V12.41L7,5.07H29.51l2.66,6.09H5.83a1,1,0,0,0,0,2H33.72a1,1,0,0,0,.85-.46A1,1,0,0,0,34.65,11.76Z"/>
      <path class="cls-4" d="M33.22,13.69h0a1,1,0,0,0-1,1,2.9,2.9,0,0,1-3.05,3.05,2.9,2.9,0,0,1-3-3.05,1,1,0,0,0-2-.1.29.29,0,0,0,0,.1c0,.31-.09,3.05-2.53,3.05S19,15,19,14.7a.85.85,0,0,0-.08-.39,1,1,0,0,0-.93-.62,1,1,0,0,0-1,.89s0,.08,0,.12a2.9,2.9,0,0,1-3,3.05,2.9,2.9,0,0,1-3-3.05,1,1,0,0,0-2-.1.29.29,0,0,0,0,.1c0,.31-.09,3.05-2.53,3.05a2.58,2.58,0,0,1-1.09-.22,1,1,0,0,0-.79,0,1,1,0,0,0-.66-.26,1,1,0,0,0-1,1V31.94A4.06,4.06,0,0,0,6.85,36h21.8a4.06,4.06,0,0,0,4.05-4.06V27.89a1,1,0,1,0-2,0v4.05a2,2,0,0,1-2,2H12.93V25.86a1,1,0,0,1,1-1H21a1,1,0,0,1,1,1v5.58a1,1,0,1,0,2,0V25.86a3,3,0,0,0-3-3h-7.1a3,3,0,0,0-3,3V34H6.85a2,2,0,0,1-2-2V19.51a4.66,4.66,0,0,0,1.52.26,4.09,4.09,0,0,0,3.6-1.83,4.71,4.71,0,0,0,4,1.83,4.72,4.72,0,0,0,4-1.83,4.09,4.09,0,0,0,3.6,1.83,4.09,4.09,0,0,0,3.6-1.83,4.71,4.71,0,0,0,4,1.83,4.89,4.89,0,0,0,5.08-5.07A1,1,0,0,0,33.22,13.69Z"/>
      <path class="cls-4" d="M31.69,21.3a1,1,0,0,0-1,1v1.52a1,1,0,1,0,2,0V22.31A1,1,0,0,0,31.69,21.3Z"/>
    </g>
  </g>
</svg>
