<svg id="Capa_1" data-name="Capa 1" xmlns="http://www.w3.org/2000/svg" viewBox="0 0 36 36">
  <defs>
    <style>
      .cls-1 {
        fill: #fbec4f;
      }

      .cls-2, .cls-4 {
        fill: #e06a9c;
      }

      .cls-2 {
        fill-rule: evenodd;
      }

      .cls-3 {
        fill: #0067B1;
      }
    </style>
  </defs>
  <g>
    <rect class="cls-1" x="4.61" y="10.15" width="31.39" height="13.95"/>
    <path class="cls-2" d="M26.29,14.92a3.87,3.87,0,1,0,3.91,3.87A3.89,3.89,0,0,0,26.29,14.92Z"/>
    <g>
      <path class="cls-3" d="M10.25,4.29h1.83a1.12,1.12,0,1,0,0-2.23H10.25a1.12,1.12,0,0,0,0,2.23Z"/>
      <path class="cls-3" d="M32.6,10.2H27.82V5.41a3.36,3.36,0,0,0-3.36-3.35H16.23a1.12,1.12,0,0,0,0,2.23h8.23a1.12,1.12,0,0,1,1.12,1.12V17.22a1.12,1.12,0,0,1-1.12,1.11H5.74a1.19,1.19,0,0,0-.26.05,1.54,1.54,0,0,0-.17.05s-.1.07-.16.1-.13.09-.19.15l0,0-2.69,3V5.41A1.12,1.12,0,0,1,3.36,4.29h3a1.12,1.12,0,1,0,0-2.23h-3A3.36,3.36,0,0,0,0,5.41V24.69A1.11,1.11,0,0,0,1.12,25.8,1.15,1.15,0,0,0,2,25.43l4.31-4.86H8.14v4.79a3.35,3.35,0,0,0,3.36,3.35H29.68L34,33.57a1.13,1.13,0,0,0,.84.37,1,1,0,0,0,.39-.07,1.11,1.11,0,0,0,.73-1V13.55A3.36,3.36,0,0,0,32.6,10.2Zm1.12,19.68-2.7-3s0,0,0,0a1.49,1.49,0,0,0-.2-.15.86.86,0,0,0-.16-.1,1,1,0,0,0-.18,0,1,1,0,0,0-.24-.05H11.5a1.12,1.12,0,0,1-1.12-1.11V20.57H24.46a3.36,3.36,0,0,0,3.36-3.35V12.43H32.6a1.12,1.12,0,0,1,1.12,1.12V29.88Z"/>
    </g>
    <path class="cls-4" d="M18.91,13.6H8.1a1.12,1.12,0,0,1,0-2.24H18.91a1.12,1.12,0,0,1,0,2.24Z"/>
  </g>
</svg>
