<?xml version="1.0" encoding="utf-8"?>
<!-- Generator: Adobe Illustrator 18.1.1, SVG Export Plug-In . SVG Version: 6.00 Build 0)  -->
<svg version="1.1" id="Capa_1" xmlns="http://www.w3.org/2000/svg" xmlns:xlink="http://www.w3.org/1999/xlink" x="0px" y="0px"
	 viewBox="0 0 40 40" enable-background="new 0 0 40 40" xml:space="preserve">
<g>
	<path fill="#00005B" d="M20,37.8c-5.9,0-11.7-3-15-8.1C0.8,23.1,1.4,14.4,6.4,8.4c5.1-6,13.6-7.9,20.8-4.7c1,0.4,1.4,1.6,1,2.6
		c-0.4,1-1.6,1.4-2.6,1c-5.6-2.5-12.2-1-16.2,3.7S5,22.4,8.4,27.5c3.3,5.1,9.7,7.5,15.6,5.7c5.8-1.7,9.9-7.2,9.9-13.3v-1.5
		c0-1.1,0.9-2,2-2c1.1,0,2,0.9,2,2V20c0,7.8-5.3,14.9-12.8,17.1C23.4,37.6,21.7,37.8,20,37.8z"/>
	<path fill="#00005B" d="M20,25.2c-0.5,0-1-0.2-1.4-0.6l-4.8-4.8c-0.8-0.8-0.8-2,0-2.8c0.8-0.8,2-0.8,2.8,0l3.4,3.4L34.4,5.9
		c0.8-0.8,2-0.8,2.8,0c0.8,0.8,0.8,2,0,2.8L21.4,24.6C21,25,20.5,25.2,20,25.2z"/>
</g>
</svg>
