<?xml version="1.0" encoding="utf-8"?>
<!-- Generator: Adobe Illustrator 18.1.1, SVG Export Plug-In . SVG Version: 6.00 Build 0)  -->
<svg version="1.1" id="Capa_1" xmlns="http://www.w3.org/2000/svg" xmlns:xlink="http://www.w3.org/1999/xlink" x="0px" y="0px"
	 viewBox="0 0 40 40" enable-background="new 0 0 40 40" xml:space="preserve">
<path fill="#00005B" d="M24.1,8.3c-1-0.2-2,0.5-2.2,1.5s0.5,2,1.5,2.2L24.1,8.3z M27.9,16.5c0.2,1,1.2,1.7,2.2,1.5
	c1-0.2,1.7-1.2,1.5-2.2L27.9,16.5z M24,2.2c-1-0.1-2,0.6-2.1,1.7c-0.1,1,0.6,2,1.7,2.1L24,2.2z M34,16.4c0.1,1,1.1,1.8,2.1,1.7
	c1-0.1,1.8-1.1,1.7-2.1L34,16.4z M34.3,32.8h-1.9l0,0L34.3,32.8z M31,35.9l-0.2,1.9c0,0,0,0,0,0L31,35.9z M17.9,31.2l1-1.6l0,0
	L17.9,31.2z M8.8,22.1l1.6-1l0,0L8.8,22.1z M4.2,8.9L2.3,9.1c0,0,0,0,0,0L4.2,8.9z M7.2,5.6V3.7h0L7.2,5.6z M11.7,5.6v1.9l0,0
	L11.7,5.6z M14.8,8.2L16.7,8l0,0L14.8,8.2z M15.8,12.5l-1.8,0.7l0,0L15.8,12.5z M15.1,15.7l1.3,1.3l0,0L15.1,15.7z M13.2,17.6
	l-1.3-1.3c-0.6,0.6-0.7,1.5-0.3,2.3L13.2,17.6z M22.3,26.7l-0.9,1.6c0.7,0.4,1.7,0.3,2.3-0.3L22.3,26.7z M24.3,24.8l-1.3-1.3l0,0
	L24.3,24.8z M27.5,24.1l-0.7,1.8l0,0L27.5,24.1z M31.7,25.2l0.3-1.9l0,0L31.7,25.2z M23.4,12.1c2.3,0.4,4.1,2.2,4.5,4.5l3.7-0.7
	c-0.7-3.8-3.7-6.8-7.5-7.5L23.4,12.1z M23.6,6C29,6.6,33.4,10.9,34,16.4l3.8-0.4C36.9,8.7,31.2,3,24,2.2L23.6,6z M32.4,28.3v4.6h3.8
	v-4.6H32.4z M32.4,32.8c0,0.3-0.1,0.6-0.4,0.8l2.6,2.8c1-0.9,1.6-2.3,1.6-3.7L32.4,32.8z M32.1,33.7c-0.2,0.2-0.6,0.3-0.9,0.3
	l-0.3,3.8c1.4,0.1,2.8-0.3,3.8-1.3L32.1,33.7z M31.2,34c-4.4-0.5-8.6-2-12.3-4.4l-2.1,3.2c4.2,2.7,9,4.4,13.9,5L31.2,34z M18.9,29.6
	c-3.4-2.2-6.3-5.1-8.5-8.5l-3.2,2c2.5,3.9,5.8,7.2,9.7,9.7L18.9,29.6z M10.4,21.1C8,17.4,6.5,13.1,6,8.7L2.3,9.1c0.5,5,2.2,9.8,5,14
	L10.4,21.1z M6.1,8.8c0-0.3,0.1-0.6,0.3-0.9L3.5,5.3c-0.9,1-1.4,2.4-1.3,3.8L6.1,8.8z M6.3,7.9c0.2-0.2,0.5-0.4,0.8-0.4l0-3.8
	c-1.4,0-2.7,0.6-3.6,1.6L6.3,7.9z M7.2,7.5h4.6V3.7H7.2V7.5z M11.8,7.5c0.6,0,1.1,0.4,1.1,1L16.6,8c-0.3-2.5-2.5-4.3-4.9-4.2
	L11.8,7.5z M12.9,8.5c0.2,1.6,0.6,3.2,1.2,4.7l3.6-1.3c-0.5-1.2-0.8-2.5-1-3.8L12.9,8.5z M14.1,13.2c0.2,0.4,0.1,0.9-0.3,1.2
	l2.7,2.7c1.4-1.4,1.8-3.4,1.1-5.2L14.1,13.2z M13.8,14.4l-1.9,1.9l2.7,2.7l1.9-1.9L13.8,14.4z M11.6,18.6c2.3,4.1,5.7,7.5,9.8,9.8
	l1.9-3.3c-3.5-2-6.4-4.9-8.4-8.4L11.6,18.6z M23.7,28.1l1.9-1.9l-2.7-2.7L21,25.4L23.7,28.1z M25.6,26.2c0.3-0.3,0.8-0.4,1.2-0.3
	l1.3-3.6c-1.8-0.7-3.8-0.2-5.2,1.1L25.6,26.2z M26.8,25.9c1.5,0.6,3.1,1,4.7,1.2l0.5-3.8c-1.3-0.2-2.6-0.5-3.8-1L26.8,25.9z
	 M31.5,27.1c0.6,0.1,1,0.6,1,1.2l3.8,0.1c0.1-2.5-1.8-4.7-4.2-5L31.5,27.1z"/>
</svg>
