<svg width="37" height="36" viewBox="0 0 37 36" fill="none" xmlns="http://www.w3.org/2000/svg">
<path d="M1.85718 22.0178L1.85718 7.39282C1.85718 6.15018 2.86454 5.14282 4.10718 5.14282L31.3215 5.14282" stroke="#00005B" stroke-width="2" stroke-linecap="round" stroke-linejoin="round"/>
<path d="M6.54843 29.8928L4.10718 29.8928C2.86454 29.8928 1.85718 28.8855 1.85718 27.6428L1.85718 24.2678" stroke="#00005B" stroke-width="2" stroke-linecap="round" stroke-linejoin="round"/>
<path d="M35.3392 10.2053L35.3392 27.6428C35.3392 28.8855 34.3318 29.8928 33.0892 29.8928L19.1167 29.8928" stroke="#00005B" stroke-width="2" stroke-linecap="round" stroke-linejoin="round"/>
<path d="M19.4072 8.78567L9.73218 8.78567C9.11086 8.78568 8.60718 9.28935 8.60718 9.91068L8.60718 23.4107C8.60718 24.032 9.11086 24.5357 9.73218 24.5357L28.8572 24.5357C29.4785 24.5357 29.9822 24.032 29.9822 23.4107L29.9822 15.8394C29.9814 15.0364 29.5526 14.2947 28.8572 13.8932L20.5322 9.08943C20.1894 8.89354 19.802 8.78896 19.4072 8.78567Z" fill="#FFED00"/>
<path d="M13.1973 29.8928L11.3523 29.8928" stroke="#00005B" stroke-width="2" stroke-linecap="round" stroke-linejoin="round"/>
<path d="M29.6071 16.4464L21.8928 16.4464" stroke="#00005B" stroke-width="2" stroke-linecap="round" stroke-linejoin="round"/>
<path d="M31.3214 19.875L21.8928 19.875" stroke="#00005B" stroke-width="2" stroke-linecap="round" stroke-linejoin="round"/>
<path d="M31.3214 23.3035L21.8928 23.3035" stroke="#00005B" stroke-width="2" stroke-linecap="round" stroke-linejoin="round"/>
<path fill-rule="evenodd" clip-rule="evenodd" d="M11.6072 25.0178C14.9209 25.0178 17.6072 25.0178 17.6072 25.0178C17.6072 21.7041 14.9209 19.0178 11.6072 19.0178C8.29347 19.0178 5.60718 21.7041 5.60718 25.0178C5.60718 25.0178 8.29347 25.0178 11.6072 25.0178Z" stroke="#00005B" stroke-width="2" stroke-linecap="round" stroke-linejoin="round"/>
<path fill-rule="evenodd" clip-rule="evenodd" d="M10.4416 17.5435C11.6913 17.5435 12.7044 16.5304 12.7044 15.2807C12.7044 14.0309 11.6913 13.0178 10.4416 13.0178C9.19183 13.0178 8.17871 14.0309 8.17871 15.2807C8.17871 16.5304 9.19183 17.5435 10.4416 17.5435Z" fill="#F2609E"/>
<path d="M14.0359 14.7321C14.0359 16.0734 12.9485 17.1607 11.6073 17.1607C10.266 17.1607 9.17871 16.0734 9.17871 14.7321C9.17871 13.3908 10.266 12.3035 11.6073 12.3035C12.9485 12.3035 14.0359 13.3908 14.0359 14.7321Z" stroke="#00005B" stroke-width="2"/>
</svg>
