<svg xmlns="http://www.w3.org/2000/svg" width="187.165" height="43.497" viewBox="0 0 187.165 43.497"><defs><style>.a,.b{fill:#fff;}.a,.c{fill-rule:evenodd;}.c,.d{fill:#fe0;}</style></defs><g transform="translate(-405.261 -45.293)"><g transform="translate(439.154 54.694)"><g transform="translate(0 0)"><path class="a" d="M454.638,68.947a8.408,8.408,0,0,1,3.836-7.148,16.886,16.886,0,0,1,9.509-2.809V62.6a9.616,9.616,0,0,0-4.789,1.807,5.382,5.382,0,0,0,.326,9.234,10.8,10.8,0,0,0,4.463,1.627v3.738a17.579,17.579,0,0,1-9.055-2.508A8.554,8.554,0,0,1,454.638,68.947Z" transform="translate(-454.638 -58.989)"/><path class="a" d="M483.74,80.911a7.6,7.6,0,0,1-5.823-2.279,8.078,8.078,0,0,1-2.005-5.677,8.049,8.049,0,0,1,1.958-5.666,8.615,8.615,0,0,1,11.738,0,9.05,9.05,0,0,1-.076,11.343A7.494,7.494,0,0,1,483.74,80.911Zm0-12.843q-2.108,0-2.107,4.887c0,3.183.7,4.768,2.107,4.768a1.564,1.564,0,0,0,1.5-1.2,10.781,10.781,0,0,0,.428-3.568Q485.671,68.07,483.74,68.068Z" transform="translate(-461.309 -60.868)"/><rect class="b" width="5.898" height="19.419" transform="translate(31.711 0.301)"/><path class="a" d="M517.821,80.911a23.893,23.893,0,0,1-5.467-.624l.148-3.166a12.3,12.3,0,0,0,4.141.6q3.259,0,3.26-2.005,0-.93-1.277-1.705-1.934-.952-3.867-1.88-2.3-1.351-2.257-3.238a3.263,3.263,0,0,1,1.809-2.686,10.464,10.464,0,0,1,5.519-1.229,17.787,17.787,0,0,1,3.961.526l.154,2.936a10.529,10.529,0,0,0-2.759-.352q-2.614,0-2.612,1.153c0,.623.477,1.155,1.435,1.608.752.285,1.5.572,2.256.853a6.38,6.38,0,0,1,2.33,1.43,3.706,3.706,0,0,1,1.031,2.709,4.252,4.252,0,0,1-2.032,3.764A10.639,10.639,0,0,1,517.821,80.911Z" transform="translate(-472.737 -60.868)"/><path class="a" d="M546.688,80.021a11.623,11.623,0,0,1-5.341,1.052,10.4,10.4,0,0,1-5.874-1.433,3.926,3.926,0,0,1-1.954-3.409V65.5h5.87l.023,9.93c0,1.409.65,2.113,1.935,2.113a1.863,1.863,0,0,0,2.1-2.113V65.5h5.727V80.749Z" transform="translate(-479.374 -61.03)"/><path class="a" d="M565.032,78.846h-6.15V59.427h5.72v3.886q5.745.753,8.577,3.313a6.8,6.8,0,0,1,2.363,5.317q-.076,3.691-2.588,5.294Q570.473,78.844,565.032,78.846Zm-.43-11.994v8.806a7.8,7.8,0,0,0,3.488-.574,3.253,3.253,0,0,0,1.555-3.14,4.888,4.888,0,0,0-1.506-3.532A4.716,4.716,0,0,0,564.6,66.851Z" transform="translate(-487.328 -59.126)"/><path class="a" d="M589.72,80.911a23.951,23.951,0,0,1-5.47-.624l.15-3.166a12.253,12.253,0,0,0,4.137.6c2.179,0,3.263-.667,3.263-2.005,0-.62-.419-1.19-1.277-1.705q-1.93-.952-3.865-1.88-2.31-1.351-2.258-3.238a3.268,3.268,0,0,1,1.805-2.686,10.483,10.483,0,0,1,5.521-1.229,17.871,17.871,0,0,1,3.965.526l.146,2.936a10.457,10.457,0,0,0-2.754-.352q-2.61,0-2.611,1.153c0,.623.475,1.155,1.43,1.608.748.285,1.507.572,2.256.853a6.446,6.446,0,0,1,2.337,1.43,3.733,3.733,0,0,1,1.026,2.709,4.246,4.246,0,0,1-2.032,3.764A10.621,10.621,0,0,1,589.72,80.911Z" transform="translate(-495.283 -60.868)"/><path class="a" d="M605.781,61.683V59.427H611.5v2.256Zm0,17.162V63.69H611.5V78.846Z" transform="translate(-502.035 -59.126)"/><path class="a" d="M627.179,78.846q-5.44,0-7.95-1.608c-1.659-1.069-2.508-2.834-2.562-5.294a6.814,6.814,0,0,1,2.36-5.317q2.839-2.563,8.58-3.313V59.427h5.721V78.846Zm.428-11.994a4.806,4.806,0,0,0-3.564,1.56,4.91,4.91,0,0,0-1.477,3.532,3.253,3.253,0,0,0,1.555,3.14,7.792,7.792,0,0,0,3.486.574Z" transform="translate(-505.449 -59.126)"/><path class="a" d="M644.227,61.683V59.427h5.723v2.256Zm0,17.162V63.69h5.723V78.846Z" transform="translate(-514.091 -59.126)"/><path class="a" d="M662.951,80.911a7.584,7.584,0,0,1-5.819-2.279,8.047,8.047,0,0,1-2.009-5.677,8.068,8.068,0,0,1,1.958-5.666,8.615,8.615,0,0,1,11.738,0,9.05,9.05,0,0,1-.075,11.343A7.5,7.5,0,0,1,662.951,80.911Zm0-12.843q-2.112,0-2.109,4.887c0,3.183.7,4.768,2.109,4.768a1.558,1.558,0,0,0,1.5-1.2,10.68,10.68,0,0,0,.426-3.568Q664.88,68.07,662.951,68.068Z" transform="translate(-517.508 -60.868)"/></g></g><g transform="translate(405.261 45.293)"><g transform="translate(0 10.067)"><path class="c" d="M405.261,68.094l8.142-8.135V76.222Z" transform="translate(-405.261 -59.959)"/></g><g transform="translate(9.167 19.402)"><path class="c" d="M426.94,81.9v7.921l-8.323-8.341V73.559Z" transform="translate(-418.616 -73.559)"/></g><g transform="translate(9.886 0.718)"><path class="c" d="M419.663,53.949l7.619-7.61v7.61Z" transform="translate(-419.663 -46.339)"/></g><g transform="translate(9.165 9.344)"><rect class="d" width="8.34" height="8.327"/></g><g transform="translate(9.886 18.686)"><path class="c" d="M419.663,72.516h7.619v7.611Z" transform="translate(-419.663 -72.516)"/></g><g transform="translate(18.522)"><path class="c" d="M449.225,45.293l-16.98,16.981V45.293Z" transform="translate(-432.245 -45.293)"/></g><g transform="translate(18.506 19.399)"><path class="c" d="M432.221,90.535V73.556L449.2,90.535Z" transform="translate(-432.221 -73.556)"/></g></g><g transform="translate(446.855 78.021)"><path class="b" d="M471.667,95.051a3.152,3.152,0,0,0-1.616-.437A3.064,3.064,0,0,0,470,100.74a3.873,3.873,0,0,0,1.707-.381l.067,1.087a4.914,4.914,0,0,1-1.784.281,3.858,3.858,0,0,1-4.127-4.084A3.9,3.9,0,0,1,470,93.631a4.316,4.316,0,0,1,1.76.333Z" transform="translate(-465.858 -93.179)"/><path class="b" d="M478.643,96.7a2.822,2.822,0,0,1,2.908,2.994,2.912,2.912,0,1,1-5.822,0A2.821,2.821,0,0,1,478.643,96.7Zm0,5.137a1.918,1.918,0,0,0,1.785-2.143,1.82,1.82,0,1,0-3.583,0A1.92,1.92,0,0,0,478.643,101.837Z" transform="translate(-468.953 -94.141)"/><path class="b" d="M486.265,96.833h1.022v.908h.025a2.047,2.047,0,0,1,1.869-1.041c1.481,0,2.144.92,2.144,2.456v3.4h-1.053V99.593c0-1.335-.292-1.982-1.215-2.042-1.2,0-1.737.968-1.737,2.356v2.65h-1.056Z" transform="translate(-472.257 -94.141)"/><path class="b" d="M503.457,96.99h-1.514v3.127a.91.91,0,0,0,.89,1.023,1.3,1.3,0,0,0,.715-.2v.9a3.391,3.391,0,0,1-.893.156c-1.089,0-1.764-.519-1.764-1.66V96.99H499.6v-.854h1.29V94.812l1.053-.336v1.66h1.514Z" transform="translate(-476.439 -93.444)"/><path class="b" d="M509.509,96.7a2.822,2.822,0,0,1,2.908,2.994,2.913,2.913,0,1,1-5.824,0A2.824,2.824,0,0,1,509.509,96.7Zm0,5.137a1.916,1.916,0,0,0,1.782-2.143,1.818,1.818,0,1,0-3.577,0A1.919,1.919,0,0,0,509.509,101.837Z" transform="translate(-478.632 -94.141)"/><path class="b" d="M521.01,100.575h-.026a2.283,2.283,0,0,1-1.949.946c-1.728,0-2.458-1.535-2.458-3.1,0-1.536.811-2.893,2.469-2.893a2.042,2.042,0,0,1,1.9.92h.023V92.972h1.055v8.416H521.01Zm-1.728.093c1.188,0,1.682-1.18,1.682-2.133,0-1.067-.549-2.154-1.7-2.154s-1.59,1.078-1.566,2.121C517.676,99.4,518.149,100.668,519.281,100.668Z" transform="translate(-481.763 -92.972)"/><path class="b" d="M529.478,96.7a2.82,2.82,0,0,1,2.906,2.994,2.912,2.912,0,1,1-5.821,0A2.823,2.823,0,0,1,529.478,96.7Zm0,5.137a1.919,1.919,0,0,0,1.783-2.143,1.818,1.818,0,1,0-3.578,0A1.918,1.918,0,0,0,529.478,101.837Z" transform="translate(-484.894 -94.141)"/><path class="b" d="M541.84,92.972h1.054v8.416H541.84Z" transform="translate(-489.685 -92.972)"/><path class="b" d="M548.553,96.7a2.818,2.818,0,0,1,2.9,2.994,2.91,2.91,0,1,1-5.818,0A2.82,2.82,0,0,1,548.553,96.7Zm0,5.137a1.917,1.917,0,0,0,1.781-2.143,1.818,1.818,0,1,0-3.576,0A1.917,1.917,0,0,0,548.553,101.837Z" transform="translate(-490.876 -94.141)"/><path class="b" d="M565.6,104.912h-1.049V101.8h-.025a2.194,2.194,0,0,1-1.9.886c-1.731,0-2.457-1.535-2.457-3.1,0-1.535.805-2.893,2.467-2.893a2.258,2.258,0,0,1,1.938.954h.023v-.821H565.6Zm-2.733-3.074c1.188,0,1.684-1.18,1.684-2.133,0-1.067-.547-2.154-1.695-2.154s-1.595,1.078-1.574,2.121C561.26,100.569,561.731,101.837,562.865,101.837Z" transform="translate(-495.431 -94.141)"/><path class="b" d="M575.756,102.618h-1.018v-.909h-.023a2.057,2.057,0,0,1-1.875,1.042c-1.479,0-2.144-.923-2.144-2.457v-3.4h1.058v2.961c0,1.339.291,1.988,1.209,2.043,1.2,0,1.74-.964,1.74-2.354v-2.65h1.053Z" transform="translate(-498.734 -94.202)"/><path class="b" d="M584.9,102.318a4.369,4.369,0,0,1-1.807.372c-2.032,0-2.964-1.235-2.964-3.1a2.658,2.658,0,0,1,2.681-2.893c1.906,0,2.524,1.388,2.524,3.228h-4.084a1.874,1.874,0,0,0,1.883,1.91,3.418,3.418,0,0,0,1.767-.57Zm-.685-3.173a1.446,1.446,0,0,0-1.425-1.595,1.585,1.585,0,0,0-1.54,1.595Z" transform="translate(-501.692 -94.141)"/><path class="b" d="M596.977,96.99h-1.514v3.127a.908.908,0,0,0,.884,1.023,1.3,1.3,0,0,0,.719-.2v.9a3.377,3.377,0,0,1-.9.156c-1.088,0-1.76-.519-1.76-1.66V96.99h-1.293v-.854h1.293V94.812l1.052-.336v1.66h1.514Z" transform="translate(-505.765 -93.444)"/><path class="b" d="M604.883,102.318a4.365,4.365,0,0,1-1.806.372c-2.03,0-2.963-1.235-2.963-3.1a2.657,2.657,0,0,1,2.679-2.893c1.912,0,2.526,1.388,2.526,3.228h-4.086a1.871,1.871,0,0,0,1.89,1.91,3.407,3.407,0,0,0,1.76-.57Zm-.686-3.173a1.445,1.445,0,0,0-1.424-1.595,1.584,1.584,0,0,0-1.54,1.595Z" transform="translate(-507.96 -94.141)"/><path class="b" d="M614.287,96.833h.986v.83h.02a1.933,1.933,0,0,1,1.818-.963,1.682,1.682,0,0,1,1.625,1.11,2.041,2.041,0,0,1,1.772-1.11c1.46,0,1.987.942,1.987,2.187v3.67h-1.055V99.145c0-.709-.169-1.595-1.019-1.595-1.078,0-1.5,1.056-1.5,2.121v2.886h-1.053V99.145c0-.709-.174-1.595-1.025-1.595-1.078,0-1.5,1.056-1.5,2.121v2.886h-1.052Z" transform="translate(-512.404 -94.141)"/><path class="b" d="M633.041,102.318a4.391,4.391,0,0,1-1.81.372c-2.032,0-2.963-1.235-2.963-3.1a2.658,2.658,0,0,1,2.683-2.893c1.908,0,2.526,1.388,2.526,3.228H629.39a1.873,1.873,0,0,0,1.881,1.91,3.434,3.434,0,0,0,1.77-.57Zm-.691-3.173a1.444,1.444,0,0,0-1.421-1.595,1.589,1.589,0,0,0-1.54,1.595Z" transform="translate(-516.788 -94.141)"/><path class="b" d="M637.911,96.833h.983v.888h.027A1.745,1.745,0,0,1,640.41,96.7a2.846,2.846,0,0,1,.7.078v.942a1.552,1.552,0,0,0-.584-.1c-.944,0-1.56.9-1.56,2.334v2.6h-1.054Z" transform="translate(-519.812 -94.141)"/><path class="b" d="M648.48,102.318a4.344,4.344,0,0,1-1.807.372c-2.034,0-2.964-1.235-2.964-3.1a2.659,2.659,0,0,1,2.682-2.893c1.91,0,2.527,1.388,2.527,3.228h-4.083a1.871,1.871,0,0,0,1.881,1.91,3.421,3.421,0,0,0,1.764-.57Zm-.686-3.173a1.445,1.445,0,0,0-1.422-1.595,1.581,1.581,0,0,0-1.536,1.595Z" transform="translate(-521.63 -94.141)"/><path class="b" d="M656.775,97.8a3.065,3.065,0,0,0-1.148-.249,1.96,1.96,0,0,0-1.838,2.144,1.934,1.934,0,0,0,1.9,2.143,2.209,2.209,0,0,0,1.136-.325l.08.942a3.232,3.232,0,0,1-1.324.237,2.894,2.894,0,0,1-2.916-3,2.822,2.822,0,0,1,2.916-2.994,3.884,3.884,0,0,1,1.274.224Z" transform="translate(-524.44 -94.141)"/><path class="b" d="M664.822,102.318a4.351,4.351,0,0,1-1.808.372c-2.028,0-2.956-1.235-2.956-3.1a2.653,2.653,0,0,1,2.675-2.893c1.911,0,2.526,1.388,2.526,3.228h-4.085a1.871,1.871,0,0,0,1.884,1.91,3.414,3.414,0,0,0,1.764-.57Zm-.684-3.173a1.446,1.446,0,0,0-1.425-1.595,1.59,1.59,0,0,0-1.539,1.595Z" transform="translate(-526.757 -94.141)"/><path class="b" d="M669.033,101.432a2.8,2.8,0,0,0,1.311.4c.482,0,1.08-.2,1.08-.819,0-1.043-2.481-.954-2.481-2.558,0-1.189.885-1.761,2.016-1.761a4.347,4.347,0,0,1,1.312.224l-.089.919a3.151,3.151,0,0,0-1.109-.292c-.543,0-1.007.225-1.007.7,0,1.164,2.474.83,2.474,2.657a1.8,1.8,0,0,1-2,1.786,3.28,3.28,0,0,1-1.568-.314Z" transform="translate(-529.543 -94.141)"/></g></g></svg>