<svg width="167" height="22" viewBox="0 0 167 22" fill="none" xmlns="http://www.w3.org/2000/svg">
<path d="M62.6163 14.4591C62.6163 12.7988 61.1421 12.3837 59.5276 12.0378C58.4746 11.761 57.6322 11.6227 57.6322 10.7233C57.6322 9.82393 58.4044 9.5472 59.317 9.5472C60.2295 9.5472 61.0719 9.89311 61.5633 10.5849L62.4759 9.96229C61.7739 8.99374 60.6507 8.50946 59.3872 8.50946C57.7024 8.50946 56.5091 9.33965 56.5091 10.8617C56.5091 12.3837 57.8428 12.868 59.2468 13.1447C60.5103 13.4214 61.4931 13.629 61.4931 14.5975C61.4931 15.4969 60.7209 15.9812 59.5978 15.9812C58.615 15.9812 57.6322 15.5661 57.0707 14.7359L56.0879 15.3585C56.7197 16.3963 57.913 17.0189 59.4574 17.0189C61.4229 16.9497 62.6163 15.912 62.6163 14.4591Z" fill="#231F20"/>
<path d="M68.4427 15.7736V16.8113H69.4957V10.4466H68.4427V13.9749C68.4427 15.151 67.6003 15.9812 66.4772 15.9812C65.2838 15.9812 65.0732 15.0818 65.0732 14.3208V10.4466H64.0203V14.5975C64.0203 16.1195 64.8626 17.0189 66.2666 17.0189C67.1792 16.9497 67.9513 16.5346 68.4427 15.7736Z" fill="#231F20"/>
<path d="M74.7604 16.9497C76.5855 16.9497 77.7086 15.4969 77.7086 13.629C77.7086 11.761 76.5855 10.3082 74.7604 10.3082C73.8478 10.3082 73.0756 10.6541 72.4438 11.4843V10.4466H71.3909V18.956H72.4438V15.7736C73.0756 16.6038 73.918 16.9497 74.7604 16.9497ZM72.4438 13.629C72.4438 12.3145 73.1458 11.2768 74.5498 11.2768C75.9537 11.2768 76.5855 12.3145 76.5855 13.629C76.5855 14.9434 75.9537 15.9812 74.5498 15.9812C73.216 15.9812 72.4438 14.9434 72.4438 13.629Z" fill="#231F20"/>
<path d="M78.6914 13.629C78.6914 15.4969 79.8848 16.9497 81.9907 16.9497C83.1139 16.9497 84.0264 16.5346 84.6582 15.8428L83.9562 15.151C83.4648 15.7044 82.8331 15.9812 82.0609 15.9812C80.7973 15.9812 79.955 15.2202 79.8848 13.9057H84.939C84.939 13.8365 84.939 13.6981 84.939 13.4906C84.939 11.6919 83.7456 10.3082 81.8503 10.3082C79.8848 10.239 78.6914 11.761 78.6914 13.629ZM83.886 13.0755H79.955C80.0252 11.9686 80.7973 11.2076 81.9205 11.2076C82.9033 11.2076 83.7456 11.8302 83.886 13.0755Z" fill="#231F20"/>
<path d="M90.2039 10.5157C89.9933 10.3774 89.7125 10.3082 89.2913 10.3082C88.5191 10.3082 87.8172 10.7925 87.396 11.4843V10.3774H86.343V16.7422H87.396V13.4214C87.396 12.0378 88.2384 11.2768 89.0807 11.2768C89.3615 11.2768 89.6423 11.3459 89.8529 11.4843L90.2039 10.5157Z" fill="#231F20"/>
<path d="M98.066 14.2516C98.066 12.522 96.5919 12.0378 94.837 11.761C93.9244 11.6227 93.1522 11.4843 93.1522 10.8617C93.1522 10.3082 93.6436 10.1007 94.3456 10.1007C95.1178 10.1007 95.8899 10.3774 96.3813 11.0692L97.8555 10.1698C97.0131 8.92455 95.6793 8.50946 94.3456 8.50946C92.4502 8.50946 91.1165 9.47801 91.1165 11C91.1165 12.7296 92.5205 13.2139 94.2754 13.5598C95.2582 13.6981 96.1005 13.8365 96.1005 14.5283C96.1005 15.0818 95.5389 15.3585 94.6264 15.3585C93.7138 15.3585 92.8012 15.0126 92.2397 14.1132L90.6953 14.9434C91.3271 16.2579 92.731 17.0189 94.5562 17.0189C96.8025 16.9497 98.066 15.7736 98.066 14.2516Z" fill="#231F20"/>
<path d="M103.261 16.0503V16.8113H105.156V10.239H103.261V13.9749C103.261 14.8051 102.699 15.2893 101.997 15.2893C101.155 15.2893 100.944 14.7359 100.944 14.1824V10.239H99.0488V14.5975C99.0488 15.912 99.7508 16.9497 101.295 16.9497C102.067 16.9497 102.769 16.6038 103.261 16.0503Z" fill="#231F20"/>
<path d="M106.63 8.02518V16.8113H108.525V16.0503C109.087 16.673 109.789 16.9497 110.561 16.9497C112.457 16.9497 113.58 15.4969 113.58 13.4906C113.58 11.5535 112.386 10.0315 110.561 10.0315C109.719 10.0315 109.087 10.3082 108.525 10.9308V7.95599H106.63V8.02518ZM111.544 13.5598C111.544 14.5283 111.053 15.3585 110.07 15.3585C109.017 15.3585 108.525 14.5283 108.525 13.5598C108.525 12.5912 109.087 11.761 110.07 11.761C111.123 11.6918 111.544 12.522 111.544 13.5598Z" fill="#231F20"/>
<path d="M115.405 14.5283L114.141 15.3585C114.843 16.4654 116.037 16.9497 117.511 16.9497C119.406 16.9497 120.529 16.0503 120.529 14.7359C120.529 13.3522 119.336 12.9371 117.792 12.6604C116.949 12.522 116.317 12.4528 116.317 12.0378C116.317 11.761 116.739 11.5535 117.3 11.5535C118.213 11.5535 118.915 11.8994 119.336 12.3837L120.459 11.4151C119.898 10.7925 118.774 10.1698 117.3 10.1698C115.756 10.1698 114.492 10.8617 114.492 12.2453C114.492 13.6981 115.686 14.1132 117.23 14.3208C118.072 14.4591 118.634 14.5283 118.634 15.0126C118.634 15.3585 118.213 15.5661 117.581 15.5661C116.809 15.4969 115.896 15.2201 115.405 14.5283Z" fill="#231F20"/>
<path d="M123.478 8.02518H121.582V9.40882H123.478V8.02518Z" fill="#231F20"/>
<path d="M123.478 10.239H121.582V16.8113H123.478V10.239Z" fill="#231F20"/>
<path d="M129.585 8.02518V11C129.023 10.3774 128.391 10.1006 127.549 10.1006C125.654 10.1006 124.531 11.5535 124.531 13.5598C124.531 15.4969 125.724 17.0189 127.549 17.0189C128.321 17.0189 129.023 16.7422 129.585 16.1195V16.8805H131.48V8.02518H129.585ZM129.585 13.5598C129.585 14.5283 129.093 15.3585 128.04 15.3585C126.987 15.3585 126.566 14.5283 126.566 13.5598C126.566 12.5912 127.058 11.761 128.04 11.761C129.093 11.6918 129.585 12.522 129.585 13.5598Z" fill="#231F20"/>
<path d="M134.849 8.02518H132.954V9.40882H134.849V8.02518Z" fill="#231F20"/>
<path d="M134.849 10.239H132.954V16.8113H134.849V10.239Z" fill="#231F20"/>
<path d="M142.992 13.5598C142.992 11.4843 141.588 10.1006 139.483 10.1006C137.306 10.1006 135.973 11.4843 135.973 13.5598C135.973 15.5661 137.377 16.9497 139.483 16.9497C141.588 16.9497 142.992 15.5661 142.992 13.5598ZM137.938 13.5598C137.938 12.4528 138.5 11.6918 139.412 11.6918C140.395 11.6918 140.957 12.4528 140.957 13.5598C140.957 14.6667 140.465 15.4277 139.412 15.4277C138.5 15.3585 137.938 14.5975 137.938 13.5598Z" fill="#231F20"/>
<path d="M6.10719 10.1006L3.65027 16.4654H2.45691L0 10.1006H1.26356L3.08869 15.151L4.91383 10.1006H6.10719Z" fill="#231F20"/>
<path d="M7.93237 16.4654V10.1006H9.05553V16.4654H7.93237Z" fill="#231F20"/>
<path d="M17.1283 11.3459L16.2157 11.8994C15.8647 11.2767 15.2329 11 14.531 11C13.2674 11 12.4952 11.9686 12.4952 13.283C12.4952 14.7359 13.2674 15.5661 14.531 15.5661C15.5137 15.5661 16.2859 15.0126 16.4263 14.044H14.6714V13.0755H17.5495C17.5495 13.2139 17.6197 13.4214 17.6197 13.5598C17.6197 15.151 16.5667 16.5346 14.6012 16.5346C12.6356 16.5346 11.3721 15.151 11.3721 13.2139C11.3721 11.2767 12.6356 9.8931 14.6012 9.8931C15.6541 9.96228 16.5667 10.5157 17.1283 11.3459Z" fill="#231F20"/>
<path d="M19.6553 16.4654V10.1006H20.7784V16.4654H19.6553Z" fill="#231F20"/>
<path d="M23.3757 16.4654V10.1006H24.4989V15.4277H28.0088V16.4654H23.3757Z" fill="#231F20"/>
<path d="M34.3267 16.4654L33.6949 14.805H31.0274L30.3956 16.4654H29.1321L31.6592 10.1006H32.9929L35.5201 16.4654H34.3267ZM32.3612 11.0692L31.3082 13.9057H33.3439L32.3612 11.0692Z" fill="#231F20"/>
<path d="M37.4153 16.4654V10.1006H40.0126C42.0483 10.1006 43.2417 11.4843 43.2417 13.283C43.2417 15.0818 42.1185 16.4654 40.0126 16.4654H37.4153ZM40.0126 15.4277C41.3463 15.4277 42.0483 14.5975 42.0483 13.283C42.0483 11.9686 41.3463 11.1384 40.0126 11.1384H38.6086V15.4969H40.0126V15.4277Z" fill="#231F20"/>
<path d="M48.2257 16.6038C46.2601 16.6038 44.9966 15.151 44.9966 13.283C44.9966 11.4151 46.2601 9.96228 48.2257 9.96228C50.1912 9.96228 51.4548 11.4151 51.4548 13.283C51.4548 15.151 50.1912 16.6038 48.2257 16.6038ZM48.2257 11C46.9621 11 46.1899 11.9686 46.1899 13.283C46.1899 14.5975 46.9621 15.5661 48.2257 15.5661C49.4892 15.5661 50.2614 14.5975 50.2614 13.283C50.2614 11.9686 49.4892 11 48.2257 11Z" fill="#231F20"/>
<path d="M161.595 10.4466C161.595 10.7233 161.735 11 162.016 11.1384C161.946 11.0692 161.806 11.0692 161.735 11C161.384 10.8617 160.963 10.7233 160.542 10.7233C160.121 10.7233 159.77 10.7925 159.419 11C159.419 11 159.419 10.9308 159.349 10.9308C159.419 10.7925 159.489 10.6541 159.489 10.4466C159.489 10.3082 159.489 10.1698 159.419 10.1006H159.489C159.77 10.3082 160.191 10.5157 160.542 10.5157C161.033 10.5157 161.525 10.3082 161.806 9.96228C161.735 10.0315 161.595 10.239 161.595 10.4466Z" fill="#008CC5"/>
<path d="M163.35 13.4906C163.35 13.0755 163.209 12.6604 163.069 12.3145C162.858 11.8302 162.507 11.4843 162.016 11.2075C161.946 11.1384 161.805 11.1384 161.735 11.0692C161.384 10.9308 160.963 10.7924 160.542 10.7924C160.121 10.7924 159.77 10.8616 159.419 11.0692C159.559 11.4151 159.699 11.8302 159.699 12.2453C159.699 12.2453 159.699 12.2453 159.699 12.3145V13.0755V13.5597C159.699 13.0755 160.05 12.7296 160.542 12.7296C160.963 12.7296 161.384 13.0755 161.384 13.4906C161.384 13.4906 161.384 13.4906 161.384 13.5597C161.384 13.6289 161.384 13.5597 161.384 13.6289V13.9748V15.0818C161.384 14.8742 161.454 14.6667 161.525 14.5283C161.595 14.3899 161.735 14.2516 161.946 14.1824C162.086 14.1132 162.227 14.1132 162.367 14.1132C162.507 14.1132 162.648 14.1132 162.788 14.1824C162.929 14.2516 163.069 14.3899 163.209 14.5283C163.35 14.6667 163.35 14.8742 163.35 15.0818V15.0126V13.4906Z" fill="#13A1DB"/>
<path d="M159.7 19.1635V19.0943C158.647 18.7484 157.804 17.7799 157.804 16.6038V17.7107V18.8176V19.1635C157.804 19.1635 157.804 19.1635 157.804 19.2327C157.804 19.2327 157.804 19.2327 157.804 19.3019C157.734 20.3396 156.962 21.1006 155.909 21.1006C155.347 21.1006 154.856 20.8239 154.505 20.478C154.996 21.3773 155.909 22 156.962 22C157.172 22 157.383 22 157.594 21.9308C157.664 21.9308 157.734 21.9308 157.804 21.8616C158.647 21.5849 159.349 20.9623 159.629 20.1321C159.7 19.9245 159.77 19.6478 159.77 19.4402V19.3711C159.7 19.3019 159.7 19.2327 159.7 19.1635C159.7 19.2327 159.7 19.2327 159.7 19.1635Z" fill="#13A1DB"/>
<path d="M159.489 10.1006C159.489 10.1006 159.419 10.1006 159.489 10.1006C159.419 10.0315 159.349 9.96228 159.278 9.96228C159.349 9.96228 159.419 10.0315 159.489 10.1006Z" fill="#58595B"/>
<path d="M162.227 8.37108C162.016 7.67925 161.384 7.12579 160.612 7.12579C159.84 7.12579 159.138 7.67925 158.997 8.37108C158.927 8.50944 158.927 8.64781 158.927 8.78617C158.927 9.20127 159.068 9.61636 159.348 9.89309C159.419 9.96227 159.489 10.0315 159.559 10.0315C159.84 10.239 160.261 10.4465 160.612 10.4465C161.103 10.4465 161.595 10.239 161.876 9.89309C162.156 9.61636 162.297 9.20127 162.297 8.78617C162.297 8.64781 162.227 8.50944 162.227 8.37108Z" fill="#13A1DB"/>
<path d="M159.419 11C159.419 11 159.349 10.9308 159.419 11C159.349 10.9308 159.349 10.9308 159.349 10.9308C159.419 10.9308 159.419 11 159.419 11Z" fill="#6D6E70"/>
<path d="M158.647 7.54087C158.647 7.95596 158.506 8.37106 158.225 8.64779C157.945 8.9937 157.453 9.20125 156.962 9.20125C156.47 9.20125 156.049 8.9937 155.698 8.64779C155.417 8.37106 155.277 7.95596 155.277 7.54087C155.277 6.6415 156.049 5.88049 156.962 5.88049C157.874 5.88049 158.647 6.6415 158.647 7.54087Z" fill="#13A1DB"/>
<path d="M157.804 15.0126V16.5346C157.804 16.6038 157.804 16.6038 157.804 16.673C157.874 17.8491 158.646 18.8176 159.699 19.1635C159.98 19.2327 160.261 19.3019 160.542 19.3019C160.752 19.3019 160.963 19.3019 161.174 19.2327C161.244 19.2327 161.314 19.2327 161.384 19.1635C162.227 18.8868 162.929 18.2641 163.209 17.434C163.28 17.2264 163.35 16.9497 163.35 16.7421V16.673V16.6038V15.0818C163.35 14.8742 163.28 14.6667 163.209 14.5283C163.139 14.3899 162.999 14.2516 162.788 14.1824C162.648 14.1132 162.507 14.1132 162.367 14.1132C162.227 14.1132 162.086 14.1132 161.946 14.1824C161.805 14.2516 161.665 14.3899 161.525 14.5283C161.384 14.6667 161.384 14.8742 161.384 15.0818V16.1887V16.5346C161.384 16.5346 161.384 16.5346 161.384 16.6038C161.384 16.6038 161.384 16.6038 161.384 16.673C161.384 17.088 160.963 17.434 160.542 17.434C160.05 17.434 159.699 17.088 159.699 16.6038V16.2579V15.1509V14.044V13.6981V13.2138V12.4528C159.699 12.4528 159.699 12.4528 159.699 12.3836C159.699 11.9685 159.559 11.5535 159.419 11.2075L159.348 11.1384C158.997 10.7924 158.506 10.5849 158.015 10.5849C157.945 10.5849 157.874 10.5849 157.874 10.5849C156.892 10.6541 156.119 11.4843 156.119 12.4528C156.119 11.9685 156.47 11.6226 156.962 11.6226C157.383 11.6226 157.804 11.9685 157.804 12.3836C157.804 12.3836 157.804 12.3836 157.804 12.4528C157.804 12.4528 157.804 12.4528 157.804 12.522V14.3207V15.2893" fill="#0390CB"/>
<path d="M166.719 8.57861L162.858 4.77358L162.718 4.63521L160.05 2.00628L159.98 1.9371C159.84 1.86792 159.629 1.86792 159.489 1.79874C159.278 1.72955 158.998 1.72955 158.787 1.72955C158.225 1.72955 157.734 1.79874 157.243 2.00628C157.172 2.00628 157.032 2.07547 156.962 2.14465C156.541 2.35219 156.119 2.62892 155.839 2.90565C156.119 2.62892 156.541 2.49056 156.962 2.49056C157.383 2.49056 157.804 2.62892 158.155 2.90565L158.225 2.97484L159.208 3.94339L162.648 7.33333L162.718 7.40251L165.245 9.89307C165.456 10.1006 165.666 10.1698 165.947 10.1698C166.228 10.1698 166.438 10.1006 166.649 9.89307L166.719 9.82389C166.86 9.61635 167 9.4088 167 9.13207C167 8.9937 166.93 8.78616 166.719 8.57861Z" fill="#0390CB"/>
<path d="M156.962 20.0629C156.47 20.0629 156.119 19.717 156.119 19.2327V18.8868V17.7799V17.4339V16.6038C156.119 16.8805 156.049 17.088 155.979 17.2956C155.698 18.1258 155.066 18.7484 154.224 19.0251C154.224 19.0943 154.224 19.0943 154.224 19.1635C154.224 19.5786 154.365 20.0629 154.505 20.4088C154.856 20.8239 155.347 21.0314 155.909 21.0314C156.962 21.0314 157.804 20.2012 157.804 19.2327C157.734 19.717 157.383 20.0629 156.962 20.0629Z" fill="#0390CB"/>
<path d="M158.226 9.75471C158.085 9.61635 158.015 9.4088 158.015 9.20126C158.015 9.13207 158.015 9.13207 158.015 9.06289C158.015 8.92453 158.085 8.71698 158.226 8.6478C157.945 8.99371 157.453 9.20126 156.962 9.20126C156.471 9.20126 156.049 8.99371 155.698 8.6478C155.769 8.78616 155.839 8.92453 155.909 9.06289C155.909 9.13207 155.909 9.13207 155.909 9.20126C155.909 9.4088 155.839 9.61635 155.698 9.75471C155.628 9.8239 155.558 9.89308 155.488 9.89308C155.558 9.8239 155.628 9.8239 155.698 9.75471C155.909 9.61635 156.19 9.54717 156.471 9.47798C156.611 9.47798 156.751 9.4088 156.892 9.4088C157.032 9.4088 157.173 9.4088 157.313 9.47798C157.594 9.54717 157.804 9.61635 158.015 9.68553C158.155 9.75471 158.155 9.75471 158.226 9.75471C158.226 9.8239 158.296 9.89308 158.366 9.89308C158.296 9.8239 158.226 9.8239 158.226 9.75471Z" fill="#008CC5"/>
<path d="M154.435 10.1006C154.435 10.0314 154.505 9.96225 154.575 9.89307C154.505 9.96225 154.435 10.0314 154.435 10.1006C154.084 10.3082 153.733 10.4465 153.312 10.4465C152.82 10.4465 152.399 10.239 152.048 9.89307C152.189 10.0314 152.259 10.239 152.259 10.4465C152.259 10.7233 152.118 11 151.908 11.1383C152.329 10.8616 152.82 10.7233 153.312 10.7233C153.733 10.7233 154.084 10.7924 154.435 11C154.435 11 154.435 10.9308 154.505 10.9308C154.435 10.7924 154.365 10.6541 154.365 10.4465C154.365 10.3082 154.365 10.1698 154.435 10.1006Z" fill="#008CC5"/>
<path d="M154.926 8.37108C154.715 7.67925 154.084 7.12579 153.311 7.12579C152.539 7.12579 151.837 7.67925 151.697 8.37108C151.697 8.50944 151.627 8.64781 151.627 8.78617C151.627 9.20127 151.767 9.61636 152.048 9.89309C152.329 10.239 152.82 10.4465 153.311 10.4465C153.733 10.4465 154.084 10.3082 154.364 10.0315C154.435 9.96227 154.505 9.89309 154.575 9.82391C154.856 9.54718 154.996 9.13208 154.996 8.71699C154.996 8.64781 154.996 8.50944 154.926 8.37108Z" fill="#13A1DB"/>
<path d="M153.311 10.7924C152.82 10.7924 152.329 10.9308 151.907 11.2075C151.135 11.6918 150.574 12.522 150.574 13.5597V15.0818C150.574 14.8742 150.644 14.6667 150.714 14.5283C150.855 14.2516 151.206 14.1132 151.486 14.1132C151.627 14.1132 151.767 14.1132 151.907 14.1824C152.258 14.3208 152.469 14.6667 152.469 15.0818V13.9748V13.6289C152.469 13.1447 152.82 12.7987 153.311 12.7987C153.733 12.7987 154.154 13.1447 154.154 13.5597V12.3145C154.154 11.8994 154.294 11.4151 154.435 11.0692C154.084 10.8616 153.733 10.7924 153.311 10.7924Z" fill="#0390CB"/>
<path d="M158.717 10.1698C158.647 10.1006 158.506 10.0315 158.366 9.96227C158.296 9.89309 158.225 9.89309 158.155 9.82391C158.155 9.82391 158.155 9.82391 158.085 9.82391C157.874 9.68554 157.594 9.61636 157.383 9.61636C157.243 9.61636 157.102 9.54718 156.962 9.54718C156.821 9.54718 156.681 9.54718 156.541 9.61636C156.26 9.68554 155.979 9.75473 155.768 9.89309C155.698 9.96227 155.628 9.96227 155.558 10.0315C155.417 10.1006 155.347 10.1698 155.207 10.239C154.926 10.4466 154.715 10.7233 154.575 11C154.575 11 154.575 11.0692 154.505 11.0692C154.294 11.4151 154.224 11.8302 154.224 12.3145V13.5598C154.224 13.5598 154.224 13.5598 154.224 13.6289C154.224 13.6981 154.224 13.6289 154.224 13.6981V14.044V15.151V16.2579V16.6038C154.224 16.6038 154.224 16.6038 154.224 16.673C154.224 16.673 154.224 16.673 154.224 16.7421C154.224 17.1572 153.803 17.5032 153.382 17.5032C152.89 17.5032 152.539 17.1572 152.539 16.673V16.3271V15.2201C152.539 14.805 152.329 14.5283 151.978 14.3208C151.837 14.2516 151.697 14.2516 151.557 14.2516C151.206 14.2516 150.925 14.3899 150.784 14.6667C150.644 14.805 150.644 15.0126 150.644 15.2201V16.7421C150.644 18.2642 151.908 19.5094 153.452 19.5094C153.663 19.5094 153.873 19.5094 154.084 19.4403C154.154 19.4403 154.224 19.4403 154.224 19.3711C155.066 19.0943 155.768 18.4717 155.979 17.6415C156.049 17.434 156.119 17.1572 156.119 16.9497V16.8805V16.8113V15.3585V13.8365V12.5912C156.119 11.6227 156.892 10.7925 157.874 10.7233C157.945 10.7233 158.015 10.7233 158.015 10.7233C158.576 10.7233 159.068 10.9308 159.349 11.2767C159.208 10.6541 158.998 10.3774 158.717 10.1698Z" fill="#13A1DB"/>
<path d="M158.787 0.761006C158.647 0.622642 158.506 0.484277 158.296 0.345912C157.874 0.138365 157.453 0 156.962 0C156.47 0 155.979 0.138365 155.628 0.345912C155.488 0.415094 155.347 0.553459 155.207 0.622642L154.996 0.830189L153.943 1.86792L153.873 1.93711L151.206 4.56604L151.065 4.7044L147.275 8.44025L147.204 8.50943C147.064 8.71698 146.924 8.92453 146.924 9.20126C146.924 9.47799 146.994 9.68553 147.204 9.8239L147.275 9.89308C147.485 10.0314 147.696 10.1698 147.977 10.1698C148.257 10.1698 148.538 10.0314 148.679 9.89308L151.206 7.40252L151.276 7.33333L154.716 3.9434L155.628 3.04403L155.698 2.97484C155.698 2.97484 155.698 2.90566 155.768 2.90566C155.768 2.90566 155.768 2.90566 155.839 2.83648C156.19 2.49057 156.541 2.28302 156.962 2.07547C157.032 2.00629 157.102 2.00629 157.243 1.93711C157.734 1.72956 158.225 1.66038 158.787 1.66038C158.998 1.66038 159.278 1.66038 159.489 1.72956C159.629 1.72956 159.84 1.79874 159.98 1.86792L158.787 0.761006Z" fill="#13A1DB"/>
</svg>
