<svg width="159" height="32" viewBox="0 0 159 32" fill="none" xmlns="http://www.w3.org/2000/svg">
<path d="M0.117371 15.2873L6.87534 8.57874V21.9678L0.117371 15.2873Z" fill="#FFD000"/>
<path d="M14.6189 23.1138V29.6267L7.72009 22.7784V16.2655L14.6189 23.1138Z" fill="#FFD000"/>
<path d="M8.3114 7.15313L14.6188 0.891846V7.15313H8.3114Z" fill="#FFD000"/>
<path d="M14.6189 7.9917H7.72009V14.84H14.6189V7.9917Z" fill="#FFD000"/>
<path d="M8.3114 15.6785H14.6188V21.9398L8.3114 15.6785Z" fill="#FFD000"/>
<path d="M29.5427 0.304871L15.4636 14.281V0.304871H29.5427Z" fill="#FFD000"/>
<path d="M15.4636 30.2137V16.2655L29.5145 30.2137H15.4636Z" fill="#FFD000"/>
<path d="M37.5396 26.6078L36.9201 27.2228C36.6385 26.9153 36.2725 26.7755 35.8501 26.7755C35.484 26.7755 35.1743 26.8874 34.9209 27.1389C34.6674 27.3905 34.5548 27.698 34.5548 28.0613C34.5548 28.4247 34.6674 28.7322 34.9209 28.9838C35.1743 29.2353 35.484 29.3471 35.8501 29.3471C36.2725 29.3471 36.6385 29.2074 36.9201 28.8999L37.5396 29.5149C37.089 29.99 36.5259 30.2137 35.8501 30.2137C35.2025 30.2137 34.6674 30.018 34.2169 29.5987C33.7664 29.1794 33.5693 28.6763 33.5693 28.0334C33.5693 27.3905 33.7945 26.9153 34.2169 26.496C34.6674 26.0767 35.2025 25.8811 35.8501 25.8811C36.5259 25.909 37.089 26.1326 37.5396 26.6078Z" fill="#0067B1"/>
<path d="M38.6097 28.0893C38.6097 27.4744 38.8349 26.9712 39.2855 26.552C39.736 26.1327 40.271 25.937 40.9187 25.937C41.5663 25.937 42.1013 26.1606 42.5518 26.552C43.0024 26.9712 43.2276 27.4744 43.2276 28.0893C43.2276 28.7043 43.0024 29.2074 42.5518 29.6267C42.1013 30.046 41.5663 30.2416 40.9187 30.2416C40.271 30.2416 39.736 30.018 39.2855 29.6267C38.8349 29.2074 38.6097 28.7043 38.6097 28.0893ZM41.8479 29.0118C42.1013 28.7602 42.2139 28.4527 42.2139 28.0893C42.2139 27.726 42.1013 27.4185 41.8479 27.1669C41.5944 26.9153 41.2847 26.8035 40.9187 26.8035C40.5526 26.8035 40.2429 26.9153 39.9894 27.1669C39.736 27.4185 39.6234 27.726 39.6234 28.0893C39.6234 28.4527 39.736 28.7602 39.9894 29.0118C40.2429 29.2633 40.5526 29.3751 40.9187 29.3751C41.2847 29.3751 41.5944 29.2354 41.8479 29.0118Z" fill="#0067B1"/>
<path d="M44.6354 30.1298V26.0488H45.621V26.6358C45.8181 26.2445 46.2968 25.9649 46.8881 25.9649C47.8736 25.9649 48.465 26.5799 48.465 27.6141V28.8999C48.465 29.2074 48.5213 29.3192 48.7465 29.3192C48.8029 29.3192 48.8592 29.3192 48.8873 29.2912V30.1019C48.7747 30.1298 48.6339 30.1578 48.465 30.1578C47.8173 30.1578 47.4794 29.7944 47.4794 29.0956V27.7259C47.4794 27.1669 47.1415 26.8035 46.6065 26.8035C46.0433 26.8035 45.6491 27.1948 45.6491 27.7539V30.1019H44.6354V30.1298Z" fill="#0067B1"/>
<path d="M52.914 26.9153H52.379V26.0208H52.914V24.4555H53.9277V26.0208H54.8569V26.9153H53.9277V28.7322C53.9277 29.1794 54.0966 29.3471 54.4627 29.3471C54.5753 29.3471 54.7161 29.3471 54.8006 29.3192V30.1857C54.6598 30.2137 54.4908 30.2416 54.2937 30.2416C53.3927 30.2416 52.9421 29.7664 52.9421 28.844V26.9153H52.914Z" fill="#0067B1"/>
<path d="M55.9551 28.0893C55.9551 27.4744 56.1803 26.9712 56.6309 26.552C57.0814 26.1327 57.6164 25.937 58.264 25.937C58.9117 25.937 59.4467 26.1606 59.8972 26.552C60.3478 26.9712 60.573 27.4744 60.573 28.0893C60.573 28.7043 60.3478 29.2074 59.8972 29.6267C59.4467 30.046 58.9117 30.2416 58.264 30.2416C57.6164 30.2416 57.0814 30.018 56.6309 29.6267C56.1803 29.2074 55.9551 28.7043 55.9551 28.0893ZM59.1651 29.0118C59.4185 28.7602 59.5312 28.4527 59.5312 28.0893C59.5312 27.726 59.4185 27.4185 59.1651 27.1669C58.9117 26.9153 58.6019 26.8035 58.2359 26.8035C57.8698 26.8035 57.5601 26.9153 57.3067 27.1669C57.0532 27.4185 56.9406 27.726 56.9406 28.0893C56.9406 28.4527 57.0532 28.7602 57.3067 29.0118C57.5601 29.2633 57.8698 29.3751 58.2359 29.3751C58.6019 29.3751 58.9117 29.2354 59.1651 29.0118Z" fill="#0067B1"/>
<path d="M65.2191 26.6358V24.4835H66.2328V28.9279C66.2328 29.2912 66.3173 29.403 66.5425 29.403C66.5989 29.403 66.6833 29.403 66.7397 29.3751V30.1577C66.627 30.1857 66.4581 30.2137 66.2328 30.2137C65.9794 30.2137 65.8104 30.1857 65.6415 30.0739C65.4444 29.9621 65.3317 29.7944 65.3036 29.5708C65.022 29.99 64.5152 30.2137 63.8675 30.2137C63.2762 30.2137 62.7694 30.018 62.3751 29.5987C61.9809 29.1794 61.7838 28.6763 61.7838 28.0613C61.7838 27.4464 61.9809 26.9433 62.3751 26.5519C62.7975 26.1326 63.2762 25.937 63.8675 25.937C64.5715 25.937 65.0783 26.2444 65.2191 26.6358ZM64.9375 28.9838C65.191 28.7601 65.3036 28.4527 65.3036 28.0893C65.3036 27.7259 65.191 27.4184 64.9375 27.1948C64.6841 26.9712 64.3744 26.8314 64.0365 26.8314C63.6704 26.8314 63.3888 26.9432 63.1354 27.1948C62.9101 27.4184 62.7975 27.7259 62.7975 28.0893C62.7975 28.4527 62.9101 28.7601 63.1354 28.9838C63.3888 29.2074 63.6704 29.3471 64.0365 29.3471C64.3744 29.3471 64.6841 29.2074 64.9375 28.9838Z" fill="#0067B1"/>
<path d="M67.7534 28.0893C67.7534 27.4744 67.9786 26.9712 68.4292 26.552C68.8797 26.1327 69.4147 25.937 70.0623 25.937C70.71 25.937 71.245 26.1606 71.6955 26.552C72.146 26.9712 72.3713 27.4744 72.3713 28.0893C72.3713 28.7043 72.146 29.2074 71.6955 29.6267C71.245 30.046 70.71 30.2416 70.0623 30.2416C69.4147 30.2416 68.8797 30.018 68.4292 29.6267C67.9786 29.2074 67.7534 28.7043 67.7534 28.0893ZM70.9634 29.0118C71.2168 28.7602 71.3294 28.4527 71.3294 28.0893C71.3294 27.726 71.2168 27.4185 70.9634 27.1669C70.71 26.9153 70.4002 26.8035 70.0342 26.8035C69.6681 26.8035 69.3584 26.9153 69.105 27.1669C68.8515 27.4185 68.7389 27.726 68.7389 28.0893C68.7389 28.4527 68.8515 28.7602 69.105 29.0118C69.3584 29.2633 69.6681 29.3751 70.0342 29.3751C70.4002 29.3751 70.71 29.2354 70.9634 29.0118Z" fill="#0067B1"/>
<path d="M76.2572 24.4555H77.2709V28.7881C77.2709 29.1794 77.4117 29.3471 77.7777 29.3471C77.8904 29.3471 78.003 29.3471 78.0875 29.3192V30.1857C77.9749 30.2137 77.8059 30.2416 77.6088 30.2416C76.7359 30.2416 76.2854 29.7944 76.2854 28.9279V24.4555H76.2572Z" fill="#0067B1"/>
<path d="M79.073 28.0893C79.073 27.4744 79.2983 26.9712 79.7488 26.552C80.1993 26.1327 80.7343 25.937 81.382 25.937C82.0296 25.937 82.5646 26.1606 83.0151 26.552C83.4657 26.9712 83.6909 27.4744 83.6909 28.0893C83.6909 28.7043 83.4657 29.2074 83.0151 29.6267C82.5646 30.046 82.0296 30.2416 81.382 30.2416C80.7343 30.2416 80.1993 30.018 79.7488 29.6267C79.2983 29.2074 79.073 28.7043 79.073 28.0893ZM82.3112 29.0118C82.5646 28.7602 82.6772 28.4527 82.6772 28.0893C82.6772 27.726 82.5646 27.4185 82.3112 27.1669C82.0578 26.9153 81.748 26.8035 81.382 26.8035C81.0159 26.8035 80.7062 26.9153 80.4527 27.1669C80.1993 27.4185 80.0867 27.726 80.0867 28.0893C80.0867 28.4527 80.1993 28.7602 80.4527 29.0118C80.7062 29.2633 81.0159 29.3751 81.382 29.3751C81.748 29.3751 82.0578 29.2354 82.3112 29.0118Z" fill="#0067B1"/>
<path d="M91.8004 31.6952H90.7867V29.5428C90.6459 29.9342 90.1391 30.2137 89.4352 30.2137C88.8438 30.2137 88.337 30.018 87.9428 29.5987C87.5485 29.1795 87.3514 28.6763 87.3514 28.0614C87.3514 27.4464 87.5485 26.9433 87.9428 26.552C88.3651 26.1327 88.8438 25.937 89.4352 25.937C90.1391 25.937 90.6459 26.2165 90.7867 26.6079V26.0209H91.8004V31.6952ZM88.703 27.1949C88.4778 27.4185 88.3651 27.726 88.3651 28.0893C88.3651 28.4527 88.4778 28.7602 88.703 28.9838C88.9565 29.2074 89.238 29.3472 89.6041 29.3472C89.9702 29.3472 90.2799 29.2354 90.5052 28.9838C90.7586 28.7602 90.8712 28.4527 90.8712 28.0893C90.8712 27.726 90.7586 27.4185 90.5052 27.1949C90.2517 26.9712 89.942 26.8315 89.6041 26.8315C89.238 26.8315 88.9283 26.9433 88.703 27.1949Z" fill="#0067B1"/>
<path d="M93.321 26.0488H94.3347V28.4527C94.3347 29.0118 94.6444 29.3751 95.1794 29.3751C95.7144 29.3751 96.1086 28.9838 96.1086 28.4248V26.0768H97.1223V28.9279C97.1223 29.2913 97.2068 29.4031 97.4321 29.4031C97.4884 29.4031 97.5729 29.4031 97.6292 29.3751V30.1858C97.5165 30.2137 97.3476 30.2417 97.1223 30.2417C96.8689 30.2417 96.6718 30.1857 96.5029 30.0739C96.3339 29.9621 96.2494 29.8224 96.1931 29.6547C95.9397 30.046 95.5173 30.2696 94.926 30.2696C93.9123 30.2696 93.321 29.6547 93.321 28.6204V26.0488Z" fill="#0067B1"/>
<path d="M98.6992 28.0893C98.6992 27.4464 98.8963 26.9153 99.3187 26.524C99.7411 26.1327 100.276 25.937 100.896 25.937C101.515 25.937 101.994 26.1327 102.388 26.524C102.782 26.9153 102.979 27.4185 102.979 28.0055C102.979 28.1173 102.979 28.2291 102.951 28.3409H99.6848C99.7129 28.9838 100.22 29.4031 100.952 29.4031C101.374 29.4031 101.768 29.2354 102.078 28.9279L102.67 29.4869C102.191 29.9621 101.6 30.2137 100.896 30.2137C100.248 30.2137 99.6848 30.018 99.2906 29.6267C98.8682 29.2354 98.6711 28.7322 98.6711 28.0893H98.6992ZM101.966 27.6421C101.966 27.3905 101.853 27.1949 101.656 27.0271C101.459 26.8594 101.205 26.7476 100.924 26.7476C100.614 26.7476 100.332 26.8315 100.107 26.9992C99.8819 27.1669 99.7692 27.3905 99.7411 27.6421H101.966Z" fill="#0067B1"/>
<path d="M107.09 26.9153H106.555V26.0208H107.09V24.4555H108.104V26.0208H109.033V26.9153H108.104V28.7322C108.104 29.1794 108.273 29.3471 108.639 29.3471C108.752 29.3471 108.892 29.3471 108.977 29.3192V30.1857C108.836 30.2137 108.667 30.2416 108.47 30.2416C107.569 30.2416 107.119 29.7664 107.119 28.844V26.9153H107.09Z" fill="#0067B1"/>
<path d="M110.103 28.0893C110.103 27.4464 110.3 26.9153 110.723 26.524C111.145 26.1327 111.68 25.937 112.3 25.937C112.919 25.937 113.426 26.1327 113.792 26.524C114.186 26.9153 114.383 27.4185 114.383 28.0055C114.383 28.1173 114.383 28.2291 114.355 28.3409H111.089C111.117 28.9838 111.624 29.4031 112.356 29.4031C112.778 29.4031 113.173 29.2354 113.482 28.9279L114.074 29.4869C113.595 29.9621 113.004 30.2137 112.3 30.2137C111.652 30.2137 111.089 30.018 110.695 29.6267C110.272 29.2354 110.075 28.7322 110.075 28.0893H110.103ZM113.37 27.6421C113.37 27.3905 113.257 27.1949 113.06 27.0271C112.863 26.8594 112.609 26.7476 112.328 26.7476C112.018 26.7476 111.736 26.8315 111.511 26.9992C111.286 27.1669 111.173 27.3905 111.145 27.6421H113.37Z" fill="#0067B1"/>
<path d="M118.382 30.1298V26.0488H119.367V26.6358C119.536 26.2445 119.959 25.9649 120.494 25.9649C121.057 25.9649 121.479 26.1886 121.676 26.6917C121.93 26.2165 122.38 25.9649 123.028 25.9649C123.929 25.9649 124.464 26.5799 124.464 27.6141V28.8999C124.464 29.2074 124.52 29.3192 124.746 29.3192C124.802 29.3192 124.858 29.3192 124.886 29.2912V30.1019C124.774 30.1298 124.633 30.1578 124.464 30.1578C123.816 30.1578 123.478 29.7944 123.478 29.0956V27.7259C123.478 27.1669 123.197 26.8035 122.746 26.8035C122.268 26.8035 121.93 27.1948 121.93 27.7539V30.1019H120.944V27.698C120.944 27.1389 120.663 26.7755 120.184 26.7755C119.705 26.7755 119.367 27.1669 119.367 27.7259V30.0739H118.382V30.1298Z" fill="#0067B1"/>
<path d="M126.013 28.0893C126.013 27.4464 126.21 26.9153 126.632 26.524C127.055 26.1327 127.59 25.937 128.209 25.937C128.828 25.937 129.307 26.1327 129.701 26.524C130.096 26.9153 130.293 27.4185 130.293 28.0055C130.293 28.1173 130.293 28.2291 130.265 28.3409H126.998C127.026 28.9838 127.533 29.4031 128.265 29.4031C128.688 29.4031 129.082 29.2354 129.392 28.9279L129.983 29.4869C129.504 29.9621 128.913 30.2137 128.209 30.2137C127.561 30.2137 126.998 30.018 126.604 29.6267C126.182 29.2354 125.984 28.7322 125.984 28.0893H126.013ZM129.279 27.6421C129.279 27.3905 129.166 27.1949 128.969 27.0271C128.772 26.8594 128.519 26.7476 128.237 26.7476C127.927 26.7476 127.646 26.8315 127.421 26.9992C127.195 27.1669 127.083 27.3905 127.055 27.6421H129.279Z" fill="#0067B1"/>
<path d="M131.673 30.1298V26.0488H132.658V26.6637C132.855 26.2445 133.306 25.9649 133.925 25.9649C134.038 25.9649 134.15 25.9649 134.235 25.9929V26.9433C134.122 26.9153 133.953 26.9153 133.813 26.9153C133.109 26.9153 132.686 27.3346 132.686 28.0054V30.1578H131.673V30.1298Z" fill="#0067B1"/>
<path d="M135.192 28.0893C135.192 27.4464 135.389 26.9153 135.812 26.524C136.234 26.1327 136.769 25.937 137.389 25.937C138.008 25.937 138.487 26.1327 138.881 26.524C139.275 26.9153 139.472 27.4185 139.472 28.0055C139.472 28.1173 139.472 28.2291 139.444 28.3409H136.178C136.206 28.9838 136.713 29.4031 137.445 29.4031C137.867 29.4031 138.261 29.2354 138.571 28.9279L139.163 29.4869C138.684 29.9621 138.093 30.2137 137.389 30.2137C136.741 30.2137 136.178 30.018 135.784 29.6267C135.361 29.2354 135.164 28.7322 135.164 28.0893H135.192ZM138.459 27.6421C138.459 27.3905 138.346 27.1949 138.149 27.0271C137.952 26.8594 137.698 26.7476 137.417 26.7476C137.107 26.7476 136.825 26.8315 136.6 26.9992C136.375 27.1669 136.262 27.3905 136.234 27.6421H138.459Z" fill="#0067B1"/>
<path d="M144.653 26.6078L144.034 27.2228C143.752 26.9153 143.386 26.7755 142.964 26.7755C142.598 26.7755 142.288 26.8874 142.035 27.1389C141.781 27.3905 141.669 27.698 141.669 28.0613C141.669 28.4247 141.781 28.7322 142.035 28.9838C142.288 29.2353 142.598 29.3471 142.964 29.3471C143.386 29.3471 143.752 29.2074 144.034 28.8999L144.653 29.5149C144.203 29.99 143.64 30.2137 142.964 30.2137C142.316 30.2137 141.781 30.018 141.331 29.5987C140.88 29.1794 140.683 28.6763 140.683 28.0334C140.683 27.3905 140.908 26.9153 141.331 26.496C141.781 26.0767 142.316 25.8811 142.964 25.8811C143.64 25.909 144.203 26.1326 144.653 26.6078Z" fill="#0067B1"/>
<path d="M145.723 28.0893C145.723 27.4464 145.921 26.9153 146.343 26.524C146.765 26.1327 147.3 25.937 147.92 25.937C148.539 25.937 149.018 26.1327 149.412 26.524C149.806 26.9153 150.003 27.4185 150.003 28.0055C150.003 28.1173 150.003 28.2291 149.975 28.3409H146.709C146.737 28.9838 147.244 29.4031 147.976 29.4031C148.398 29.4031 148.793 29.2354 149.102 28.9279L149.694 29.4869C149.215 29.9621 148.624 30.2137 147.92 30.2137C147.272 30.2137 146.709 30.018 146.315 29.6267C145.892 29.2354 145.695 28.7322 145.695 28.0893H145.723ZM148.99 27.6421C148.99 27.3905 148.877 27.1949 148.68 27.0271C148.483 26.8594 148.229 26.7476 147.948 26.7476C147.638 26.7476 147.357 26.8315 147.131 26.9992C146.906 27.1669 146.793 27.3905 146.765 27.6421H148.99Z" fill="#0067B1"/>
<path d="M151.693 28.872C151.89 29.1515 152.284 29.3751 152.791 29.3751C153.326 29.3751 153.551 29.1794 153.551 28.9279C153.551 28.7881 153.439 28.6763 153.298 28.5924C153.214 28.5365 153.045 28.4806 152.904 28.4247C152.791 28.3968 152.538 28.3129 152.397 28.257C151.721 28.0334 151.355 27.698 151.355 27.111C151.355 26.7196 151.496 26.4401 151.777 26.2165C152.059 25.9929 152.425 25.8811 152.847 25.8811C153.439 25.8811 153.889 26.0767 154.199 26.496L153.636 27.083C153.439 26.8594 153.185 26.7476 152.819 26.7476C152.51 26.7476 152.312 26.8874 152.312 27.111C152.312 27.2507 152.397 27.3346 152.51 27.3905C152.566 27.4184 152.735 27.5023 152.847 27.5303C152.96 27.5582 153.214 27.6421 153.382 27.698C154.171 27.9775 154.509 28.3409 154.509 28.9279C154.509 29.6826 153.917 30.2416 152.791 30.2416C151.946 30.2416 151.327 29.9341 151.045 29.403L151.693 28.872Z" fill="#0067B1"/>
<path d="M38.666 18.5576C37.1173 18.5576 35.8502 18.0545 34.8083 17.0482C33.7946 16.0419 33.2596 14.7841 33.2596 13.2467C33.2596 11.7093 33.7665 10.4515 34.8083 9.4452C35.8502 8.43892 37.1173 7.90783 38.6378 7.90783C40.3555 7.90783 41.8197 8.55073 42.9461 9.80858L45.5084 7.65626C43.7908 5.69961 41.341 4.49767 38.6378 4.49767C36.0754 4.49767 33.9354 5.30828 32.1615 6.98541C30.3875 8.66254 29.5146 10.7031 29.5146 13.1908C29.5146 15.6785 30.3875 17.747 32.1615 19.3962C33.9354 21.0454 36.0754 21.856 38.6378 21.856C41.341 21.856 43.7908 20.682 45.5366 18.6974L42.9742 16.5451C41.876 17.9147 40.44 18.5576 38.666 18.5576ZM52.4072 9.13773C50.4924 9.13773 48.8874 9.75268 47.564 11.0385C46.2406 12.2684 45.5929 13.8057 45.5929 15.6226C45.5929 17.4395 46.2406 18.9489 47.564 20.2068C48.9156 21.4367 50.5206 22.0796 52.4072 22.0796C54.2938 22.0796 55.8988 21.4646 57.2223 20.2068C58.5739 18.9489 59.2215 17.4116 59.2215 15.6226C59.2215 13.8057 58.5739 12.2963 57.2223 11.0385C55.8707 9.75268 54.2656 9.13773 52.4072 9.13773ZM54.6599 17.8588C54.0404 18.4738 53.3083 18.7812 52.4072 18.7812C51.5061 18.7812 50.7459 18.4738 50.1546 17.8588C49.5351 17.2439 49.2253 16.4892 49.2253 15.5947C49.2253 14.7002 49.5351 13.9455 50.1546 13.3585C50.774 12.7436 51.5061 12.4081 52.4072 12.4081C53.3083 12.4081 54.0685 12.7156 54.6599 13.3585C55.2793 13.9735 55.5891 14.7002 55.5891 15.5947C55.5891 16.4892 55.2793 17.2439 54.6599 17.8588ZM63.755 17.16V4.8331H60.1226V17.719C60.1226 20.5702 61.5023 21.9957 64.3181 21.9957H66.0358V18.7253C64.1492 18.7253 63.755 18.2501 63.755 17.16ZM90.2237 17.4116V9.50111H86.5913V16.3494C86.5913 17.7749 85.6621 18.7812 84.3386 18.7812C82.987 18.7812 82.2268 17.9147 82.2268 16.4891V9.50111H78.5943V16.9084C78.5943 20.067 80.312 21.9678 83.4094 21.9678C85.1834 21.9678 86.3942 21.3528 87.0136 20.1788C87.1826 20.682 87.5487 21.1292 88.1118 21.4926C88.6187 21.7721 89.2945 21.9398 90.111 21.9398C90.815 21.9398 91.35 21.856 91.7442 21.7442V18.6974C91.7442 18.6974 91.2937 18.6974 91.1247 18.6974C90.4489 18.6974 90.2237 18.3619 90.2237 17.4116ZM100.135 9.27749C98.2769 9.27749 96.8409 10.0322 96.4748 11.0944V4.8331H92.8424V21.6883H96.4748V20.095C96.8409 21.1572 98.2769 21.9119 100.135 21.9119C101.853 21.9119 103.317 21.2969 104.472 20.095C105.654 18.8651 106.218 17.3557 106.218 15.5947C106.218 13.8337 105.626 12.3243 104.472 11.1223C103.317 9.86449 101.853 9.27749 100.135 9.27749ZM101.684 17.7749C101.065 18.3619 100.332 18.6415 99.4596 18.6415C98.5585 18.6415 97.7982 18.3619 97.1788 17.7749C96.5593 17.16 96.2495 16.4332 96.2495 15.5947C96.2495 14.7561 96.5593 14.0294 97.1788 13.4424C97.7982 12.8274 98.5585 12.5479 99.4596 12.5479C100.332 12.5479 101.065 12.8274 101.684 13.4424C102.304 14.0294 102.585 14.7561 102.585 15.5947C102.585 16.4332 102.304 17.16 101.684 17.7749ZM114.074 14.4486C112.722 13.9735 111.68 13.8057 111.23 13.6101C110.835 13.4424 110.723 13.2746 110.723 12.9672C110.723 12.5199 111.173 12.1845 111.934 12.1845C112.976 12.1845 113.848 12.464 114.524 13.079L116.242 10.7031C115.144 9.66882 113.764 9.13773 112.018 9.13773C110.667 9.13773 109.568 9.47315 108.639 10.172C107.71 10.8428 107.259 11.8211 107.259 13.051C107.259 14.6723 108.217 15.7903 110.075 16.4332C110.441 16.5451 111.004 16.7128 111.737 16.8805C112.469 17.0482 112.947 17.2159 113.229 17.3557C113.511 17.4954 113.651 17.6911 113.651 17.9427C113.651 18.5856 113.032 18.921 111.793 18.921C110.413 18.921 109.118 18.3899 108.442 17.5793L106.358 19.8155C107.541 21.269 109.343 21.9957 111.708 21.9957C115.313 21.9957 117.115 20.3745 117.115 17.8868C117.087 16.2935 116.101 15.1195 114.074 14.4486ZM74.6803 14.4486C73.3288 13.9735 72.2869 13.8057 71.8364 13.6101C71.4422 13.4424 71.3295 13.2746 71.3295 12.9672C71.3295 12.5199 71.7801 12.1845 72.5403 12.1845C73.5822 12.1845 74.4551 12.464 75.1309 13.079L76.8485 10.7031C75.7504 9.66882 74.3706 9.13773 72.6248 9.13773C71.2732 9.13773 70.175 9.47315 69.2458 10.172C68.3166 10.8428 67.8661 11.8211 67.8661 13.051C67.8661 14.6723 68.8234 15.7903 70.6819 16.4332C71.0479 16.5451 71.6111 16.7128 72.3432 16.8805C73.0753 17.0482 73.554 17.2159 73.8356 17.3557C74.1172 17.4954 74.258 17.6911 74.258 17.9427C74.258 18.5856 73.6385 18.921 72.3995 18.921C71.0198 18.921 69.7245 18.3899 69.0487 17.5793L66.965 19.8155C68.1476 21.269 69.9498 21.9957 72.3151 21.9957C75.9193 21.9957 77.7214 20.3745 77.7214 17.8868C77.6933 16.2935 76.6796 15.1195 74.6803 14.4486ZM120.156 8.43892C121.31 8.43892 122.24 7.54446 122.24 6.39842C122.24 5.22443 121.31 4.32996 120.156 4.32996C119.001 4.32996 118.072 5.22443 118.072 6.39842C118.072 7.54446 119.001 8.43892 120.156 8.43892ZM122.324 18.5576C122.183 18.4458 122.099 18.306 122.042 18.1383C121.958 17.8868 121.958 17.6352 121.958 17.4116V9.50111H118.326V18.4738C118.326 20.7658 119.396 21.9119 121.536 21.9119H123.225V18.6974C123.169 18.6974 123.084 18.6974 123.028 18.6974C122.803 18.6974 122.521 18.6974 122.324 18.5576ZM137.079 17.4116V4.8331H133.447V11.0944C133.08 10.0322 131.644 9.27749 129.786 9.27749C128.068 9.27749 126.604 9.89244 125.421 11.1223C124.267 12.3243 123.704 13.8337 123.704 15.5947C123.704 17.3836 124.295 18.893 125.421 20.1229C126.604 21.3249 128.04 21.9398 129.786 21.9398C131.701 21.9398 133.052 21.3528 133.869 20.1788C134.038 20.682 134.404 21.1292 134.967 21.4926C135.474 21.7721 136.15 21.9398 136.966 21.9398C137.67 21.9398 138.599 21.9398 138.599 21.9398V18.6974C138.599 18.6974 138.149 18.6974 137.98 18.6974C137.332 18.6974 137.079 18.3619 137.079 17.4116ZM132.714 17.7749C132.095 18.3619 131.363 18.6415 130.462 18.6415C129.589 18.6415 128.857 18.3619 128.237 17.7749C127.618 17.16 127.336 16.4332 127.336 15.5947C127.336 14.7561 127.618 14.0294 128.237 13.4424C128.857 12.8274 129.589 12.5479 130.462 12.5479C131.363 12.5479 132.123 12.8274 132.714 13.4424C133.362 14.0294 133.672 14.7561 133.672 15.5947C133.672 16.4332 133.362 17.16 132.714 17.7749ZM156.564 11.0105C155.213 9.75268 153.608 9.10978 151.749 9.10978C149.835 9.10978 148.23 9.72472 146.906 11.0105C145.583 12.2404 144.935 13.7778 144.935 15.5947C144.935 17.4116 145.583 18.921 146.906 20.1788C148.258 21.4087 149.863 22.0516 151.749 22.0516C153.636 22.0516 155.241 21.4367 156.564 20.1788C157.916 18.921 158.564 17.3836 158.564 15.5947C158.564 13.7778 157.888 12.2404 156.564 11.0105ZM154.002 17.8588C153.383 18.4738 152.65 18.7812 151.749 18.7812C150.848 18.7812 150.088 18.4738 149.497 17.8588C148.877 17.2439 148.567 16.4892 148.567 15.5947C148.567 14.7002 148.877 13.9455 149.497 13.3585C150.116 12.7436 150.848 12.4081 151.749 12.4081C152.65 12.4081 153.411 12.7156 154.002 13.3585C154.621 13.9735 154.931 14.7002 154.931 15.5947C154.931 16.4892 154.593 17.2439 154.002 17.8588ZM141.134 8.43892C142.288 8.43892 143.217 7.54446 143.217 6.39842C143.217 5.22443 142.288 4.32996 141.134 4.32996C139.979 4.32996 139.05 5.22443 139.05 6.39842C139.078 7.54446 140.007 8.43892 141.134 8.43892ZM143.33 18.5576C143.189 18.4458 143.105 18.306 143.048 18.1383C142.964 17.8868 142.964 17.6352 142.964 17.4116V9.50111H139.332V18.4738C139.332 20.7658 140.402 21.9119 142.542 21.9119H144.231V18.6974C144.175 18.6974 144.09 18.6974 144.034 18.6974C143.809 18.6974 143.527 18.6974 143.33 18.5576Z" fill="#0067B1"/>
</svg>
