<svg width="154" height="36" viewBox="0 0 154 36" fill="none" xmlns="http://www.w3.org/2000/svg">
<path fill-rule="evenodd" clip-rule="evenodd" d="M0 15L6.7 8.30005V21.6L0 15Z" fill="#FFED00"/>
<path fill-rule="evenodd" clip-rule="evenodd" d="M14.4 22.8V29.3L7.5 22.5V15.9L14.4 22.8Z" fill="#FFED00"/>
<path fill-rule="evenodd" clip-rule="evenodd" d="M8.09998 6.79998L14.4 0.599976V6.79998H8.09998Z" fill="#FFED00"/>
<path d="M14.4 7.69995H7.5V14.5H14.4V7.69995Z" fill="#FFED00"/>
<path fill-rule="evenodd" clip-rule="evenodd" d="M8.09998 15.4H14.4V21.6L8.09998 15.4Z" fill="#FFED00"/>
<path fill-rule="evenodd" clip-rule="evenodd" d="M29.2 0L15.2 14V0H29.2Z" fill="#FFED00"/>
<path fill-rule="evenodd" clip-rule="evenodd" d="M15.2 29.9V15.9L29.2 29.9H15.2Z" fill="#FFED00"/>
<path fill-rule="evenodd" clip-rule="evenodd" d="M27.9 15.9C27.9 13.5 29 11.5 31.1 9.99995C33.1 8.59995 35.7 7.79995 38.9 7.69995V10.7C37.4 10.9 36.1 11.3 35 12.2C33.7 13.2 33 14.4 33 15.9C33 17.5 33.8 18.8 35.3 19.8C36.4 20.5 37.6 20.9 39 21.1V24.2C36 24.1 33.6 23.4 31.6 22.1C29 20.6 27.9 18.5 27.9 15.9Z" fill="white"/>
<path fill-rule="evenodd" clip-rule="evenodd" d="M46.3 24.2C44.3 24.2 42.7 23.6 41.5 22.3C40.4 21.1 39.9 19.6 39.9 17.6C39.9 15.7 40.4 14.1 41.5 12.9C42.6 11.6 44.2 11 46.3 11C48.4 11 50 11.6 51.1 12.9C52.2 14.1 52.7 15.6 52.7 17.6C52.7 19.5 52.1 21.1 51 22.3C49.9 23.6 48.3 24.2 46.3 24.2ZM46.3 13.6C45.1 13.6 44.6 14.9 44.6 17.6C44.6 20.2 45.2 21.5 46.3 21.5C46.9 21.5 47.3 21.2 47.5 20.5C47.7 19.9 47.9 18.9 47.9 17.6C47.9 15 47.4 13.6 46.3 13.6Z" fill="white"/>
<path d="M58.7 8H53.9V24H58.7V8Z" fill="white"/>
<path fill-rule="evenodd" clip-rule="evenodd" d="M64.9 24.2C63.4 24.2 61.9 24 60.4 23.7L60.5 21.1C61.4 21.4 62.6 21.6 63.9 21.6C65.7 21.6 66.6 21.1 66.6 20C66.6 19.5 66.2 19 65.5 18.6C64.4 18.1 63.4 17.6 62.3 17.1C61 16.4 60.4 15.5 60.4 14.4C60.4 13.5 60.9 12.8 61.9 12.2C63 11.5 64.5 11.2 66.4 11.2C67.3 11.2 68.4 11.3 69.7 11.6L69.8 14C69.1 13.8 68.3 13.7 67.5 13.7C66.1 13.7 65.4 14 65.4 14.6C65.4 15.1 65.8 15.5 66.6 15.9C67.2 16.1 67.8 16.4 68.5 16.6C69.4 16.9 70 17.3 70.4 17.8C71 18.4 71.2 19.1 71.2 20C71.2 21.3 70.6 22.4 69.5 23.1C68.6 23.8 67 24.2 64.9 24.2Z" fill="white"/>
<path fill-rule="evenodd" clip-rule="evenodd" d="M83.2 23.2999C82.1 23.8999 80.6 24.1999 78.8 24.1999C76.7 24.1999 75.1 23.7999 74 22.9999C72.9 22.2999 72.4 21.3999 72.4 20.1999V11.3999H77.2V19.5999C77.2 20.7999 77.7 21.2999 78.8 21.2999C80 21.2999 80.5 20.6999 80.5 19.5999V11.3999H85.2V23.8999L83.2 23.2999Z" fill="white"/>
<path fill-rule="evenodd" clip-rule="evenodd" d="M91.7 23.9H86.6V8H91.3V11.2C94.4 11.6 96.8 12.5 98.4 13.9C99.7 15.1 100.4 16.6 100.3 18.3C100.3 20.3 99.5 21.8 98.2 22.7C96.9 23.5 94.7 23.9 91.7 23.9ZM91.4 14.1V21.3C92.7 21.3 93.7 21.1 94.3 20.8C95.2 20.3 95.6 19.5 95.6 18.2C95.6 17.1 95.2 16.1 94.4 15.3C93.5 14.5 92.5 14.1 91.4 14.1Z" fill="white"/>
<path fill-rule="evenodd" clip-rule="evenodd" d="M105.5 24.2C104 24.2 102.5 24 101 23.7L101.1 21.1C102 21.4 103.2 21.6 104.5 21.6C106.3 21.6 107.2 21.1 107.2 20C107.2 19.5 106.9 19 106.2 18.6C105.1 18.1 104.1 17.6 103 17.1C101.7 16.4 101.1 15.5 101.1 14.4C101.1 13.5 101.6 12.8 102.6 12.2C103.7 11.5 105.2 11.2 107.1 11.2C108 11.2 109.1 11.3 110.4 11.6L110.5 14C109.8 13.8 109 13.7 108.2 13.7C106.8 13.7 106.1 14 106.1 14.6C106.1 15.1 106.5 15.5 107.3 15.9C107.9 16.1 108.5 16.4 109.2 16.6C110.1 16.9 110.7 17.3 111.1 17.8C111.7 18.4 111.9 19.1 111.9 20C111.9 21.3 111.3 22.4 110.2 23.1C109.1 23.8 107.5 24.2 105.5 24.2Z" fill="white"/>
<path fill-rule="evenodd" clip-rule="evenodd" d="M113.1 9.8V8H117.8V9.9H113.1V9.8ZM113.1 23.9V11.5H117.8V24H113.1V23.9Z" fill="white"/>
<path fill-rule="evenodd" clip-rule="evenodd" d="M127.9 23.9C124.9 23.9 122.7 23.5 121.4 22.6C120 21.7 119.3 20.3 119.3 18.2C119.3 16.5 119.9 15 121.2 13.8C122.8 12.4 125.1 11.5 128.3 11.1V8H133V24H127.9V23.9ZM128.3 14.1C127.2 14.1 126.2 14.5 125.4 15.4C124.6 16.2 124.2 17.2 124.2 18.3C124.2 19.6 124.6 20.4 125.5 20.9C126.1 21.2 127 21.4 128.4 21.4V14.1H128.3Z" fill="white"/>
<path fill-rule="evenodd" clip-rule="evenodd" d="M134.8 9.8V8H139.5V9.9H134.8V9.8ZM134.8 23.9V11.5H139.5V24H134.8V23.9Z" fill="white"/>
<path fill-rule="evenodd" clip-rule="evenodd" d="M147.4 24.2C145.4 24.2 143.8 23.6 142.6 22.3C141.5 21.1 140.9 19.6 140.9 17.6C140.9 15.7 141.4 14.1 142.5 12.9C143.6 11.6 145.2 11 147.3 11C149.4 11 151 11.6 152.1 12.9C153.2 14.1 153.7 15.6 153.7 17.6C153.7 19.5 153.1 21.1 152 22.3C151 23.6 149.4 24.2 147.4 24.2ZM147.4 13.6C146.2 13.6 145.7 14.9 145.7 17.6C145.7 20.2 146.3 21.5 147.4 21.5C148 21.5 148.4 21.2 148.6 20.5C148.8 19.9 149 18.9 149 17.6C149 15 148.5 13.6 147.4 13.6Z" fill="white"/>
<path d="M39 28.4C38.6 28.2 38.1 28 37.7 28C36.2 28 35.2 29.1 35.2 30.5C35.2 32 36.2999 33 37.5999 33C38.0999 33 38.7 32.9 39 32.7L39.0999 33.6C38.5999 33.8 37.9999 33.8 37.5999 33.8C35.5999 33.8 34.2 32.5 34.2 30.4C34.2 28.4 35.5999 27.1 37.5999 27.1C38.0999 27.1 38.6 27.2 39 27.4V28.4Z" fill="white"/>
<path d="M42.1999 29C43.5999 29 44.5999 30 44.5999 31.5C44.5999 32.8 43.5999 34 42.1999 34C40.7999 34 39.7999 32.9 39.7999 31.5C39.7999 30 40.6999 29 42.1999 29ZM42.1999 33.2C43.1999 33.2 43.6999 32.3 43.6999 31.4C43.6999 30.5 43.1999 29.6 42.1999 29.6C41.2999 29.6 40.6999 30.5 40.6999 31.4C40.6999 32.3 41.0999 33.2 42.1999 33.2Z" fill="white"/>
<path d="M45.7 29.1H46.5V29.8C46.8 29.3 47.4 28.9 48 28.9C49.2 28.9 49.7999 29.7 49.7999 30.9V33.7H49V31.3C49 30.2 48.8 29.7 48 29.6C47 29.6 46.5999 30.4 46.5999 31.5V33.7H45.7V29.1Z" fill="white"/>
<path d="M56.3999 29.8001H55.1999V32.4001C55.1999 32.9001 55.4999 33.2001 55.8999 33.2001C56.1999 33.2001 56.3999 33.1001 56.4999 33.0001V33.7001C56.2999 33.8001 55.9999 33.8001 55.7999 33.8001C54.8999 33.8001 54.3999 33.4001 54.3999 32.4001V29.7001H53.2999V29.0001H54.3999V28.0001L55.2999 27.7001V29.1001H56.4999V29.8001H56.3999Z" fill="white"/>
<path d="M59.5999 29C60.9999 29 62 30 62 31.5C62 32.8 60.9999 34 59.5999 34C58.1999 34 57.2 32.9 57.2 31.5C57.2 30 58.0999 29 59.5999 29ZM59.5999 33.2C60.5999 33.2 61.0999 32.3 61.0999 31.4C61.0999 30.5 60.5999 29.6 59.5999 29.6C58.6999 29.6 58.0999 30.5 58.0999 31.4C58.0999 32.3 58.4999 33.2 59.5999 33.2Z" fill="white"/>
<path d="M66.3999 33.1C66.1999 33.5 65.5999 33.9 64.7999 33.9C63.3999 33.9 62.7999 32.6 62.7999 31.4C62.7999 30.1 63.4999 29 64.7999 29C65.5999 29 66.0999 29.3 66.3999 29.8V26.9H67.2999V33.8H66.4999V33.1H66.3999ZM64.9999 33.2C65.9999 33.2 66.3999 32.2 66.3999 31.4C66.3999 30.5 65.8999 29.6 64.9999 29.6C64.0999 29.6 63.6999 30.5 63.6999 31.3C63.6999 32.2 64.0999 33.2 64.9999 33.2Z" fill="white"/>
<path d="M70.7999 29C72.1999 29 73.1999 30 73.1999 31.5C73.1999 32.8 72.1999 34 70.7999 34C69.3999 34 68.3999 32.9 68.3999 31.5C68.3999 30 69.3999 29 70.7999 29ZM70.7999 33.2C71.7999 33.2 72.2999 32.3 72.2999 31.4C72.2999 30.5 71.7999 29.6 70.7999 29.6C69.8999 29.6 69.2999 30.5 69.2999 31.4C69.3999 32.3 69.7999 33.2 70.7999 33.2Z" fill="white"/>
<path d="M77.1 26.9H78V33.8H77.1V26.9Z" fill="white"/>
<path d="M81.6 29C83 29 84 30 84 31.5C84 32.8 83 34 81.6 34C80.2 34 79.2 32.9 79.2 31.5C79.2 30 80.2 29 81.6 29ZM81.6 33.2C82.6 33.2 83.1 32.3 83.1 31.4C83.1 30.5 82.6 29.6 81.6 29.6C80.7 29.6 80.1 30.5 80.1 31.4C80.1 32.3 80.6 33.2 81.6 33.2Z" fill="white"/>
<path d="M91.8999 35.8H90.9999V33.2C90.6999 33.6 90.0999 33.9 89.3999 33.9C87.9999 33.9 87.3999 32.6 87.3999 31.4C87.3999 30.1 88.0999 29 89.3999 29C90.1999 29 90.7999 29.4 90.9999 29.8V29.1H91.7999V35.8H91.8999ZM89.5999 33.2C90.5999 33.2 90.9999 32.2 90.9999 31.4C90.9999 30.5 90.5999 29.6 89.5999 29.6C88.6999 29.6 88.2999 30.5 88.2999 31.3C88.2999 32.2 88.6999 33.2 89.5999 33.2Z" fill="white"/>
<path d="M97.4999 33.8001H96.6999V33.1001C96.3999 33.6001 95.7999 34.0001 95.1999 34.0001C93.9999 34.0001 93.3999 33.2001 93.3999 32.0001V29.2001H94.2999V31.6001C94.2999 32.7001 94.4999 33.2001 95.2999 33.3001C96.2999 33.3001 96.6999 32.5001 96.6999 31.4001V29.2001H97.5999V33.8001H97.4999Z" fill="white"/>
<path d="M102.6 33.6C102.3 33.7 101.9 33.9 101.1 33.9C99.4 33.9 98.7 32.9 98.7 31.4C98.7 30 99.6 29 100.9 29C102.5 29 103 30.1 103 31.7H99.6C99.6 32.6 100.3 33.3 101.1 33.3C101.7 33.3 102.3 33 102.6 32.8V33.6ZM102 31C102 30.3 101.6 29.7 100.8 29.7C99.9 29.7 99.6 30.4 99.5 31H102Z" fill="white"/>
<path d="M109.2 29.8001H108V32.4001C108 32.9001 108.3 33.2001 108.7 33.2001C109 33.2001 109.2 33.1001 109.3 33.0001V33.7001C109.1 33.8001 108.8 33.8001 108.6 33.8001C107.7 33.8001 107.2 33.4001 107.2 32.4001V29.7001H106V29.0001H107.1V28.0001L108 27.7001V29.1001H109.2V29.8001Z" fill="white"/>
<path d="M113.9 33.6C113.6 33.7 113.2 33.9 112.4 33.9C110.7 33.9 110 32.9 110 31.4C110 30 110.9 29 112.2 29C113.8 29 114.3 30.1 114.3 31.7H110.9C110.9 32.6 111.6 33.3 112.5 33.3C113.1 33.3 113.7 33 113.9 32.8V33.6ZM113.3 31C113.3 30.3 112.9 29.7 112.1 29.7C111.2 29.7 110.9 30.4 110.8 31H113.3Z" fill="white"/>
<path d="M117.9 29.1H118.7V29.8C119 29.3 119.5 29 120.2 29C120.7 29 121.3 29.3 121.5 29.9C121.8 29.2 122.5 29 123 29C124.2 29 124.6 29.8 124.6 30.8V33.8H123.7V31C123.7 30.4 123.6 29.7 122.9 29.7C122 29.7 121.7 30.6 121.7 31.4V33.8H120.8V31C120.8 30.4 120.7 29.7 120 29.7C119.1 29.7 118.8 30.6 118.8 31.4V33.8H117.9V29.1Z" fill="white"/>
<path d="M129.7 33.6C129.4 33.7 129 33.9 128.2 33.9C126.5 33.9 125.8 32.9 125.8 31.4C125.8 30 126.7 29 128 29C129.6 29 130.1 30.1 130.1 31.7H126.7C126.7 32.6 127.4 33.3 128.2 33.3C128.8 33.3 129.4 33 129.7 32.8V33.6ZM129.2 31C129.2 30.3 128.8 29.7 128 29.7C127.2 29.7 126.8 30.4 126.7 31H129.2Z" fill="white"/>
<path d="M131.3 29.1H132.1V29.8C132.3 29.3 132.8 29 133.3 29C133.6 29 133.7 29 133.9 29.1V29.9C133.7 29.8 133.6 29.8 133.4 29.8C132.6 29.8 132.1 30.5 132.1 31.7V33.8H131.2V29.1H131.3Z" fill="white"/>
<path d="M138.5 33.6C138.2 33.7 137.8 33.9 137 33.9C135.3 33.9 134.6 32.9 134.6 31.4C134.6 30 135.5 29 136.8 29C138.4 29 138.9 30.1 138.9 31.7H135.5C135.5 32.6 136.2 33.3 137 33.3C137.6 33.3 138.2 33 138.5 32.8V33.6ZM137.9 31C137.9 30.3 137.5 29.7 136.7 29.7C135.9 29.7 135.5 30.4 135.4 31H137.9Z" fill="white"/>
<path d="M143 29.9C142.7 29.8 142.3 29.7 142.1 29.7C141.1 29.7 140.6 30.6 140.6 31.5C140.6 32.3 141.1 33.3 142.2 33.3C142.5 33.3 142.9 33.2 143.1 33L143.2 33.8C142.8 34 142.4 34 142.1 34C140.7 34 139.7 32.9 139.7 31.5C139.7 30.1 140.7 29 142.1 29C142.4 29 142.9 29.1 143.1 29.2L143 29.9Z" fill="white"/>
<path d="M147.7 33.6C147.4 33.7 147 33.9 146.2 33.9C144.5 33.9 143.8 32.9 143.8 31.4C143.8 30 144.7 29 146 29C147.6 29 148.1 30.1 148.1 31.7H144.7C144.7 32.6 145.4 33.3 146.2 33.3C146.8 33.3 147.4 33 147.6 32.8V33.6H147.7ZM147.1 31C147.1 30.3 146.7 29.7 145.9 29.7C145.1 29.7 144.7 30.4 144.6 31H147.1Z" fill="white"/>
<path d="M148.8 32.9C149.1 33.1 149.6 33.2 149.9 33.2C150.3 33.2 150.8 33 150.8 32.5C150.8 31.6 148.8 31.7 148.8 30.4C148.8 29.4 149.5 29 150.5 29C150.9 29 151.2 29.1 151.6 29.2L151.5 30C151.3 29.9 150.8 29.8 150.6 29.8C150.2 29.8 149.8 30 149.8 30.4C149.8 31.4 151.8 31.1 151.8 32.6C151.8 33.6 151 34.1 150.2 34.1C149.8 34.1 149.3 34.1 148.9 33.8L148.8 32.9Z" fill="white"/>
</svg>
