<svg width="42" height="42" viewBox="0 0 42 42" fill="none" xmlns="http://www.w3.org/2000/svg">
<path fill-rule="evenodd" clip-rule="evenodd" d="M20.3337 32.6666C27.3293 32.6666 33.0003 26.9956 33.0003 19.9999C33.0003 13.0043 27.3293 7.33328 20.3337 7.33328C13.3381 7.33328 7.66699 13.0043 7.66699 19.9999C7.66699 26.9956 13.3381 32.6666 20.3337 32.6666Z" fill="#FFED00"/>
<rect x="2.33301" y="14" width="30.6667" height="21.3333" rx="1" stroke="#00005B" stroke-width="2" stroke-linecap="round" stroke-linejoin="round"/>
<path fill-rule="evenodd" clip-rule="evenodd" d="M5 5.66662C5 5.11434 5.44772 4.66663 6 4.66663H38.6667C39.2189 4.66663 39.6667 5.11434 39.6667 5.66663V29C39.6667 29.5522 39.2189 30 38.6667 30H33V15C33 14.4477 32.5523 14 32 14H5V5.66662Z" stroke="#00005B" stroke-width="2" stroke-linecap="round" stroke-linejoin="round"/>
<path d="M17.666 18V30" stroke="#00005B" stroke-width="1.26" stroke-linecap="round" stroke-linejoin="round"/>
<path d="M20.4441 20.6667H16.2775C15.2036 20.6667 14.333 21.5621 14.333 22.6667C14.333 23.7713 15.2036 24.6667 16.2775 24.6667H19.0552C20.1291 24.6667 20.9997 25.5621 20.9997 26.6667C20.9997 27.7713 20.1291 28.6667 19.0552 28.6667H14.333" stroke="#00005B" stroke-width="1.26" stroke-linecap="round" stroke-linejoin="round"/>
<path fill-rule="evenodd" clip-rule="evenodd" d="M26.3327 32.6666C27.8054 32.6666 28.9993 31.4727 28.9993 30C28.9993 28.5272 27.8054 27.3333 26.3327 27.3333C24.8599 27.3333 23.666 28.5272 23.666 30C23.666 31.4727 24.8599 32.6666 26.3327 32.6666Z" fill="#F2609E"/>
</svg>
