<svg width="47" height="37" viewBox="0 0 47 37" fill="none" xmlns="http://www.w3.org/2000/svg">
<path d="M26.7042 18.9041C26.5042 19.1041 26.4042 19.4041 26.4042 19.6041C26.4042 19.8041 26.5042 20.1041 26.7042 20.3041L34.4042 28.0041C34.6042 28.2041 34.8041 28.6041 34.8041 28.9041C34.8041 29.3041 34.7042 29.6041 34.4042 29.8041C33.9042 30.3041 33.0042 30.3041 32.5042 29.8041L23.2042 20.5041C22.8042 20.1041 22.1042 20.1041 21.7042 20.5041C21.5042 20.7041 21.4042 21.0041 21.4042 21.2041C21.4042 21.4041 21.5042 21.7041 21.7042 21.9041L29.4042 29.6041C29.6042 29.8041 29.8041 30.2041 29.8041 30.5041C29.8041 30.8041 29.7041 31.2041 29.4042 31.4041C28.9042 31.9041 28.1042 31.9041 27.5042 31.4041L26.0042 30.0041C25.4042 29.4041 24.6042 29.0041 23.7042 29.0041C23.7042 28.1041 23.3042 27.3041 22.7042 26.7041C22.1042 26.1041 21.3041 25.7041 20.4042 25.7041C20.4042 24.8041 20.0042 24.0041 19.4042 23.4041C18.7042 22.7041 17.8041 22.4041 16.8041 22.4041C16.7041 21.6041 16.4042 20.9041 15.8042 20.3041C15.2042 19.7041 14.3042 19.3041 13.4042 19.3041C12.5041 19.3041 11.7042 19.6041 11.0042 20.3041L10.3042 21.0041L8.50415 19.2041L14.7042 8.50406H17.8041C18.0041 8.50406 18.2042 8.50406 18.4042 8.50406L17.6042 9.30406C17.0042 9.90406 16.6042 10.8041 16.6042 11.7041C16.6042 12.6041 17.0042 13.4041 17.6042 14.1041C18.2042 14.7041 19.1042 15.1041 20.0042 15.1041C20.9042 15.1041 21.7042 14.8041 22.4042 14.1041L24.7042 11.8041L38.6041 25.7041C39.1041 26.2041 39.1041 27.0041 38.6041 27.6041C38.4041 27.8041 38.0042 28.0041 37.7042 28.0041C37.3042 28.0041 37.0042 27.9041 36.8041 27.6041L28.2042 19.0041C27.7042 18.5041 27.1042 18.5041 26.7042 18.9041Z" fill="#FFED00"/>
<path d="M22.3041 34.9041C21.9041 34.9041 21.6041 34.8041 21.4042 34.5041C21.1041 34.3041 21.0042 34.0041 21.0042 33.6041C21.0042 33.2041 21.1041 32.9041 21.4042 32.7041L22.7042 31.4041C22.9042 31.2041 23.3042 31.0041 23.6042 31.0041C24.0042 31.0041 24.3042 31.1041 24.5042 31.4041C25.0042 31.9041 25.0042 32.7041 24.5042 33.3041L23.2042 34.6041C23.0042 34.8041 22.6041 34.9041 22.3041 34.9041Z" fill="#FFED00"/>
<path d="M11.7041 22.504L12.5041 21.704C12.7041 21.504 13.1041 21.304 13.4041 21.304C13.8041 21.304 14.1041 21.404 14.3041 21.704C14.5041 21.904 14.7041 22.304 14.7041 22.604C14.7041 22.904 14.6041 23.304 14.3041 23.504L13.5041 24.304C13.0041 24.804 12.2041 24.804 11.6041 24.304C11.4041 24.104 11.2041 23.704 11.2041 23.404C11.3041 23.104 11.5041 22.804 11.7041 22.504Z" fill="#FFED00"/>
<path d="M14.704 26.1041L16.004 24.8041C16.204 24.6041 16.604 24.4041 16.904 24.4041C17.204 24.4041 17.604 24.5041 17.804 24.8041C18.004 25.0041 18.204 25.4041 18.204 25.7041C18.204 26.1041 18.104 26.4041 17.804 26.6041L16.504 27.9041C16.304 28.1041 15.904 28.3041 15.604 28.3041C15.204 28.3041 14.904 28.2041 14.704 27.9041C14.504 27.7041 14.304 27.3041 14.304 27.0041C14.404 26.7041 14.504 26.3041 14.704 26.1041Z" fill="#FFED00"/>
<path d="M18.1041 29.404L19.4041 28.104C19.6041 27.904 20.0041 27.704 20.3041 27.704C20.6041 27.704 21.0041 27.804 21.2041 28.104C21.4041 28.304 21.6041 28.704 21.6041 29.004C21.6041 29.304 21.5041 29.704 21.2041 29.904L19.9041 31.204C19.7041 31.404 19.3041 31.604 19.0041 31.604C18.6041 31.604 18.3041 31.504 18.1041 31.204C17.9041 31.004 17.7041 30.604 17.7041 30.304C17.7041 30.004 17.8041 29.604 18.1041 29.404Z" fill="#FFED00"/>
<path d="M32.304 10.2041C32.304 9.60406 31.804 9.20406 31.304 9.20406C30.704 9.20406 30.304 9.70406 30.304 10.2041C30.304 11.3041 29.704 12.3041 28.804 12.9041L25.404 9.50406C25.004 9.10406 24.304 9.10406 23.904 9.50406L20.804 12.6041C20.604 12.8041 20.204 13.0041 19.904 13.0041C19.504 13.0041 19.204 12.9041 19.004 12.6041C18.804 12.4041 18.604 12.0041 18.604 11.7041C18.604 11.3041 18.704 11.0041 19.004 10.8041L22.504 7.30406C23.004 6.80406 23.704 6.50406 24.504 6.50406H33.704L40.004 17.3041L36.604 20.7041L30.204 14.3041C31.504 13.4041 32.304 11.8041 32.304 10.2041Z" fill="#F2609E"/>
<path d="M46.104 12.2041L44.9041 10.1041C44.6041 9.60405 44.0041 9.40405 43.5041 9.70405C43.0041 10.0041 42.8041 10.6041 43.104 11.1041L44.3041 13.2041C44.3041 13.3041 44.3041 13.3041 44.3041 13.4041C44.3041 13.4041 44.3041 13.5041 44.2041 13.5041L41.0041 15.4041C40.9041 15.5041 40.8041 15.4041 40.7041 15.3041L34.3041 4.20405C34.2041 4.10405 34.3041 4.00405 34.4041 3.90405L37.604 2.10405C37.704 2.00405 37.8041 2.10405 37.9041 2.20405L39.0041 4.20405C39.104 4.40405 39.404 4.60405 39.604 4.70405C39.904 4.80405 40.1041 4.70405 40.4041 4.60405C40.6041 4.50405 40.8041 4.20405 40.9041 4.00405C41.0041 3.70405 40.904 3.50405 40.8041 3.20405L39.7041 1.20405C39.4041 0.704052 38.904 0.304052 38.3041 0.104052C37.7041 -0.0959482 37.104 0.00405183 36.604 0.304052L33.4041 2.10405C32.9041 2.40405 32.6041 2.80405 32.4041 3.30405H23.5041C22.2041 3.30405 21.0041 3.80405 20.1041 4.70405L19.2041 5.60405C18.4041 5.40405 17.604 5.30405 16.8041 5.30405H14.0041C13.8041 4.70405 13.5041 4.30405 13.0041 4.00405L9.80405 2.20405C9.30405 1.90405 8.70405 1.80405 8.10405 2.00405C7.50405 2.10405 7.00405 2.50405 6.70405 3.00405L0.304052 14.1041C0.00405183 14.6041 -0.0959482 15.2041 0.104052 15.8041C0.304052 16.4041 0.604052 16.9041 1.20405 17.2041L4.40405 19.0041C4.80405 19.3041 5.40405 19.4041 5.90405 19.3041L8.40405 21.8041C8.40405 22.0041 8.30405 22.2041 8.30405 22.4041C8.30405 23.3041 8.70405 24.104 9.30405 24.8041C9.90405 25.4041 10.6041 25.7041 11.4041 25.8041C11.4041 25.9041 11.4041 26.0041 11.4041 26.0041C11.4041 26.9041 11.8041 27.7041 12.4041 28.4041C13.0041 29.0041 13.8041 29.4041 14.7041 29.4041C14.7041 30.3041 15.1041 31.1041 15.7041 31.7041C16.3041 32.3041 17.1041 32.7041 18.0041 32.7041C18.0041 33.6041 18.4041 34.4041 19.0041 35.0041C19.6041 35.604 20.5041 36.0041 21.4041 36.0041C22.3041 36.0041 23.104 35.604 23.8041 35.0041L25.1041 33.7041C25.4041 33.4041 25.7041 33.0041 25.9041 32.5041C26.5041 32.9041 27.104 33.104 27.8041 33.104C28.7041 33.104 29.5041 32.704 30.2041 32.104C30.5041 31.8041 30.8041 31.3041 31.0041 30.9041C31.5041 31.2041 32.1041 31.4041 32.7041 31.4041C33.6041 31.4041 34.404 31.0041 35.104 30.4041C35.5041 30.0041 35.8041 29.4041 36.0041 28.8041C36.3041 28.9041 36.6041 28.9041 36.9041 28.9041C37.8041 28.9041 38.604 28.5041 39.3041 27.9041C40.604 26.6041 40.604 24.5041 39.3041 23.1041L37.3041 21.1041L41.0041 17.4041C41.5041 17.4041 41.904 17.3041 42.3041 17.1041L45.5041 15.3041C46.0041 15.0041 46.404 14.5041 46.604 13.9041C46.5041 13.4041 46.404 12.7041 46.104 12.2041ZM25.7041 17.9041C25.5041 18.1041 25.4041 18.4041 25.4041 18.6041C25.4041 18.8041 25.5041 19.104 25.7041 19.3041L33.4041 27.0041C33.6041 27.2041 33.8041 27.6041 33.8041 27.9041C33.8041 28.3041 33.7041 28.604 33.4041 28.8041C32.9041 29.3041 32.0041 29.3041 31.5041 28.8041L22.2041 19.5041C21.8041 19.1041 21.1041 19.1041 20.7041 19.5041C20.5041 19.7041 20.4041 20.0041 20.4041 20.2041C20.4041 20.4041 20.5041 20.7041 20.7041 20.9041L28.4041 28.6041C28.6041 28.8041 28.8041 29.2041 28.8041 29.5041C28.8041 29.8041 28.7041 30.2041 28.4041 30.4041C27.9041 30.9041 27.1041 30.9041 26.5041 30.4041L25.0041 29.0041C24.4041 28.4041 23.6041 28.0041 22.7041 28.0041C22.7041 27.1041 22.3041 26.3041 21.7041 25.7041C21.1041 25.1041 20.3041 24.7041 19.4041 24.7041C19.4041 23.8041 19.0041 23.0041 18.4041 22.4041C17.7041 21.7041 16.8041 21.4041 15.8041 21.4041C15.7041 20.6041 15.4041 19.9041 14.8041 19.3041C14.2041 18.7041 13.3041 18.3041 12.4041 18.3041C11.5041 18.3041 10.7041 18.604 10.0041 19.3041L9.30405 20.0041L7.50405 18.2041L13.7041 7.50405H16.8041C17.0041 7.50405 17.2041 7.50405 17.4041 7.50405L16.6041 8.30405C16.0041 8.90405 15.6041 9.80405 15.6041 10.7041C15.6041 11.6041 16.0041 12.4041 16.6041 13.1041C17.2041 13.7041 18.1041 14.1041 19.0041 14.1041C19.9041 14.1041 20.7041 13.8041 21.4041 13.1041L23.7041 10.8041L37.604 24.7041C38.104 25.2041 38.104 26.0041 37.604 26.6041C37.404 26.8041 37.0041 27.0041 36.7041 27.0041C36.3041 27.0041 36.0041 26.9041 35.8041 26.6041L27.2041 18.0041C26.7041 17.5041 26.1041 17.5041 25.7041 17.9041ZM21.3041 33.9041C20.9041 33.9041 20.6041 33.8041 20.4041 33.5041C20.1041 33.3041 20.0041 33.0041 20.0041 32.604C20.0041 32.204 20.1041 31.9041 20.4041 31.7041L21.7041 30.4041C21.9041 30.2041 22.3041 30.0041 22.6041 30.0041C23.0041 30.0041 23.3041 30.1041 23.5041 30.4041C24.0041 30.9041 24.0041 31.7041 23.5041 32.3041L22.2041 33.604C22.0041 33.8041 21.604 33.9041 21.3041 33.9041ZM10.7041 21.5041L11.5041 20.7041C11.7041 20.5041 12.1041 20.3041 12.4041 20.3041C12.8041 20.3041 13.1041 20.4041 13.3041 20.7041C13.5041 20.9041 13.7041 21.3041 13.7041 21.6041C13.7041 21.9041 13.6041 22.3041 13.3041 22.5041L12.5041 23.3041C12.0041 23.8041 11.2041 23.8041 10.6041 23.3041C10.4041 23.104 10.2041 22.7041 10.2041 22.4041C10.3041 22.1041 10.5041 21.8041 10.7041 21.5041ZM13.7041 25.1041L15.0041 23.8041C15.2041 23.604 15.6041 23.4041 15.9041 23.4041C16.3041 23.4041 16.604 23.5041 16.8041 23.8041C17.0041 24.0041 17.2041 24.4041 17.2041 24.7041C17.2041 25.1041 17.104 25.4041 16.8041 25.6041L15.5041 26.9041C15.3041 27.1041 14.9041 27.3041 14.6041 27.3041C14.3041 27.3041 13.9041 27.2041 13.7041 26.9041C13.5041 26.7041 13.3041 26.3041 13.3041 26.0041C13.4041 25.7041 13.5041 25.3041 13.7041 25.1041ZM17.1041 28.4041L18.4041 27.1041C18.6041 26.9041 19.0041 26.7041 19.3041 26.7041C19.604 26.7041 20.0041 26.8041 20.2041 27.1041C20.4041 27.3041 20.6041 27.7041 20.6041 28.0041C20.6041 28.3041 20.5041 28.7041 20.2041 28.9041L18.9041 30.2041C18.7041 30.4041 18.3041 30.6041 18.0041 30.6041C17.6041 30.6041 17.3041 30.5041 17.1041 30.2041C16.9041 30.0041 16.7041 29.604 16.7041 29.3041C16.7041 29.0041 16.8041 28.6041 17.1041 28.4041ZM31.3041 9.20405C31.3041 8.60405 30.8041 8.20405 30.3041 8.20405C29.7041 8.20405 29.3041 8.70405 29.3041 9.20405C29.3041 10.3041 28.7041 11.3041 27.8041 11.9041L24.4041 8.50405C24.0041 8.10405 23.3041 8.10405 22.9041 8.50405L19.8041 11.6041C19.604 11.8041 19.2041 12.0041 18.9041 12.0041C18.5041 12.0041 18.2041 11.9041 18.0041 11.6041C17.8041 11.4041 17.6041 11.0041 17.6041 10.7041C17.6041 10.3041 17.7041 10.0041 18.0041 9.80405L21.5041 6.30405C22.0041 5.80405 22.7041 5.50405 23.5041 5.50405H32.7041L39.0041 16.3041L35.604 19.7041L29.2041 13.3041C30.5041 12.4041 31.3041 10.8041 31.3041 9.20405ZM8.80405 4.00405L12.0041 5.80405C12.1041 5.90405 12.1041 6.00405 12.0041 6.10405L5.70405 17.2041C5.60405 17.3041 5.50405 17.3041 5.40405 17.3041L2.20405 15.5041C2.10405 15.5041 2.10405 15.4041 2.10405 15.4041C2.10405 15.4041 2.10405 15.3041 2.10405 15.2041L8.50405 4.10405C8.50405 4.00405 8.60405 4.00405 8.60405 4.00405C8.60405 4.00405 8.70405 3.90405 8.80405 4.00405Z" fill="#00005B"/>
<path d="M41.2041 7.90406C41.4041 8.00406 41.7041 8.20406 42.0041 8.20406C42.3041 8.20406 42.5041 8.10406 42.7041 7.90406C42.9041 7.70406 43.0041 7.40406 43.0041 7.10406C43.0041 6.80406 42.9041 6.60406 42.7041 6.40406C42.3041 6.00406 41.6041 6.00406 41.2041 6.40406C41.0041 6.60406 40.9041 6.90406 40.9041 7.10406C40.9041 7.40406 41.0041 7.70406 41.2041 7.90406Z" fill="#00005B"/>
</svg>
