<svg width="36" height="25" viewBox="0 0 36 25" fill="none" xmlns="http://www.w3.org/2000/svg">
<path d="M32.5714 24.8571H3.42857C1.54286 24.8571 0 23.3143 0 21.4286V3.42857C0 1.54286 1.54286 0 3.42857 0H32.5714C34.4571 0 36 1.54286 36 3.42857V21.4286C36 23.3143 34.4571 24.8571 32.5714 24.8571ZM3.42857 1.71429C2.48571 1.71429 1.71429 2.48571 1.71429 3.42857V21.4286C1.71429 22.3714 2.48571 23.1429 3.42857 23.1429H32.5714C33.5143 23.1429 34.2857 22.3714 34.2857 21.4286V3.42857C34.2857 2.48571 33.5143 1.71429 32.5714 1.71429H3.42857Z" fill="#00005B"/>
<path fill-rule="evenodd" clip-rule="evenodd" d="M23.9999 15.6857C25.8856 15.6857 27.4284 14.1429 27.4284 12.2572C27.4284 10.3714 25.8856 8.82858 23.9999 8.82858C22.1141 8.82858 20.5713 10.3714 20.5713 12.2572C20.5713 14.1429 22.1141 15.6857 23.9999 15.6857Z" fill="#FFED00"/>
<path d="M26.0568 17.9143C22.9711 17.9143 20.4854 15.4286 20.4854 12.3429C20.4854 9.25714 22.9711 6.77142 26.0568 6.77142C29.1425 6.77142 31.6282 9.25714 31.6282 12.3429C31.6282 15.4286 29.1425 17.9143 26.0568 17.9143ZM26.0568 8.57142C23.9139 8.57142 22.1996 10.2857 22.1996 12.4286C22.1996 14.5714 23.9139 16.2857 26.0568 16.2857C28.1996 16.2857 29.9139 14.5714 29.9139 12.4286C29.9139 10.2857 28.1996 8.57142 26.0568 8.57142Z" fill="#00005B"/>
<path d="M15.4283 20.0571H5.99972C5.48544 20.0571 5.14258 19.7143 5.14258 19.2C5.14258 18.6857 5.48544 18.3429 5.99972 18.3429H15.4283C15.9426 18.3429 16.2854 18.6857 16.2854 19.2C16.2854 19.7143 15.9426 20.0571 15.4283 20.0571Z" fill="#F2609E"/>
<path fill-rule="evenodd" clip-rule="evenodd" d="M5.22852 10.2857L7.79994 7.71429V12.8572L5.22852 10.2857Z" fill="#00005B"/>
<path fill-rule="evenodd" clip-rule="evenodd" d="M10.714 13.4572V15.8572L8.14258 13.2857V10.8857L10.714 13.4572Z" fill="#00005B"/>
<path fill-rule="evenodd" clip-rule="evenodd" d="M8.31445 7.20002L10.7144 4.80002V7.20002H8.31445Z" fill="#00005B"/>
<path fill-rule="evenodd" clip-rule="evenodd" d="M8.14258 10.1143H10.714V7.54288H8.14258V10.1143Z" fill="#00005B"/>
<path fill-rule="evenodd" clip-rule="evenodd" d="M8.31445 10.4572H10.7144V12.8572L8.31445 10.4572Z" fill="#00005B"/>
<path fill-rule="evenodd" clip-rule="evenodd" d="M16.2854 4.80002L11.1426 9.94288V4.80002H16.2854Z" fill="#00005B"/>
<path fill-rule="evenodd" clip-rule="evenodd" d="M11.0566 16.0286V10.8857L16.1995 16.0286H11.0566Z" fill="#00005B"/>
</svg>
