<svg width="20" height="24" viewBox="0 0 20 24" fill="none" xmlns="http://www.w3.org/2000/svg">
<circle cx="10" cy="12" r="9" fill="white" stroke="#009DD6" stroke-width="2"/>
<path d="M9.168 18V10.144H11.008V18H9.168ZM10.096 8.768C9.76533 8.768 9.49333 8.672 9.28 8.48C9.06667 8.288 8.96 8.03733 8.96 7.728C8.96 7.41867 9.06667 7.168 9.28 6.976C9.49333 6.77333 9.76533 6.672 10.096 6.672C10.4267 6.672 10.6987 6.77333 10.912 6.976C11.1253 7.168 11.232 7.41867 11.232 7.728C11.232 8.03733 11.1253 8.288 10.912 8.48C10.6987 8.672 10.4267 8.768 10.096 8.768Z" fill="#009DD6"/>
</svg>
